<?xml version="1.0" encoding="utf-8"?>
<!-- Generator: Adobe Illustrator 27.5.0, SVG Export Plug-In . SVG Version: 6.00 Build 0)  -->
<svg version="1.1" id="Layer_1" xmlns="http://www.w3.org/2000/svg" xmlns:xlink="http://www.w3.org/1999/xlink" x="0px" y="0px"
	 viewBox="0 0 100 100" enable-background="new 0 0 100 100" xml:space="preserve">
<path fill-rule="evenodd" clip-rule="evenodd" fill="#5A459C" d="M50,6C25.7,6,6,25.7,6,50s19.7,44,44,44s44-19.7,44-44S74.3,6,50,6
	z M75.1,76.1c-0.4,1.3-1,1.9-2.6,1.9c-14.5,0-29.2-0.4-46.8-0.4c-1,0-1.5-0.2-1.5-0.7c0-0.5,0.3-0.9,1.3-2.2
	c12.3-16.1,25.2-32.6,36.9-48H45.3c-4.4,0-9.8,0.2-12.5,1.5c-2.9,1.3-4.4,4-4.7,5.7c-0.2,1-0.5,1.3-1,1.3c-0.6,0-0.7-0.4-0.7-1.2
	c0-1.7,1.3-8.3,1.7-10.5c0.2-1,0.5-1.4,1-1.4c0.8,0,1.3,0.4,3.5,0.5c8.3,0.3,12.5,0.2,16,0.2h26.6c0.9,0,1.5,0.2,1.5,0.6
	c0,0.4-0.3,0.9-0.7,1.4c-12,16.4-25.3,33.1-37.6,48.8h21.4c8.9,0,12.3-1.8,13.7-4c0.8-1.2,1.3-2.5,1.6-3.5c0.2-0.7,0.3-1.2,0.9-1.2
	c0.7,0,0.9,0.5,0.9,2.3C76.8,69.5,75.7,74.3,75.1,76.1z"/>
</svg>
