<?xml version="1.0" encoding="utf-8"?>
<!-- Generator: Adobe Illustrator 27.5.0, SVG Export Plug-In . SVG Version: 6.00 Build 0)  -->
<svg version="1.1" xmlns="http://www.w3.org/2000/svg" xmlns:xlink="http://www.w3.org/1999/xlink" x="0px" y="0px"
	 viewBox="0 0 100 100" enable-background="new 0 0 100 100" xml:space="preserve">
<g id="Layer_1" display="none">
	<path display="inline" fill-rule="evenodd" clip-rule="evenodd" fill="#5A459C" d="M50,6C25.7,6,6,25.7,6,50s19.7,44,44,44
		s44-19.7,44-44S74.3,6,50,6z M75.1,76.1c-0.4,1.3-1,1.9-2.6,1.9c-14.5,0-29.2-0.4-46.8-0.4c-1,0-1.5-0.2-1.5-0.7
		c0-0.5,0.3-0.9,1.3-2.2c12.3-16.1,25.2-32.6,36.9-48H45.3c-4.4,0-9.8,0.2-12.5,1.5c-2.9,1.3-4.4,4-4.7,5.7c-0.2,1-0.5,1.3-1,1.3
		c-0.6,0-0.7-0.4-0.7-1.2c0-1.7,1.3-8.3,1.7-10.5c0.2-1,0.5-1.4,1-1.4c0.8,0,1.3,0.4,3.5,0.5c8.3,0.3,12.5,0.2,16,0.2h26.6
		c0.9,0,1.5,0.2,1.5,0.6c0,0.4-0.3,0.9-0.7,1.4c-12,16.4-25.3,33.1-37.6,48.8h21.4c8.9,0,12.3-1.8,13.7-4c0.8-1.2,1.3-2.5,1.6-3.5
		c0.2-0.7,0.3-1.2,0.9-1.2c0.7,0,0.9,0.5,0.9,2.3C76.8,69.5,75.7,74.3,75.1,76.1z"/>
</g>
<g id="Layer_2">
	<linearGradient id="SVGID_1_" gradientUnits="userSpaceOnUse" x1="9.7058" y1="27.3135" x2="88.2942" y2="72.6865">
		<stop  offset="4.109977e-07" style="stop-color:#00B1C9"/>
		<stop  offset="1" style="stop-color:#027AA2"/>
	</linearGradient>
	<path fill="url(#SVGID_1_)" d="M44.5,5.8L13,24c-2.8,1.6-4.5,4.6-4.5,7.8l0,36.4c0,3.2,1.7,6.2,4.5,7.8l31.5,18.2
		c2.8,1.6,6.2,1.6,9,0L85,76c2.8-1.6,4.5-4.6,4.5-7.8l0-36.4c0-3.2-1.7-6.2-4.5-7.8L53.5,5.8C50.7,4.2,47.3,4.2,44.5,5.8z"/>
	<g>
		<g>
			<path fill="#FFFFFF" d="M63.3,72.5c-2.7,0-5.8-0.4-9.1-1c-3.3-0.7-6.8-1.5-10.4-2.3c-3.6-0.8-7.3-1.6-11.2-2.4
				c-3.8-0.7-7.7-1.2-11.4-1.3c-0.5-0.1-0.9-0.4-1-0.8c-0.1-0.3,0-0.6,0.1-0.7c0.2-0.3,0.6-0.4,0.9-0.4c1.3,0,2.5-0.4,3.5-1.3
				c0.9-0.7,2.2-1.8,3.9-3.2c1.7-1.4,3.6-3.1,5.8-4.9c2.2-1.9,4.4-3.8,6.9-5.9c2.4-2.1,4.7-4.2,7-6.3c2.2-2.1,4.3-4.1,6.3-6
				c1.9-1.9,3.5-3.6,4.6-5c0.5-0.6,0.5-0.8,0.6-0.9c0,0,0,0,0,0c0,0-0.3-0.2-1.2-0.2c-2.8,0-5.8,0.1-8.8,0.2c-3,0.1-5.7,0.3-8,0.6
				c-1.5,0.2-2.9,0.4-4.1,0.8c-1.1,0.4-2,0.8-2.6,1.4c-0.3,0.3-0.6,0.5-0.9,0.5c-0.3,0-0.5-0.2-0.6-0.4c-0.1-0.2-0.1-0.3-0.1-0.6
				v-0.1l0-0.1c0.4-1,0.9-1.7,1.2-2.2c0.4-0.6,1.1-1,1.9-1.1c1.9-0.2,4.1-0.3,6.7-0.4c2.5-0.1,5.1-0.2,7.6-0.2c1.5,0,3.2,0,5-0.1
				c1.9-0.1,3.6-0.1,5.3-0.1c1.7,0,3.1-0.1,4.4-0.1c1.3,0,2.1,0,2.4,0c0.5,0,0.9,0.1,1.1,0.3c0.2,0.2,0.2,0.4,0.2,0.6
				c0,0.2-0.2,0.8-1.1,0.9c-0.2,0-0.4,0.2-0.7,0.4c-0.3,0.2-0.6,0.5-0.9,0.7c-1.3,1.1-2.8,2.4-4.5,4c-1.7,1.6-3.7,3.3-5.7,5.2
				C54.3,42,52.1,44,49.9,46c-2.2,2-4.5,4.1-6.6,6.2c-2.2,2.1-4.3,4.1-6.3,6c-2,1.9-3.8,3.7-5.4,5.4c-0.2,0.4-0.3,0.5-0.3,0.5
				c0,0.1,0.2,0.2,0.4,0.3c1.2,0.3,2.9,0.7,5.2,1.3c2.2,0.5,4.7,1,7.5,1.5c2.7,0.5,5.6,0.9,8.5,1.2c2.9,0.3,5.7,0.5,8.3,0.5
				c4.2,0,7.4-0.9,9.5-2.6c2.1-1.7,3.6-4.2,4.3-7.4c0.2-0.7,0.6-0.9,0.9-0.9c0.3,0,0.7,0.2,0.7,1.2v0.1l0,0.1
				c-0.3,1.6-0.9,3.3-1.7,4.9c-0.8,1.6-1.7,3.1-2.9,4.4c-1.2,1.3-2.5,2.3-3.9,2.9C66.6,72.2,65,72.5,63.3,72.5z"/>
			<path fill="#FFFFFF" d="M67.9,28.5c0.6,0,0.8,0.1,0.8,0.4c0,0.3-0.2,0.4-0.6,0.5c-0.3,0.1-0.6,0.2-0.9,0.5
				c-0.3,0.2-0.6,0.5-0.9,0.8c-1.3,1.1-2.8,2.4-4.5,3.9c-1.7,1.6-3.7,3.3-5.7,5.2c-2.1,1.9-4.2,3.8-6.5,5.9
				c-2.2,2.1-4.4,4.1-6.6,6.2c-2.2,2.1-4.3,4.1-6.3,6c-2,1.9-3.8,3.7-5.4,5.4c-0.3,0.4-0.4,0.7-0.4,0.8c0,0.3,0.2,0.6,0.7,0.7
				c1.2,0.3,3,0.8,5.2,1.3c2.2,0.5,4.7,1,7.5,1.5c2.7,0.5,5.6,0.9,8.5,1.2c2.9,0.3,5.7,0.5,8.3,0.5c4.3,0,7.6-0.9,9.8-2.7
				c2.2-1.8,3.7-4.3,4.4-7.6c0.1-0.3,0.2-0.5,0.4-0.5c0.2,0,0.2,0.2,0.2,0.7c-0.3,1.6-0.9,3.2-1.6,4.8c-0.7,1.6-1.7,3-2.8,4.3
				c-1.1,1.3-2.4,2.2-3.7,2.7c-1.4,0.6-2.9,0.8-4.6,0.8c-2.7,0-5.7-0.3-9-1c-3.3-0.7-6.7-1.5-10.3-2.3c-3.6-0.8-7.3-1.6-11.2-2.4
				c-3.9-0.7-7.7-1.2-11.5-1.3c-0.3-0.1-0.5-0.2-0.5-0.5c-0.1-0.3,0.1-0.4,0.5-0.4c1.4,0,2.7-0.5,3.8-1.4c0.9-0.7,2.2-1.8,3.9-3.2
				c1.7-1.4,3.6-3.1,5.8-4.9c2.2-1.9,4.4-3.8,6.9-5.9c2.4-2.1,4.7-4.2,7-6.3c2.2-2.1,4.3-4.1,6.3-6c1.9-1.9,3.5-3.6,4.7-5
				c0.4-0.6,0.7-0.9,0.7-1.2c0-0.4-0.6-0.7-1.7-0.7c-2.8,0-5.8,0.1-8.9,0.2c-3.1,0.1-5.7,0.3-8,0.6c-1.6,0.2-2.9,0.4-4.2,0.8
				c-1.2,0.4-2.2,0.9-2.8,1.5c-0.2,0.2-0.4,0.3-0.5,0.3c-0.2,0-0.2-0.2-0.2-0.5c0.4-0.9,0.8-1.7,1.2-2.2c0.3-0.5,0.9-0.8,1.6-0.9
				c1.9-0.2,4.1-0.3,6.6-0.4c2.5-0.1,5.1-0.2,7.6-0.2c1.5,0,3.2,0,5-0.1c1.9-0.1,3.6-0.1,5.3-0.1c1.7,0,3.1-0.1,4.4-0.1
				C66.8,28.5,67.6,28.5,67.9,28.5 M67.9,27.5c-0.3,0-1.1,0-2.4,0c-1.3,0-2.7,0.1-4.4,0.1c-1.7,0-3.4,0.1-5.3,0.1
				c-1.8,0.1-3.5,0.1-5,0.1c-2.6,0.1-5.2,0.1-7.6,0.2c-2.5,0.1-4.8,0.2-6.7,0.4l0,0l0,0c-1,0.2-1.8,0.6-2.3,1.3
				c-0.4,0.5-0.8,1.3-1.2,2.3l-0.1,0.2v0.2c0,1.5,1.1,1.5,1.2,1.5c0.5,0,0.9-0.3,1.2-0.6c0.5-0.5,1.3-0.9,2.4-1.3
				c1.2-0.4,2.5-0.6,4-0.8c2.2-0.3,4.9-0.5,8-0.6c3.1-0.1,6-0.2,8.8-0.2c0.1,0,0.3,0,0.4,0c0,0.1-0.1,0.1-0.2,0.2
				c-1.1,1.4-2.7,3.1-4.6,4.9c-1.9,1.9-4,3.9-6.3,6c-2.2,2.1-4.6,4.2-7,6.3c-2.3,2-4.6,4-6.9,5.9c-2.2,1.9-4.1,3.5-5.8,4.9
				c-1.7,1.5-3,2.5-3.8,3.2c-0.9,0.8-2,1.2-3.2,1.2c-0.2,0-0.9,0-1.3,0.6c-0.2,0.3-0.3,0.7-0.2,1.1c0.2,0.6,0.7,1,1.3,1.1l0.1,0
				l0.1,0c3.7,0.1,7.6,0.5,11.3,1.3c3.8,0.7,7.6,1.5,11.1,2.4c3.6,0.8,7.1,1.6,10.4,2.3c3.3,0.7,6.5,1.1,9.2,1.1
				c1.8,0,3.4-0.3,4.9-0.9c1.5-0.6,2.9-1.6,4.1-3c1.2-1.3,2.2-2.9,2.9-4.6c0.8-1.7,1.3-3.4,1.7-5l0-0.1v-0.1c0-1.5-1-1.7-1.2-1.7
				c-0.4,0-1,0.2-1.4,1.2l0,0.1l0,0.1c-0.7,3.1-2,5.5-4.1,7.1c-2.1,1.6-5.2,2.4-9.2,2.4c-2.6,0-5.3-0.2-8.2-0.5
				c-2.9-0.3-5.7-0.7-8.5-1.2c-2.7-0.5-5.2-1-7.4-1.5c-2.2-0.5-3.8-0.9-5-1.2c0,0,0,0,0,0c1.6-1.6,3.4-3.4,5.4-5.3
				c2-1.9,4.1-3.9,6.3-6c2.1-2.1,4.4-4.1,6.6-6.2c2.2-2,4.4-4,6.5-5.9c2.1-1.9,4-3.6,5.7-5.2c1.7-1.6,3.2-2.9,4.5-3.9l0,0l0,0
				c0.2-0.2,0.5-0.5,0.8-0.7c0.3-0.2,0.4-0.3,0.5-0.3c1.2-0.2,1.4-1.1,1.4-1.4c0-0.4-0.1-0.7-0.3-1C68.9,27.5,68.2,27.5,67.9,27.5
				L67.9,27.5z"/>
		</g>
	</g>
</g>
</svg>
