<svg width="520" height="270" viewBox="0 0 530 270" fill="none" xmlns="http://www.w3.org/2000/svg">
  <rect width="520" height="260" fill="#FFFFFF"/>
  <line x1="225" y1="0" x2="225" y2="260" stroke="#E0E0E0" stroke-width="1"/>
  
  <rect x="0" y="0" width="225" height="28" fill="#F4F4F4"/>
  <line x1="0" y1="28" x2="225" y2="28" stroke="#E0E0E0" stroke-width="1"/>
  <text x="12" y="18" font-family="-apple-system, BlinkMacSystemFont, 'Segoe UI', sans-serif" font-size="10" font-weight="500" fill="#3E4246">Posit Assistant</text>
  
  <rect x="225" y="0" width="295" height="28" fill="#F2F2F2"/>
  <line x1="225" y1="28" x2="520" y2="28" stroke="#E0E0E0" stroke-width="1"/>
  <rect x="225" y="0" width="148" height="28" fill="#FFFFFF"/>
  <line x1="225" y1="27" x2="373" y2="27" stroke="#447099" stroke-width="2"/>
  <text x="237" y="18" font-family="-apple-system, BlinkMacSystemFont, 'Segoe UI', sans-serif" font-size="10" fill="#333333">analysis.ipynb</text>
  <line x1="356" y1="9" x2="366" y2="19" stroke="#8A8A8A" stroke-width="1.2"/>
  <line x1="366" y1="9" x2="356" y2="19" stroke="#8A8A8A" stroke-width="1.2"/>
  <line x1="373" y1="0" x2="373" y2="28" stroke="#E0E0E0" stroke-width="1"/>
  
  <rect x="225" y="28" width="295" height="34" fill="#FAFAFA"/>
  <line x1="225" y1="62" x2="520" y2="62" stroke="#E0E0E0" stroke-width="1"/>
  <g transform="translate(235, 37)" fill="#5A5A5A">
    <path d="M2.78 2L2 2.41v12l.78.42 9-6V8l-9-6zM3 13.48V3.35l7.6 5.07L3 13.48z"/>
    <path fill-rule="evenodd" clip-rule="evenodd" d="M6 14.683l8.78-5.853V8L6 2.147V3.35l7.6 5.07L6 13.48v1.203z"/>
  </g>
  <g transform="translate(257, 37)" fill="#5A5A5A">
    <path d="M10 12.6l.7.7 1.6-1.6 1.6 1.6.8-.7L13 11l1.7-1.6-.8-.8-1.6 1.7-1.6-1.7-.7.8 1.6 1.6-1.6 1.6zM1 4h14V3H1v1zm0 3h14V6H1v1zm8 2.5V9H1v1h8v-.5zM9 13v-1H1v1h8z"/>
  </g>
  <g transform="translate(279, 40) scale(0.6875)" fill="#5A5A5A">
    <path d="M8 1.5C8 1.22386 7.77614 1 7.5 1C7.22386 1 7 1.22386 7 1.5V7H1.5C1.22386 7 1 7.22386 1 7.5C1 7.77614 1.22386 8 1.5 8H7V13.5C7 13.7761 7.22386 14 7.5 14C7.77614 14 8 13.7761 8 13.5V8H13.5C13.7761 8 14 7.77614 14 7.5C14 7.22386 13.7761 7 13.5 7H8V1.5Z"/>
  </g>
  <text x="291" y="49" font-family="-apple-system, BlinkMacSystemFont, 'Segoe UI', sans-serif" font-size="10" fill="#5A5A5A">Code</text>
  <g transform="translate(322, 40) scale(0.6875)" fill="#5A5A5A">
    <path d="M8 1.5C8 1.22386 7.77614 1 7.5 1C7.22386 1 7 1.22386 7 1.5V7H1.5C1.22386 7 1 7.22386 1 7.5C1 7.77614 1.22386 8 1.5 8H7V13.5C7 13.7761 7.22386 14 7.5 14C7.77614 14 8 13.7761 8 13.5V8H13.5C13.7761 8 14 7.77614 14 7.5C14 7.22386 13.7761 7 13.5 7H8V1.5Z"/>
  </g>
  <text x="334" y="49" font-family="-apple-system, BlinkMacSystemFont, 'Segoe UI', sans-serif" font-size="10" fill="#5A5A5A">Markdown</text>
  <g transform="translate(410, 37)" fill="#5A5A5A">
    <path fill-rule="evenodd" clip-rule="evenodd" d="M4.681 3H2V2h3.5l.5.5V6H5V4a5 5 0 1 0 4.53-.761l.302-.954A6 6 0 1 1 4.681 3z"/>
  </g>
  <rect x="430" y="34" width="82" height="22" rx="4" fill="#FFFFFF" stroke="#447099" stroke-width="1.5"/>
  <circle cx="440" cy="45" r="4" fill="#3DAA6E"/>
  <text x="448" y="49" font-family="-apple-system, BlinkMacSystemFont, 'Segoe UI', sans-serif" font-size="9.5" fill="#333333">Python</text>
  <g transform="translate(498, 40) scale(0.625)" fill="#5A5A5A">
    <path fill-rule="evenodd" clip-rule="evenodd" d="M7.976 10.072l4.357-4.357.62.618L8.284 11h-.618L3 6.333l.619-.618 4.357 4.357z"/>
  </g>
  
  <rect x="235" y="70" width="278" height="110" rx="4" fill="#FFFFFF" stroke="#447099" stroke-width="1.5"/>
  <rect x="236.5" y="71.5" width="275" height="63" fill="#F8F8F8"/>
  <line x1="236" y1="134" x2="512" y2="134" stroke="#EEEEEE" stroke-width="1"/>
  <text x="253" y="86" font-family="'Consolas', 'SF Mono', 'Menlo', monospace" font-size="9" fill="#8DA5B8" text-anchor="end">1</text>
  <text x="253" y="98" font-family="'Consolas', 'SF Mono', 'Menlo', monospace" font-size="9" fill="#8DA5B8" text-anchor="end">2</text>
  <text x="253" y="110" font-family="'Consolas', 'SF Mono', 'Menlo', monospace" font-size="9" fill="#8DA5B8" text-anchor="end">3</text>
  <text x="253" y="122" font-family="'Consolas', 'SF Mono', 'Menlo', monospace" font-size="9" fill="#8DA5B8" text-anchor="end">4</text>
  <text x="261" y="86" font-family="'Consolas', 'SF Mono', 'Menlo', monospace" font-size="10.5">
    <tspan fill="#447099">x</tspan><tspan fill="#5A5A5A"> = </tspan><tspan fill="#098658">10</tspan>
  </text>
  <rect x="261" y="93" width="100" height="4" rx="2" fill="#C8C8C8"/>
  <rect x="261" y="105" width="140" height="4" rx="2" fill="#C8C8C8"/>
  <rect x="261" y="117" width="80" height="4" rx="2" fill="#C8C8C8"/>
  <rect x="255" y="151" width="6" height="14" fill="#447099" opacity="0.7"/>
  <rect x="267" y="156" width="6" height="9" fill="#447099" opacity="0.7"/>
  <rect x="279" y="148" width="6" height="17" fill="#447099" opacity="0.7"/>
  <rect x="291" y="153" width="6" height="12" fill="#447099" opacity="0.7"/>
  <rect x="303" y="149" width="6" height="16" fill="#447099" opacity="0.7"/>
  <rect x="315" y="157" width="6" height="8" fill="#447099" opacity="0.7"/>
  <line x1="249" y1="165" x2="335" y2="165" stroke="#DDDDDD" stroke-width="0.8"/>
  
  <rect x="235" y="190" width="278" height="42" rx="4" fill="#F8F8F8" stroke="#E0E0E0" stroke-width="1"/>
  <text x="253" y="206" font-family="'Consolas', 'SF Mono', 'Menlo', monospace" font-size="9" fill="#8DA5B8" text-anchor="end">1</text>
  <text x="253" y="218" font-family="'Consolas', 'SF Mono', 'Menlo', monospace" font-size="9" fill="#8DA5B8" text-anchor="end">2</text>
  <rect x="261" y="202" width="110" height="4" rx="2" fill="#C8C8C8"/>
  <rect x="261" y="214" width="75" height="4" rx="2" fill="#C8C8C8"/>
  
  
  <rect x="69" y="36" width="148" height="28" rx="6" fill="#EEF3F8" stroke="#D0DFE8" stroke-width="1"/>
  <rect x="79" y="44" width="108" height="4" rx="2" fill="#8DA5B8"/>
  <rect x="79" y="52" width="84" height="4" rx="2" fill="#8DA5B8"/>
  
  <rect x="8" y="72" width="209" height="86" rx="6" fill="#F8F8F8" stroke="#E8E8E8" stroke-width="1"/>
  <rect x="17" y="82" width="182" height="4" rx="2" fill="#C8C8C8"/>
  <rect x="17" y="92" width="160" height="4" rx="2" fill="#C8C8C8"/>
  <rect x="17" y="102" width="172" height="4" rx="2" fill="#C8C8C8"/>
  <rect x="17" y="113" width="192" height="33" rx="3" fill="#F0F0F0" stroke="#E0E0E0" stroke-width="1"/>
  <text x="25" y="126" font-family="'Consolas', 'SF Mono', 'Menlo', monospace" font-size="9">
    <tspan fill="#447099">y</tspan><tspan fill="#5A5A5A"> = </tspan><tspan fill="#447099">x</tspan><tspan fill="#5A5A5A"> * </tspan><tspan fill="#098658">2</tspan>
  </text>
  <rect x="25" y="134" width="130" height="4" rx="2" fill="#C8C8C8"/>
  <rect x="25" y="142" width="95" height="4" rx="2" fill="#C8C8C8"/>
  
  <rect x="74" y="166" width="143" height="28" rx="6" fill="#EEF3F8" stroke="#D0DFE8" stroke-width="1"/>
  <rect x="84" y="174" width="100" height="4" rx="2" fill="#8DA5B8"/>
  <rect x="84" y="182" width="68" height="4" rx="2" fill="#8DA5B8"/>
  
  <rect x="8" y="200" width="209" height="54" rx="6" fill="#FFFFFF" stroke="#E0E0E0" stroke-width="1"/>
  
  <rect x="14" y="207" width="106" height="15" rx="7.5" fill="#EEF3F8" stroke="#C8D9E8" stroke-width="1"/>
  <rect x="21" y="210.5" width="7" height="8" rx="1" fill="none" stroke="#447099" stroke-width="1"/>
  <line x1="23" y1="213" x2="27" y2="213" stroke="#447099" stroke-width="0.8"/>
  <line x1="23" y1="215" x2="27" y2="215" stroke="#447099" stroke-width="0.8"/>
  <text x="33" y="218" font-family="-apple-system, BlinkMacSystemFont, 'Segoe UI', sans-serif" font-size="9" fill="#447099">analysis.ipynb</text>
  
  <line x1="14" y1="226" x2="209" y2="226" stroke="#EEEEEE" stroke-width="1"/>
  
  <rect x="14" y="236" width="72" height="4" rx="2" fill="#DDDDDD"/>
  
  <g transform="translate(199, 232) scale(0.82)" fill="#447099">
    <path d="M1.17683 1.11898C1.32953 0.989634 1.54464 0.963786 1.72363 1.05328L14.7236 7.55328C14.893 7.63797 15 7.8111 15 8.00049C15 8.18987 14.893 8.36301 14.7236 8.4477L1.72363 14.9477C1.54464 15.0372 1.32953 15.0113 1.17683 14.882C1.02414 14.7526 0.96328 14.5447 1.02213 14.3534L2.97688 8.00049L1.02213 1.64754C0.96328 1.45627 1.02414 1.24833 1.17683 1.11898ZM3.8693 8.50049L2.32155 13.5307L13.382 8.00049L2.32155 2.47027L3.8693 7.50049H9.50001C9.77615 7.50049 10 7.72435 10 8.00049C10 8.27663 9.77615 8.50049 9.50001 8.50049H3.8693Z"/>
  </g>
</svg>