<svg xmlns="http://www.w3.org/2000/svg" viewBox="0 0 16 16">
    <defs>
        <style>.canvas{fill:none;opacity:0;}.cls-1{fill:#424242;fill-rule:evenodd;}</style>
    </defs>
    <title>GatherIcon_16x</title>
    <g id="canvas">
        <path class="canvas" d="M16,16H0V0H16Z"/>
    </g>
    <g id="level-1">
        <path class="cls-1" d="M1.5,1,1,1.5v3l.5.5h3L5,4.5v-3L4.5,1ZM2,4V2H4V4ZM1.5,6,1,6.5v3l.5.5h3L5,9.5v-3L4.5,6ZM2,9V7H4V9ZM1,11.5l.5-.5h3l.5.5v3l-.5.5h-3L1,14.5ZM2,12v2H4V12ZM12.5,5l-.5.5v6l.5.5h3l.5-.5v-6L15.5,5ZM15,8H13V6h2Zm0,3H13V9h2ZM9.1,8H6V9H9.1l-1,1,.7.6,1.8-1.8V8.1L8.8,6.3,8.1,7Z"/>
    </g>
</svg>

