<?xml version="1.0" encoding="iso-8859-1"?>
<!-- Generator: Adobe Illustrator 19.0.0, SVG Export Plug-In . SVG Version: 6.00 Build 0)  -->
<svg version="1.1" id="Capa_1" xmlns="http://www.w3.org/2000/svg" xmlns:xlink="http://www.w3.org/1999/xlink" x="0px" y="0px"
	 viewBox="0 0 311.2 311.2" style="enable-background:new 0 0 311.2 311.2;" xml:space="preserve">
<path style="fill:#3BB7D6;" d="M115.321,148c0,0,93.6-1.2,93.6,100c0-101.6,93.6-100,93.6-100s-93.6,1.2-93.6-100
	C208.521,149.2,115.321,148,115.321,148z"/>
<path style="fill:#7CCBD8;" d="M219.321,98.8c-6.4-13.2-10.4-29.6-10.4-50.8c0,98-87.6,100-93.2,100c2.8,0,22.8,0.4,43.2,10.4
	C180.521,152,208.121,136.4,219.321,98.8z"/>
<path style="fill:#3BB7D6;" d="M9.321,234.8c0,0,66.8-0.8,66.8,71.6c0-72.4,66.8-71.6,66.8-71.6s-66.8,0.8-66.8-71.6
	C76.121,235.6,9.321,234.8,9.321,234.8z"/>
<path style="fill:#7CCBD8;" d="M85.321,202.8c-5.6-10-9.2-22.8-9.2-39.6c0,70-62.4,71.6-66.4,71.6c2,0,18.8,0.4,34.8,9.6
	C59.321,239.2,77.721,228,85.321,202.8z"/>
<path style="fill:#3BB7D6;" d="M53.721,62.4c0,0,53.2-0.8,53.2,57.2c0-58,53.2-57.2,53.2-57.2s-53.2,0.8-53.2-57.2
	C106.921,62.8,53.721,62.4,53.721,62.4z"/>
<path style="fill:#7CCBD8;" d="M115.721,38.8c-5.2-8-8.4-19.2-8.4-33.6c0,56-50,57.2-53.2,57.2c1.6,0,16.4,0.4,29.6,8.8
	C95.321,67.2,109.321,58.4,115.721,38.8z"/>
<g>
	<path style="fill:#001A2D;" d="M214.121,48c0-2.8-2.4-5.2-5.2-5.2c-2.8,0-5.2,2.4-5.2,5.2c-0.4,91.6-79.2,94.8-88,94.8l0,0l0,0
		c-1.2,0-2.4,0.4-3.2,1.2c-0.8,0.4-1.2,0.8-1.6,1.6c-0.8,1.6-0.8,3.6,0,5.2c0.8,1.6,2.8,2.8,4.4,2.8c0,0,0,0,0.4,0
		c9.2,0,87.6,3.2,87.6,94.8c0,2.8,2.4,5.2,5.2,5.2c2.8,0,5.2-2.4,5.2-5.2c0-91.6,78.8-94.8,87.6-94.8l0,0l0,0c2,0,3.6-1.2,4.8-2.8
		c0.8-1.6,0.8-3.6-0.4-5.2c-0.8-1.6-2.8-2.4-4.4-2.8l0,0l0,0l0,0l0,0C292.921,142.8,214.121,139.6,214.121,48z M208.521,209.2
		c-11.6-38-40-54.4-62.4-61.2c22.4-7.2,50.8-23.6,62.4-61.2c11.6,38,40,54.4,62.4,61.2C248.521,155.2,220.521,171.6,208.521,209.2z"
		/>
	<path style="fill:#001A2D;" d="M112.521,119.6c0-50,42.8-52,48-52h0.4c2.8,0,5.2-2.4,5.2-5.2s-2.4-5.2-5.2-5.2l0,0l0,0
		c-4.8,0-48-1.6-48-52c0-2.8-2.4-5.2-5.2-5.2s-5.2,2.4-5.2,5.2c0,50-42.8,52-48,52l0,0l0,0c-0.4,0-0.4,0-0.4,0
		c-2.8,0.4-4.8,2.4-4.8,5.2s2.4,5.2,5.2,5.2l0,0c4.8,0,48,1.6,48,52c0,2.8,2.4,5.2,5.2,5.2
		C110.121,124.8,112.521,122.4,112.521,119.6z M78.121,62.4c11.2-4.8,22.4-13.6,28.8-28.4c6.4,15.2,18,23.6,28.8,28.4
		c-11.2,4.8-22.4,13.6-28.8,28.4C100.521,75.2,88.921,66.8,78.121,62.4z"/>
	<path style="fill:#001A2D;" d="M144.121,229.6c-0.4,0-0.8,0-1.2,0l0,0l0,0c-6.4,0-61.2-2.4-61.2-66c0-2.8-2.4-5.2-5.2-5.2
		s-5.2,2.4-5.2,5.2c0,64-54.8,66-61.2,66l0,0l0,0c-0.4,0-0.8,0-1.2,0c-2.4,0.4-4.4,2.8-4.4,5.2c0,2.8,2.4,5.2,5.2,5.2l0,0
		c6.4,0,61.2,2,61.2,66c0,2.8,2.4,5.2,5.2,5.2s5.2-2.4,5.2-5.2c0-64,54.8-66,61.2-66l0,0c2.8,0,5.2-2.4,5.2-5.2
		C148.121,232,146.521,230,144.121,229.6z M76.121,273.6c-8.4-22.4-25.2-33.6-39.6-38.8c14.8-5.6,31.2-16.4,39.6-38.8l0,0l0,0
		c8.4,22.4,25.2,33.6,39.6,38.8C101.321,240,84.521,251.2,76.121,273.6z"/>
</g>
<g>
</g>
<g>
</g>
<g>
</g>
<g>
</g>
<g>
</g>
<g>
</g>
<g>
</g>
<g>
</g>
<g>
</g>
<g>
</g>
<g>
</g>
<g>
</g>
<g>
</g>
<g>
</g>
<g>
</g>
</svg>
