<?xml version="1.0" encoding="utf-8"?>
<!-- Generator: Adobe Illustrator 26.5.0, SVG Export Plug-In . SVG Version: 6.00 Build 0)  -->
<svg version="1.1" xmlns="http://www.w3.org/2000/svg" xmlns:xlink="http://www.w3.org/1999/xlink" x="0px" y="0px"
	 viewBox="0 0 48 40" enable-background="new 0 0 48 40" xml:space="preserve">
<filter  id="AI_GaussianBlur_2">
	<feGaussianBlur  stdDeviation="2"></feGaussianBlur>
</filter>
<g id="Layer_2">
	<path fill="#75828D" d="M40,15v17c0,0.6-0.4,1-1,1H18c-0.6,0-1-0.4-1-1V7c0-0.6,0.4-1,1-1h13V4H17c-1.1,0-2,0.9-2,2V33
		c0,1.1,0.9,2,2,2H40c1.1,0,2-0.9,2-2V15H40z"/>
</g>
<g id="Layer_3">
	<path fill="#75828D" d="M31,4h-2c0,0,0,10,0,11s1,2,2.1,2S42,17,42,17v-2L31,4z M33.3,15C32,15,31,15,31,13.5c0-0.5,0-6.5,0-6.5
		l8,8C39,15,34,15,33.3,15z"/>
</g>
<g id="Layer_4">
	<g opacity="0.16" filter="url(#AI_GaussianBlur_2)">
		<circle fill="#061E20" cx="16" cy="14" r="10"/>
	</g>
	<circle fill="#00AC68" cx="15" cy="13" r="10"/>
</g>
<g id="Layer_5">
	<polygon fill="#FFFFFF" points="22,11 17,11 17,6 13,6 13,11 8,11 8,15 13,15 13,20 17,20 17,15 22,15 	"/>
</g>
</svg>
