<?xml version="1.0" encoding="utf-8"?>
<!-- Generator: Adobe Illustrator 26.5.0, SVG Export Plug-In . SVG Version: 6.00 Build 0)  -->
<svg version="1.1" xmlns="http://www.w3.org/2000/svg" xmlns:xlink="http://www.w3.org/1999/xlink" x="0px" y="0px"
	 viewBox="0 0 48 40" enable-background="new 0 0 48 40" xml:space="preserve">
<g id="Layer_3">
	<polygon fill="#75ABD9" points="25.7,35.9 22,34.1 22,20.1 25.7,20.7 	"/>
	<path fill="#75ABD9" d="M29.2,13.1c-4,0-7.4,3.2-7.2,7.2c0.1,2.1,2.2,4.1,3.7,5.4v-5.4c0-2,1.6-3.5,3.5-3.5c1.8,0,3.5,1.6,3.5,3.5
		c0,2.1-2,3.5-3.5,3.5c-0.2,0-0.4,1.3-0.5,1.3l-0.5,2.4c0.3,0.1,0.7,0.1,1.1,0.1c4,0,7.2-3.2,7.2-7.2S33.2,13.1,29.2,13.1z"/>
	<circle fill="#75ABD9" cx="30.4" cy="25.9" r="3.3"/>
</g>
<g id="Layer_7">
	<polygon opacity="0.88" fill="#75828D" points="30.1,37.3 28.2,37.3 28.2,16.3 30.1,16.3 	"/>
	<polygon fill="#75828D" points="44.2,33.3 42.2,33.3 42.2,12.3 44,11.5 	"/>
	<polygon fill="#75828D" points="16.2,33.3 14.2,33.1 14.3,11.5 16.2,12.3 	"/>
	<polygon fill="#75828D" points="44.2,33.3 43.2,31.7 28.8,36.4 29.3,38.3 	"/>
	<polygon fill="#75828D" points="14.2,33.1 15.3,31.3 29.8,36.4 29.3,38.3 	"/>
	<polygon opacity="0.88" fill="#75828D" points="14.8,13.3 15.1,11.5 29.6,16.2 29.3,18.1 	"/>
	<polygon opacity="0.88" fill="#75828D" points="43.8,13.1 43.2,11.5 28.8,16.2 29.3,18.1 	"/>
	<polygon fill="#75828D" points="29.2,7.5 14.3,11.5 16.1,12.8 29.2,9.3 42.2,13 44,11.5 	"/>
</g>
<g id="Layer_4">
	<circle fill="#00AC68" cx="13" cy="12" r="10"/>
</g>
<g id="Layer_5">
	<polygon fill="#FFFFFF" points="20,10 15,10 15,5 11,5 11,10 6,10 6,14 11,14 11,19 15,19 15,14 20,14 	"/>
</g>
</svg>
