<?xml version="1.0" encoding="utf-8"?>
<!-- Generator: Adobe Illustrator 26.5.0, SVG Export Plug-In . SVG Version: 6.00 Build 0)  -->
<svg version="1.1" xmlns="http://www.w3.org/2000/svg" xmlns:xlink="http://www.w3.org/1999/xlink" x="0px" y="0px"
	 viewBox="0 0 48 40" enable-background="new 0 0 48 40" xml:space="preserve">
<g id="Layer_4">
	<path fill="#75828D" d="M11,17.2H9c0,0,0-1.8,0-3.2c0-1.9,1.2-2.9,3-2.9c1.6,0,9.5,0,10,0c0.9,0,2.1-3,3.7-3c1.3,0,5.8,0,7,0
		c1.8,0,3.4,1,3.4,3.2C36,13,36,31,36,32c0,3-2.3,3-2.3,3l0.4-3.3c0,0,0-18.4,0-19.5c0-1.3-0.2-2.2-2.2-2.2c-1.9,0-4.4,0-5.7,0
		c-1,0-1.8,3-4.2,3s-8.3,0-9.2,0c-1.6,0-1.8,0.4-1.8,1.3C11,15.6,11,17.2,11,17.2z"/>
</g>
<g id="Layer_8">
	<path fill="#00AC68" d="M28.3,18.1c0,0,2.4-3.6,5.1-4.9C36,11.9,38,12,38,12V8l8.2,7.3L38,22.6V18c0,0-3-0.3-4.8,1
		c-1.6,1.2-2.5,3.1-2.5,3.1S30,21,29.7,20.2C29.4,19.5,28.3,18.1,28.3,18.1z"/>
</g>
<g id="Layer_3">
	<path fill="#75828D" d="M26.6,17h-22c-1.4,0-2.1,1.1-1.5,2.5l5.1,13c0.5,1.4,2.1,2.5,3.5,2.5h22c1.4,0,2.1-1.1,1.5-2.5l-5.1-13
		C29.6,18.1,28,17,26.6,17z M32.9,31.6c0.3,0.8-0.1,1.4-0.8,1.4H11.8c-0.8,0-1.6-0.6-1.9-1.4L5.5,20.4C5.2,19.6,5.5,19,6.3,19h20.2
		c0.8,0,1.6,0.6,1.9,1.4L32.9,31.6z"/>
</g>
</svg>
