<?xml version="1.0" encoding="utf-8"?>
<!-- Generator: Adobe Illustrator 26.5.0, SVG Export Plug-In . SVG Version: 6.00 Build 0)  -->
<svg version="1.1" xmlns="http://www.w3.org/2000/svg" xmlns:xlink="http://www.w3.org/1999/xlink" x="0px" y="0px"
	 viewBox="0 0 48 40" enable-background="new 0 0 48 40" xml:space="preserve">
<g id="Layer_6">
	<g>
		<path fill="#8EA1B3" d="M37.4,10c0.9,0,1.6,0.7,1.6,1.6v14.9c0,0.9-0.7,1.6-1.6,1.6H11.6c-0.9,0-1.6-0.7-1.6-1.6V11.6
			c0-0.9,0.7-1.6,1.6-1.6H37.4 M37.4,8H11.6C9.6,8,8,9.6,8,11.6v14.9c0,2,1.6,3.6,3.6,3.6h25.9c2,0,3.6-1.6,3.6-3.6V11.6
			C41,9.6,39.4,8,37.4,8L37.4,8z"/>
	</g>
</g>
<g id="Layer_7">
	<g>
		<circle fill="#2EB34A" cx="34.5" cy="13.5" r="1.5"/>
	</g>
</g>
<g id="Layer_3">
	<g>
		<path fill="#493E36" d="M16,34c-0.6,0-1-0.5-1-1V19c0-0.6,0.5-1,1-1h17c0.6,0,1,0.5,1,1v14c0,0.6-0.5,1-1,1H16z"/>
		<path fill="#8EA1B3" d="M33,19L33,19v14l-17,0l0-14H33 M33,17H16c-1.1,0-2,0.9-2,2v14c0,1.1,0.9,2,2,2h17c1.1,0,2-0.9,2-2V19
			C35,17.9,34.1,17,33,17L33,17z"/>
	</g>
</g>
<g id="Layer_8">
	<rect x="18.9" y="22" fill="#8EA1B3" width="11" height="2"/>
	<rect x="18.9" y="27" fill="#8EA1B3" width="11" height="2"/>
</g>
<g id="Layer_5">
	<g>
		<path fill="#493E36" d="M16.1,9c-0.5,0-0.9-0.4-0.9-0.9V4.9c0-0.5,0.4-0.9,0.9-0.9h17.2c0.5,0,0.9,0.4,0.9,0.9v3.2
			c0,0.5-0.4,0.9-0.9,0.9H16.1z"/>
		<path fill="#8EA1B3" d="M33.1,5v3h-17V5H33.1 M33.2,3H16.1c-1.1,0-1.9,0.9-1.9,1.9v3.2c0,1.1,0.9,1.9,1.9,1.9h17.2
			c1.1,0,1.9-0.9,1.9-1.9V4.9C35.1,3.8,34.3,3,33.2,3L33.2,3z"/>
	</g>
</g>
</svg>
