<?xml version="1.0" encoding="utf-8"?>
<!-- Generator: Adobe Illustrator 26.5.0, SVG Export Plug-In . SVG Version: 6.00 Build 0)  -->
<svg version="1.1" xmlns="http://www.w3.org/2000/svg" xmlns:xlink="http://www.w3.org/1999/xlink" x="0px" y="0px"
	 viewBox="0 0 48 40" enable-background="new 0 0 48 40" xml:space="preserve">
<g id="Layer_7" display="none">
	<g id="zNPjiV.tif" display="inline">
		
			<image overflow="visible" width="26" height="26" id="Layer_1_00000121970653298183931280000001218685861653374137_" xlink:href="3D78B22910359758.png"  transform="matrix(1 0 0 1 11 10)">
		</image>
	</g>
</g>
<g id="Layer_2">
	<path fill="#75828D" d="M33,8H15c-2.2,0-4,1.8-4,4v18c0,2.2,1.8,4,4,4h16c2.2,0,6-4,6-6V12C37,9.8,35.2,8,33,8z M35,27c0,2-3,5-4,5
		H15.5c-1.4,0-2.5-1.1-2.5-2.5V12.7c0-1.5,1.2-2.7,2.7-2.7h16.9c1.3,0,2.4,1.1,2.4,2.4"/>
</g>
<g id="Layer_3">
	<g>
		<path fill="#DFF2F2" d="M17,19c-0.6,0-1-0.5-1-1v-8c0-0.6,0.5-1,1-1h14c0.6,0,1,0.5,1,1v8c0,0.6-0.5,1-1,1H17z"/>
		<path fill="#75828D" d="M31,10L31,10v8l-14,0l0-8H31 M31,8H17c-1.1,0-2,0.9-2,2v8c0,1.1,0.9,2,2,2h14c1.1,0,2-0.9,2-2v-8
			C33,8.9,32.1,8,31,8L31,8z"/>
	</g>
	<g>
		<path fill="#75828D" d="M28,26v6h-9v-6H28 M28.3,24h-9.5c-1,0-1.7,0.8-1.7,1.7v6.5c0,1,0.8,1.7,1.7,1.7h9.5c1,0,1.7-0.8,1.7-1.7
			v-6.5C30,24.8,29.2,24,28.3,24L28.3,24z"/>
	</g>
</g>
</svg>
