<svg width="2224" height="2248" viewBox="0 0 2224 2248" fill="none" xmlns="http://www.w3.org/2000/svg">
<path d="M1098.38 0.0183855C1006.7 0.444345 919.157 8.26274 842.126 21.8934C615.201 61.9835 574.001 145.895 574.001 300.643V505.018H1110.25V573.143H574.001H372.751C216.902 573.143 80.4355 666.818 37.7507 845.018C-11.4857 1049.28 -13.6696 1176.74 37.7507 1390.02C75.8693 1548.78 166.902 1661.89 322.751 1661.89H507.126V1416.89C507.126 1239.9 660.269 1083.77 842.126 1083.77H1377.75C1526.85 1083.77 1645.88 961.005 1645.88 811.268V300.643C1645.88 155.317 1523.28 46.1478 1377.75 21.8934C1285.63 6.55888 1190.05 -0.407581 1098.38 0.0183855ZM808.376 164.393C863.767 164.393 909.001 210.366 909.001 266.893C909.001 323.22 863.767 368.768 808.376 368.768C752.786 368.768 707.751 323.22 707.751 266.893C707.751 210.366 752.786 164.393 808.376 164.393Z" fill="url(#paint0_linear_7107_1309)"/>
<path d="M1712.75 573.143V811.268C1712.75 995.883 1556.23 1151.27 1377.75 1151.27H842.126C695.409 1151.27 574.001 1276.84 574.001 1423.77V1934.39C574.001 2079.72 700.372 2165.2 842.126 2206.89C1011.87 2256.81 1174.65 2265.83 1377.75 2206.89C1512.75 2167.81 1645.88 2089.14 1645.88 1934.39V1730.02H1110.25V1661.89H1645.88H1914C2069.85 1661.89 2127.93 1553.19 2182.13 1390.02C2238.11 1222.04 2235.73 1060.5 2182.13 845.018C2143.61 689.869 2070.05 573.143 1914 573.143H1712.75ZM1411.5 1866.27C1467.09 1866.27 1512.13 1911.82 1512.13 1968.14C1512.13 2024.67 1467.09 2070.64 1411.5 2070.64C1356.11 2070.64 1310.88 2024.67 1310.88 1968.14C1310.88 1911.82 1356.11 1866.27 1411.5 1866.27Z" fill="url(#paint1_linear_7107_1309)"/>
<defs>
<linearGradient id="paint0_linear_7107_1309" x1="-6.68057e-06" y1="-5.80322e-06" x2="1236.53" y2="1053.7" gradientUnits="userSpaceOnUse">
<stop stop-color="#5A9FD4"/>
<stop offset="1" stop-color="#306998"/>
</linearGradient>
<linearGradient id="paint1_linear_7107_1309" x1="1398.61" y1="1950.96" x2="954.993" y2="1329.31" gradientUnits="userSpaceOnUse">
<stop stop-color="#FFD43B"/>
<stop offset="1" stop-color="#FFE873"/>
</linearGradient>
</defs>
</svg>
