<svg width="16" height="16" viewBox="0 0 16 16" fill="none" xmlns="http://www.w3.org/2000/svg">
<path d="M8.88672 9.20996L7.03418 11.0625L7.64941 11.6777L6.10449 13.2295C5.81738 13.5166 5.4847 13.7376 5.10645 13.8926C4.73275 14.0475 4.3431 14.125 3.9375 14.125C3.60482 14.125 3.28125 14.0749 2.9668 13.9746C2.6569 13.8698 2.36979 13.7171 2.10547 13.5166L0.745117 14.8701L0.129883 14.2549L1.4834 12.8945C1.28288 12.6302 1.13021 12.3431 1.02539 12.0332C0.92513 11.7188 0.875 11.3952 0.875 11.0625C0.875 10.6569 0.952474 10.2673 1.10742 9.89355C1.26237 9.5153 1.4834 9.18262 1.77051 8.89551L3.32227 7.35059L3.9375 7.96582L5.79004 6.11328L6.41211 6.72852L4.55273 8.58789L6.41211 10.4473L8.27148 8.58789L8.88672 9.20996ZM3.9375 13.25C4.22917 13.25 4.50716 13.1953 4.77148 13.0859C5.04036 12.972 5.27734 12.8125 5.48242 12.6074L6.41211 11.6777L3.32227 8.58789L2.39258 9.51758C2.1875 9.72266 2.02799 9.95964 1.91406 10.2285C1.80469 10.4928 1.75 10.7708 1.75 11.0625C1.75 11.3633 1.80697 11.6481 1.9209 11.917C2.03483 12.1813 2.18978 12.4137 2.38574 12.6143C2.58626 12.8102 2.81868 12.9652 3.08301 13.0791C3.35189 13.193 3.63672 13.25 3.9375 13.25ZM12.5166 3.10547C12.7171 3.36979 12.8675 3.65918 12.9678 3.97363C13.0726 4.28353 13.125 4.60482 13.125 4.9375C13.125 5.3431 13.0475 5.73503 12.8926 6.11328C12.7376 6.48698 12.5166 6.81738 12.2295 7.10449L10.6777 8.64941L6.35059 4.32227L7.89551 2.77051C8.18262 2.4834 8.51302 2.26237 8.88672 2.10742C9.26497 1.95247 9.6569 1.875 10.0625 1.875C10.3952 1.875 10.7165 1.92741 11.0264 2.03223C11.3408 2.13249 11.6302 2.28288 11.8945 2.4834L13.2549 1.12988L13.8701 1.74512L12.5166 3.10547ZM11.6074 6.48242C11.8125 6.27734 11.9697 6.04264 12.0791 5.77832C12.193 5.50944 12.25 5.22917 12.25 4.9375C12.25 4.63672 12.1908 4.35417 12.0723 4.08984C11.9583 3.82552 11.8011 3.59538 11.6006 3.39941C11.4046 3.19889 11.1745 3.04167 10.9102 2.92773C10.6458 2.80924 10.3633 2.75 10.0625 2.75C9.77083 2.75 9.49056 2.80697 9.22168 2.9209C8.95736 3.03027 8.72266 3.1875 8.51758 3.39258L7.58789 4.32227L10.6777 7.41211L11.6074 6.48242Z" fill="#A1260D"/>
</svg>
