<?xml version="1.0" encoding="utf-8"?>
<!-- Generator: Adobe Illustrator 26.5.0, SVG Export Plug-In . SVG Version: 6.00 Build 0)  -->
<svg version="1.1" xmlns="http://www.w3.org/2000/svg" xmlns:xlink="http://www.w3.org/1999/xlink" x="0px" y="0px"
	 viewBox="0 0 48 40" enable-background="new 0 0 48 40" xml:space="preserve">
<g id="Layer_2">
	<rect x="35" y="13" fill="#8EA2B2" width="2" height="14"/>
	<polygon fill="#8EA2B2" points="20.4,31.6 19,33 6.3,20.3 6.3,20.1 7.7,18.8 	"/>
	<polygon fill="#8EA2B2" points="20.4,8.4 19,7 6.3,19.7 7.7,21.2 	"/>
	<rect x="21" y="7" fill="#8EA2B2" width="2" height="8"/>
	<rect x="21" y="25" fill="#8EA2B2" width="2" height="8"/>
	<rect x="28" y="18" transform="matrix(-1.836970e-16 1 -1 -1.836970e-16 55 -3)" fill="#8EA2B2" width="2" height="16"/>
	<rect x="28" y="18" transform="matrix(-1.836970e-16 1 -1 -1.836970e-16 55 -3)" fill="#8EA2B2" width="2" height="16"/>
	<rect x="20" y="30" transform="matrix(-1.836970e-16 1 -1 -1.836970e-16 53 11)" fill="#8EA2B2" width="2" height="4"/>
	<rect x="20" y="6" transform="matrix(-1.836970e-16 1 -1 -1.836970e-16 29 -13)" fill="#8EA2B2" width="2" height="4"/>
	<rect x="28" y="6" transform="matrix(-1.836970e-16 1 -1 -1.836970e-16 43 -15)" fill="#8EA2B2" width="2" height="16"/>
</g>
<g id="Layer_4">
	<rect x="6.3" y="19.7" fill="#8EA2B2" width="0.5" height="0.5"/>
</g>
</svg>
