<?xml version="1.0" encoding="utf-8"?>
<!-- Generator: Adobe Illustrator 26.5.0, SVG Export Plug-In . SVG Version: 6.00 Build 0)  -->
<svg version="1.1" xmlns="http://www.w3.org/2000/svg" xmlns:xlink="http://www.w3.org/1999/xlink" x="0px" y="0px"
	 viewBox="0 0 48 40" enable-background="new 0 0 48 40" xml:space="preserve">
<g id="Layer_2">
	<rect x="7.1" y="13" fill="#75828D" width="2" height="14"/>
	<polygon fill="#75828D" points="41.4,19.6 40,21 27.3,8.3 27.3,8.1 28.8,7 	"/>
	<polygon fill="#75828D" points="41.4,20.4 40,19 27.3,31.7 28.7,33 	"/>
	<rect x="23" y="7" fill="#75828D" width="2" height="8"/>
	<rect x="23" y="25" fill="#75828D" width="2" height="8"/>
	<rect x="16" y="18" transform="matrix(-1.836970e-16 1 -1 -1.836970e-16 43 9)" fill="#75828D" width="2" height="16"/>
	<polygon fill="#75828D" points="24.9,33 25,31 29,31 28.7,33 	"/>
	<polygon fill="#75828D" points="24.9,9 24.9,7 28.8,7 29,9 	"/>
	<rect x="16" y="6" transform="matrix(-1.836970e-16 1 -1 -1.836970e-16 31 -3)" fill="#75828D" width="2" height="16"/>
</g>
<g id="Layer_4">
	<rect x="40.9" y="19.6" fill="#75828D" width="0.5" height="0.8"/>
</g>
</svg>
