<?xml version="1.0" encoding="utf-8"?>
<!-- Generator: Adobe Illustrator 26.5.0, SVG Export Plug-In . SVG Version: 6.00 Build 0)  -->
<svg version="1.1" xmlns="http://www.w3.org/2000/svg" xmlns:xlink="http://www.w3.org/1999/xlink" x="0px" y="0px"
	 viewBox="0 0 48 40" enable-background="new 0 0 48 40" xml:space="preserve">
<g id="Layer_3" display="none">
	<circle display="inline" fill="#FFFFFF" cx="31.1" cy="24.2" r="2.9"/>
	<path display="inline" fill="#FFFFFF" d="M30.1,12.7c-3.6,0-6.6,2.9-6.5,6.5c0.1,1.9,2,3.6,3.3,4.8v-4.8c0-1.8,1.4-3.2,3.2-3.2
		c1.6,0,3.2,1.4,3.2,3.2c0,0.8-0.3,1.4-0.8,1.9c1.1,0.5,1.9,1.6,1.9,2.9c1.3-1.2,2.1-2.9,2.1-4.8C36.6,15.6,33.7,12.7,30.1,12.7z"/>
	<path display="inline" fill="#00549F" d="M34.1,29.2h-9c-2.8,0-5-2.2-5-5v-9c0-2.8,2.2-5,5-5h9c2.8,0,5,2.2,5,5v9
		C39.1,26.9,36.9,29.2,34.1,29.2z"/>
</g>
<g id="Layer_6" display="none">
	<path display="inline" fill="#FFFFFF" d="M26.6,29.2c0,0-1.6,0-2.2-0.1c-0.7-0.1-1.1-0.3-1.1-0.3l0-9.7l3.3,0.6L26.6,29.2z"/>
	<circle display="inline" fill="#FFFFFF" cx="30.7" cy="24.3" r="2.9"/>
	<path display="inline" fill="#FFFFFF" d="M29.7,12.9c-3.6,0-6.6,2.9-6.5,6.5c0.1,1.9,2,3.6,3.3,4.8v-4.8c0-1.8,1.4-3.2,3.2-3.2
		c1.6,0,3.2,1.4,3.2,3.2c0,0.8-0.3,1.4-0.8,1.9c1.1,0.5,1.9,1.6,1.9,2.9c1.3-1.2,2.1-2.9,2.1-4.8C36.2,15.8,33.3,12.9,29.7,12.9z"/>
</g>
<g id="Layer_7">
	<polygon fill="#8EA2B2" points="31.1,34.3 29.2,34.3 29.2,14.3 31.1,14.3 	"/>
	<polygon fill="#8EA2B2" points="45.2,30.3 43.2,30.3 43.2,10.3 45,9.5 	"/>
	<polygon fill="#8EA2B2" points="17.2,30.3 15.2,30.1 15.2,24.6 17.1,23.8 	"/>
	<polygon fill="#8EA2B2" points="45.2,30.3 44.2,28.7 29.8,33.4 30.3,35.3 	"/>
	<polygon fill="#8EA2B2" points="15.2,30.1 16.3,28.3 30.8,33.4 30.3,35.3 	"/>
	<polygon fill="#8EA2B2" points="23,13.8 22.9,11.8 30.6,14.2 30.3,16.1 	"/>
	<polygon fill="#8EA2B2" points="44.8,11.1 44.2,9.5 29.8,14.2 30.3,16.1 	"/>
	<polygon fill="#8EA2B2" points="30.2,5.5 21.4,7.7 22.2,9.5 30.2,7.3 43.2,11 45,9.5 	"/>
</g>
<g id="Layer_4">
	<circle fill="#32485B" cx="12" cy="14" r="10"/>
</g>
<g id="Layer_5">
	<polygon fill="#8EA2B2" points="19,12 14,12 14,7 10,7 10,12 5,12 5,16 10,16 10,21 14,21 14,16 19,16 	"/>
</g>
</svg>
