<?xml version="1.0" encoding="utf-8"?>
<!-- Generator: Adobe Illustrator 26.5.0, SVG Export Plug-In . SVG Version: 6.00 Build 0)  -->
<svg version="1.1" xmlns="http://www.w3.org/2000/svg" xmlns:xlink="http://www.w3.org/1999/xlink" x="0px" y="0px"
	 viewBox="0 0 48 40" enable-background="new 0 0 48 40" xml:space="preserve">
<g id="Layer_2">
	<path fill="#8EA2B2" d="M40,16v15c0,0.6-0.4,1-1,1H20c-0.6,0-1-0.4-1-1V8c0-0.6,0.4-1,1-1h11V5H19c-1.1,0-2,0.9-2,2V32
		c0,1.1,0.9,2,2,2H40c1.1,0,2-0.9,2-2V16H40z"/>
</g>
<g id="Layer_3">
	<path fill="#8EA2B2" d="M31,5h-2c0,0,0,10,0,11s1,2,2.1,2S42,18,42,18v-2L31,5z M33.3,16C32,16,31,16,31,14.5c0-0.5,0-6.5,0-6.5
		l8,8C39,16,34,16,33.3,16z"/>
</g>
<g id="Layer_4">
	<circle fill="#00AC68" cx="15" cy="14" r="10"/>
</g>
<g id="Layer_5">
	<polygon fill="#FFFFFF" points="22,12 17,12 17,7 13,7 13,12 8,12 8,16 13,16 13,21 17,21 17,16 22,16 	"/>
</g>
</svg>
