<?xml version="1.0" encoding="utf-8"?>
<!-- Generator: Adobe Illustrator 26.5.0, SVG Export Plug-In . SVG Version: 6.00 Build 0)  -->
<svg version="1.1" xmlns="http://www.w3.org/2000/svg" xmlns:xlink="http://www.w3.org/1999/xlink" x="0px" y="0px"
	 viewBox="0 0 48 40" enable-background="new 0 0 48 40" xml:space="preserve">
<g id="Layer_3">
	<path fill="#8EA2B2" d="M25.6,16h-23c-1.4,0-2.1,1.1-1.5,2.5l5.1,13C6.7,32.9,8.3,34,9.7,34h23c1.4,0,2.1-1.1,1.5-2.5l-5.1-13
		C28.6,17.1,27,16,25.6,16z M31.9,30.6c0.3,0.8-0.1,1.4-0.8,1.4H9.8c-0.8,0-1.6-0.6-1.9-1.4L3.5,19.4C3.2,18.6,3.5,18,4.3,18h21.2
		c0.8,0,1.6,0.6,1.9,1.4L31.9,30.6z"/>
</g>
<g id="Layer_6">
	<polygon fill="#8EA2B2" points="31,15 39,15 39,10 47.9,18 39,26 39,21 31,21.1 	"/>
</g>
<g id="Layer_4">
	<g>
		<path fill="#8EA2B2" d="M33,10.2c0,0.2,0,1.3,0,2.8h2c0-1.9,0-3.4,0-3.8C35,7,33.4,6,31.6,6c-1.2,0-5.7,0-7,0c-1.6,0-2.8,3-3.7,3
			c-0.5,0-9.3,0-11,0c-1.8,0-3,1.1-3,2.9C7,13.4,7,16,7,16h2c0,0,0-2.5,0-3.7c0-0.9,0.3-1.3,1.8-1.3c0.8,0,7.3,0,9.8,0s3.2-3,4.3-3
			c1.4,0,3.9,0,5.8,0C32.7,8,33,8.9,33,10.2z"/>
		<path fill="#8EA2B2" d="M33,23c0,4.1,0,7.7,0,7.7L32.6,34c0,0,2.4,0,2.4-3c0-0.4,0-3.9,0-8H33z"/>
	</g>
</g>
</svg>
