<?xml version="1.0" encoding="utf-8"?>
<!-- Generator: Adobe Illustrator 26.5.0, SVG Export Plug-In . SVG Version: 6.00 Build 0)  -->
<svg version="1.1" xmlns="http://www.w3.org/2000/svg" xmlns:xlink="http://www.w3.org/1999/xlink" x="0px" y="0px"
	 viewBox="0 0 48 40" enable-background="new 0 0 48 40" xml:space="preserve">
<g id="Layer_4">
	<path fill="#8EA2B2" d="M10,16.2H8c0,0,0-2.8,0-4.2C8,10.1,9.2,9,11,9c1.6,0,11.5,0,12,0c0.9,0,2.1-3,3.7-3c1.3,0,5.8,0,7,0
		C35.4,6,37,7,37,9.2C37,11,37,30,37,31c0,3-2.3,3-2.3,3l0.4-3.3c0,0,0-19.4,0-20.5c0-1.3-0.2-2.2-2.2-2.2c-1.9,0-4.4,0-5.7,0
		c-1,0-1.8,3-4.2,3s-10.3,0-11.2,0c-1.6,0-1.8,0.4-1.8,1.3C10,13.6,10,16.2,10,16.2z"/>
</g>
<g id="Layer_8">
	<path fill="#00AC68" d="M29.3,17.1c0,0,2.4-3.6,5.1-4.9C37,10.9,39,11,39,11V7l8.2,7.3L39,21.6V17c0,0-3-0.3-4.8,1
		c-1.6,1.2-2.5,3.1-2.5,3.1S31,20,30.7,19.2C30.4,18.5,29.3,17.1,29.3,17.1z"/>
</g>
<g id="Layer_3">
	<path fill="#8EA2B2" d="M27.6,16h-24c-1.4,0-2.1,1.1-1.5,2.5l5.1,13c0.5,1.4,2.1,2.5,3.5,2.5h24c1.4,0,2.1-1.1,1.5-2.5l-5.1-13
		C30.6,17.1,29,16,27.6,16z M33.9,30.6c0.3,0.8-0.1,1.4-0.8,1.4H10.8c-0.8,0-1.6-0.6-1.9-1.4L4.5,19.4C4.2,18.6,4.5,18,5.3,18h22.2
		c0.8,0,1.6,0.6,1.9,1.4L33.9,30.6z"/>
</g>
</svg>
