<?xml version="1.0" encoding="utf-8"?>
<!-- Generator: Adobe Illustrator 26.5.0, SVG Export Plug-In . SVG Version: 6.00 Build 0)  -->
<svg version="1.1" xmlns="http://www.w3.org/2000/svg" xmlns:xlink="http://www.w3.org/1999/xlink" x="0px" y="0px"
	 viewBox="0 0 48 40" enable-background="new 0 0 48 40" xml:space="preserve">
<g id="Layer_2">
	<path fill="#75828D" d="M36,6H20c-2.2,0-4,1.8-4,4v16c0,2.2,1.8,4,4,4h14c2.2,0,6-4,6-6V10C40,7.8,38.2,6,36,6z M38,23c0,2-3,5-4,5
		H20.5c-1.4,0-2.5-1.1-2.5-3.5V9.7C18,9.2,19.2,8,20.7,8h14.9c1.3,0,2.4,1.1,2.4,2.4V23z"/>
</g>
<g id="Layer_3">
	<g>
		<path fill="#DFF2F2" d="M22,16c-0.6,0-1-0.5-1-1V8c0-0.6,0.5-1,1-1h12c0.6,0,1,0.5,1,1v7c0,0.6-0.5,1-1,1H22z"/>
		<path fill="#75828D" d="M34,8L34,8v7l-12,0l0-7H34 M34,6H22c-1.1,0-2,0.9-2,2v7c0,1.1,0.9,2,2,2h12c1.1,0,2-0.9,2-2V8
			C36,6.9,35.1,6,34,6L34,6z"/>
	</g>
	<g>
		<path fill="#75828D" d="M31,22v6h-7v-6H31 M31.3,20h-7.5c-1,0-1.7,0.8-1.7,1.7v6.5c0,1,0.8,1.7,1.7,1.7h7.5c1,0,1.7-0.8,1.7-1.7
			v-6.5C33,20.8,32.2,20,31.3,20L31.3,20z"/>
	</g>
</g>
<g id="Layer_5">
	<path fill="#F2F3F5" d="M26.9,10.5h-14c-2.2,0-4,1.8-4,4v15c0,2.2,1.8,4,4,4h12c2.2,0,6-4,6-6v-13C30.9,12.3,29.1,10.5,26.9,10.5z"
		/>
	<path fill="#75828D" d="M27.9,9.9h-16c-2.2,0-4,1.8-4,4v16c0,2.2,1.8,4,4,4h14c2.2,0,6-4,6-6v-14C31.9,11.7,30.1,9.9,27.9,9.9z
		 M29.9,26.9c0,2-3,5-4,5H12.4c-1.4,0-2.5-1.1-2.5-3.5V13.7c0-0.5,1.2-1.7,2.7-1.7h14.9c1.3,0,2.4,1.1,2.4,2.4V26.9z"/>
	<g>
		<path fill="#DDEEFA" d="M13.9,19.9c-0.6,0-1-0.5-1-1v-7c0-0.6,0.5-1,1-1h12c0.6,0,1,0.5,1,1v7c0,0.6-0.5,1-1,1H13.9z"/>
		<path fill="#75828D" d="M25.8,11.9L25.8,11.9v7l-12,0l0-7H25.8 M25.8,9.9h-12c-1.1,0-2,0.9-2,2v7c0,1.1,0.9,2,2,2h12
			c1.1,0,2-0.9,2-2v-7C27.9,10.8,27,9.9,25.8,9.9L25.8,9.9z"/>
	</g>
	<g>
		<path fill="#75828D" d="M22.9,25.9v6h-7v-6H22.9 M23.1,23.9h-7.5c-1,0-1.7,0.8-1.7,1.7v6.5c0,1,0.8,1.7,1.7,1.7h7.5
			c1,0,1.7-0.8,1.7-1.7v-6.5C24.9,24.7,24.1,23.9,23.1,23.9L23.1,23.9z"/>
	</g>
</g>
</svg>
