<?xml version="1.0" encoding="utf-8"?>
<!-- Generator: Adobe Illustrator 26.5.0, SVG Export Plug-In . SVG Version: 6.00 Build 0)  -->
<svg version="1.1" id="_xDBC0__xDEAB__00000065785950844485439640000007485543580844564355_"
	 xmlns="http://www.w3.org/2000/svg" xmlns:xlink="http://www.w3.org/1999/xlink" x="0px" y="0px" viewBox="0 0 62 80"
	 enable-background="new 0 0 62 80" xml:space="preserve">
<g id="_xDBC0__xDEAB_">
	<g>
		<path fill-rule="evenodd" clip-rule="evenodd" d="M47.4,52.9l-8.1-8.2c1.7-2.2,2.7-5,2.7-8c0-7.3-5.9-13.2-13.2-13.2
			s-13.2,5.9-13.2,13.2s5.9,13.2,13.2,13.2c2.9,0,5.5-0.9,7.7-2.5l8.2,8.2c0.4,0.4,0.9,0.6,1.4,0.6c1.1,0,1.9-0.8,1.9-2
			C48,53.7,47.8,53.2,47.4,52.9z M28.8,47.1c-5.7,0-10.4-4.7-10.4-10.4S23,26.3,28.8,26.3s10.4,4.7,10.4,10.4S34.5,47.1,28.8,47.1z"
			/>
	</g>
</g>
</svg>
