<?xml version="1.0" encoding="UTF-8"?>
<svg xmlns="http://www.w3.org/2000/svg" viewBox="0 0 2126.12 513.43">
  <defs>
    <style>
      .cls-1 {
        fill: #fff;
      }

      .cls-2 {
        fill: #404041;
      }

      .cls-3 {
        fill: #0072b4;
      }
    </style>
  </defs>
  <g id="Layer_5">
    <rect class="cls-3" width="411" height="411" rx="100" ry="100"/>
  </g>
  <g id="Layer_4">
    <g>
      <circle class="cls-1" cx="195.71" cy="284.78" r="48"/>
      <path class="cls-1" d="M205.5,31.88c-79.53,0-144,64.47-144,144,0,3.15.11,6.27.31,9.37-.15.94-.25,1.89-.25,2.87v173c0,9.94,8.06,18,18,18h20c9.94,0,18-8.06,18-18v-71.21s.02.02.03.03v-110.02c-.06-1.34-.1-2.68-.1-4.03,0-48.6,39.4-88,88-88s88,39.4,88,88c0,34.88-20.3,65.01-49.73,79.25,5.11,8.42,8.06,18.3,8.06,28.86,0,11.53-3.51,22.24-9.51,31.13,61.69-16.27,107.18-72.44,107.18-139.24,0-79.53-64.47-144-144-144Z"/>
    </g>
    <g>
      <path class="cls-2" d="M477.05,450.37c4.75-4.95,13-7.76,22.21-7.76,13,0,20.66,7.66,20.66,20.95v30.55h-14.07v-4.56c-2.13,2.52-7.47,5.14-13.58,5.14-11.15,0-18.43-6.5-18.43-16.49,0-11.64,10.86-16.59,22.89-16.59,3.49,0,6.98.49,9.12,1.26.1-5.14-2.72-7.18-8.15-7.18s-8.73,1.16-13.97,4.85l-6.69-10.18ZM505.86,476.85v-2.33c-1.55-.58-4.75-1.26-7.66-1.26-5.63,0-9.8,1.26-9.8,4.95,0,2.72,2.52,4.37,6.79,4.37,4.75,0,9.02-2.52,10.67-5.72Z"/>
      <path class="cls-2" d="M528.37,443.68h14.06v3.59c2.23-2.72,6.98-4.56,13.77-4.56,12.9,0,19.88,6.89,19.88,23.09v28.32h-14.06v-27.45c0-8.15-3.2-10.86-9.89-10.86-4.56,0-7.95,2.43-9.7,6.69v31.62h-14.06v-50.44Z"/>
      <path class="cls-2" d="M609.65,426.22h15.04v67.9h-15.04v-67.9Z"/>
      <path class="cls-2" d="M637.78,426.22h21.53c29.1,0,39.09,15.33,39.09,33.08,0,19.4-12.03,34.82-40.55,34.82h-20.08v-67.9ZM652.82,440.29v39.77h6.31c16.97,0,23.76-8.15,23.76-20.76,0-11.45-6.11-19.01-23.76-19.01h-6.31Z"/>
      <path class="cls-2" d="M707.62,426.22h51.9v14.07h-36.86v12.61h34.44v13.58h-34.44v13.58h37.73v14.07h-52.77v-67.9Z"/>
      <path class="cls-2" d="M787.64,443.68h6.98v-.97c0-14.65,8.54-20.18,18.33-20.18,5.63,0,10.77,2.04,13.68,5.92l-7.76,9.12c-.87-.97-2.13-1.94-5.04-1.94-3.59,0-5.24,2.52-5.24,7.08v.97h12.71v13.1h-12.61v37.34h-14.07v-37.34h-6.98v-13.1Z"/>
      <path class="cls-2" d="M850.11,442.61c16.1,0,27.45,10.96,27.45,26.19s-11.35,26.09-27.45,26.09-27.26-10.96-27.26-26.09,11.15-26.19,27.26-26.19ZM850.11,481.8c7.66,0,12.9-4.85,12.9-13s-5.82-13.09-12.9-13.09-12.71,4.75-12.71,13.09c0,7.37,5.14,13,12.71,13Z"/>
      <path class="cls-2" d="M883.87,443.68h14.06v2.04c1.07-1.46,4.46-3.01,7.76-3.01,5.33,0,7.66,1.55,9.89,4.37l-7.18,11.25c-.68-1.26-2.72-2.04-4.56-2.04-2.23,0-4.75.97-5.92,5.24v32.59h-14.06v-50.44Z"/>
      <path class="cls-2" d="M975.92,490.14c-1.75,1.94-6.11,4.75-12.71,4.75-13.77,0-23.76-9.02-23.76-25.9,0-15.62,11.25-26.38,24.64-26.38,7.08,0,10.18,1.36,11.83,2.42v-21.73h14.07v70.81h-14.07v-3.98ZM975.92,475.88v-16.3c-1.65-2.04-4.17-3.88-8.83-3.88-7.18,0-13.09,4.56-13.09,13.09s5.14,13,12.22,13c3.69,0,8.05-2.33,9.7-5.92Z"/>
      <path class="cls-2" d="M999,450.37c4.75-4.95,13-7.76,22.21-7.76,13,0,20.66,7.66,20.66,20.95v30.55h-14.07v-4.56c-2.13,2.52-7.47,5.14-13.58,5.14-11.15,0-18.43-6.5-18.43-16.49,0-11.64,10.86-16.59,22.89-16.59,3.49,0,6.98.49,9.12,1.26.1-5.14-2.72-7.18-8.15-7.18s-8.73,1.16-13.97,4.85l-6.69-10.18ZM1027.81,476.85v-2.33c-1.55-.58-4.75-1.26-7.66-1.26-5.63,0-9.8,1.26-9.8,4.95,0,2.72,2.52,4.37,6.79,4.37,4.75,0,9.02-2.52,10.67-5.72Z"/>
      <path class="cls-2" d="M1046.44,443.68h9.6v-11.74h14.07v11.74h15.42v13.1h-15.42v16.39c0,6.11,1.36,8.44,5.14,8.44,3.3,0,5.92-1.16,8.63-3.3l5.82,9.99c-3.49,3.69-8.92,6.4-15.81,6.4-10.57,0-17.85-5.72-17.85-17.36v-20.56h-9.6v-13.1Z"/>
      <path class="cls-2" d="M1093.87,450.37c4.75-4.95,13-7.76,22.21-7.76,13,0,20.66,7.66,20.66,20.95v30.55h-14.07v-4.56c-2.13,2.52-7.47,5.14-13.58,5.14-11.15,0-18.43-6.5-18.43-16.49,0-11.64,10.86-16.59,22.89-16.59,3.49,0,6.98.49,9.12,1.26.1-5.14-2.72-7.18-8.15-7.18s-8.73,1.16-13.97,4.85l-6.69-10.18ZM1122.68,476.85v-2.33c-1.55-.58-4.75-1.26-7.66-1.26-5.63,0-9.8,1.26-9.8,4.95,0,2.72,2.52,4.37,6.79,4.37,4.75,0,9.02-2.52,10.67-5.72Z"/>
      <path class="cls-2" d="M1167.2,458.23c0-9.7,8.05-15.62,21.73-15.62,9.6,0,17.75,4.46,20.95,9.12l-9.6,9.21c-3.3-3.4-7.86-5.24-14.16-5.24-2.62,0-4.37.58-4.37,2.42,0,4.37,28.62,3.01,28.62,20.86,0,11.06-9.89,15.91-21.34,15.91-12.32,0-20.56-5.63-24.15-12.22l11.16-7.57c2.72,3.49,8.34,6.69,14.55,6.69,3.39,0,5.24-.87,5.24-2.72,0-4.95-28.62-3.69-28.62-20.85Z"/>
      <path class="cls-2" d="M1263.91,481.32c-4.56,8.92-13.29,13.58-22.79,13.58-16.3,0-27.35-10.19-27.35-26.09,0-14.94,10.86-26.19,26.67-26.19,11.93,0,19.88,5.33,23.09,12.61l-10.48,6.79c-3.2-4.36-6.6-6.3-11.74-6.3-7.66,0-13,5.14-13,13.09,0,6.98,5.53,13,14.36,13,5.24,0,8.54-2.62,10.96-6.6l10.28,6.11Z"/>
      <path class="cls-2" d="M1276.52,423.31c4.56,0,7.86,3.01,7.86,6.98,0,4.17-3.3,7.18-7.86,7.18-4.95,0-7.95-3.01-7.95-7.18s3.3-6.98,7.95-6.98ZM1269.44,443.68h14.06v50.44h-14.06v-50.44Z"/>
      <path class="cls-2" d="M1339.66,484.81c-5.43,6.79-13.29,10.09-21.73,10.09-16.3,0-27.26-10.19-27.26-26.09,0-14.74,9.12-26.19,26.19-26.19,13.77,0,24.06,9.12,24.06,23.18,0,1.55-.19,4.37-.78,8.15h-34.73c1.36,5.53,6.5,7.86,12.71,7.86,4.75,0,10.09-1.84,13.1-5.53l8.44,8.54ZM1305.71,461.82h20.66c-1.26-4.75-4.85-6.6-9.99-6.6s-8.92,2.13-10.67,6.6Z"/>
      <path class="cls-2" d="M1347.23,443.68h14.06v3.59c2.23-2.72,6.98-4.56,13.77-4.56,12.9,0,19.88,6.89,19.88,23.09v28.32h-14.06v-27.45c0-8.15-3.2-10.86-9.89-10.86-4.56,0-7.95,2.43-9.7,6.69v31.62h-14.06v-50.44Z"/>
      <path class="cls-2" d="M1450.92,481.32c-4.56,8.92-13.29,13.58-22.79,13.58-16.3,0-27.35-10.19-27.35-26.09,0-14.94,10.86-26.19,26.67-26.19,11.93,0,19.88,5.33,23.09,12.61l-10.48,6.79c-3.2-4.36-6.6-6.3-11.74-6.3-7.66,0-13,5.14-13,13.09,0,6.98,5.53,13,14.36,13,5.24,0,8.54-2.62,10.96-6.6l10.28,6.11Z"/>
      <path class="cls-2" d="M1499.42,484.81c-5.43,6.79-13.29,10.09-21.73,10.09-16.3,0-27.26-10.19-27.26-26.09,0-14.74,9.12-26.19,26.19-26.19,13.77,0,24.06,9.12,24.06,23.18,0,1.55-.19,4.37-.78,8.15h-34.73c1.36,5.53,6.5,7.86,12.71,7.86,4.75,0,10.09-1.84,13.1-5.53l8.44,8.54ZM1465.47,461.82h20.66c-1.26-4.75-4.85-6.6-9.99-6.6s-8.92,2.13-10.67,6.6Z"/>
      <path class="cls-2" d="M1526,443.68h6.98v-.97c0-14.65,8.54-20.18,18.33-20.18,5.63,0,10.77,2.04,13.68,5.92l-7.76,9.12c-.87-.97-2.13-1.94-5.04-1.94-3.59,0-5.24,2.52-5.24,7.08v.97h12.71v13.1h-12.61v37.34h-14.07v-37.34h-6.98v-13.1Z"/>
      <path class="cls-2" d="M1563.63,443.68h14.06v2.04c1.07-1.46,4.46-3.01,7.76-3.01,5.33,0,7.66,1.55,9.89,4.37l-7.18,11.25c-.68-1.26-2.72-2.04-4.56-2.04-2.23,0-4.75.97-5.92,5.24v32.59h-14.06v-50.44Z"/>
      <path class="cls-2" d="M1620.48,442.61c16.1,0,27.45,10.96,27.45,26.19s-11.35,26.09-27.45,26.09-27.26-10.96-27.26-26.09,11.15-26.19,27.26-26.19ZM1620.48,481.8c7.66,0,12.9-4.85,12.9-13s-5.82-13.09-12.9-13.09-12.71,4.75-12.71,13.09c0,7.37,5.14,13,12.71,13Z"/>
      <path class="cls-2" d="M1726.11,494.12h-14.07v-29.58c0-4.85-1.26-8.73-6.5-8.73-3.3,0-6.5,1.94-8.34,6.11v32.2h-14.06v-31.91c0-3.78-2.13-6.4-5.92-6.4-4.46,0-7.57,2.72-8.92,6.21v32.11h-14.06v-50.44h14.06v3.4c2.72-3.01,7.37-4.37,12.12-4.37,5.72,0,9.51,1.75,13,5.43,3.78-3.88,7.37-5.43,13.19-5.43,12.51,0,19.5,6.21,19.5,17.85v33.56Z"/>
    </g>
    <path class="cls-2" d="M1969.82,442.63c16.04,0,27.36,10.92,27.36,26.1s-11.31,26-27.36,26-27.17-10.92-27.17-26,11.12-26.1,27.17-26.1M1969.82,481.69c7.64,0,12.86-4.84,12.86-12.96s-5.8-13.05-12.86-13.05-12.67,4.74-12.67,13.05c0,7.35,5.13,12.96,12.67,12.96"/>
    <path class="cls-2" d="M2058.83,422.08c4.54,0,7.83,3.25,7.83,7.55,0,4.51-3.29,7.76-7.83,7.76-4.93,0-7.93-3.25-7.93-7.76s3.29-7.55,7.93-7.55M2051.77,443.58h14.02v50.27h-14.02v-50.27Z"/>
    <path class="cls-2" d="M2072.12,443.58h9.57v-11.7h14.02v11.7h15.15v13.05h-15.15v16.33c0,6.09,1.35,8.41,5.13,8.41,3.29,0,5.9-1.16,8.6-3.29l7.14,8.85c-3.48,3.67-10.24,7.48-17.1,7.48-10.54,0-17.79-5.71-17.79-17.3v-20.5h-9.57v-13.05h0Z"/>
    <path class="cls-2" d="M2044.52,449.73c-3.44-3.3-10.56-7.56-20.68-7.56-14.41,0-22.89,5.96-22.89,15.73,0,15.17,24.16,15.54,29.87,18.88,1.03.58,1.64,1.38,1.27,2.54-1.07,3.36-14.61,5.01-24.6-4.65l-8.15,9.71c3.63,4.8,11.63,10.44,24.61,10.44,12.06,0,22.49-4.89,22.49-16.02,0-9.99-9.3-14-17.57-16.36-2.35-.65-4.63-1.18-6.6-1.71-3.26-.83-7.63-1.77-6.93-4.21,1.27-4.43,15.81-1.65,20.89,3l8.31-9.81h-.02Z"/>
    <path class="cls-2" d="M1888.08,443.7h14.04v2.62c2.61-2.42,7.36-3.68,11.24-3.68,15.3,0,24.79,10.56,24.79,25.47s-9.88,26.73-25.18,26.73c-4.84,0-9.3-.77-10.85-2.52v21.11h-14.04v-69.73h0ZM1902.11,461.42v16.08c1.55,2.32,4.94,4.26,8.91,4.26,7.85,0,12.59-4.94,12.59-12.59,0-8.91-4.45-13.46-11.82-13.46-4.65,0-7.84,2.32-9.68,5.71"/>
    <polygon id="fullLogo-8" class="cls-2" points="1793.8 458.6 1797.95 456.75 1816.72 448.38 1820.81 446.56 1866.16 426.34 1866.16 450.73 1847.82 458.6 1843.68 456.75 1862.85 448.51 1862.85 431.48 1824.91 448.38 1820.81 450.21 1802.12 458.54 1797.98 460.39 1784.75 466.28 1784.75 470.66 1797.77 476.47 1801.92 478.32 1821.1 486.86 1825.18 488.68 1862.85 505.47 1862.85 488.25 1843.88 480.11 1848.03 478.26 1866.16 486.04 1866.16 510.6 1821.12 490.52 1817.05 488.71 1797.75 480.11 1793.6 478.26 1781.43 472.83 1781.43 464.11 1793.8 458.6"/>
    <polygon class="cls-2" points="1825.04 468.38 1843.65 460.39 1839.5 458.54 1816.58 468.38 1839.7 478.32 1843.85 476.47 1825.04 468.38"/>
    <polygon id="fullLogo-9" class="cls-2" points="1797.77 476.47 1801.92 478.32 1820.81 470.2 1816.59 468.38 1797.77 476.47"/>
    <polygon id="fullLogo-10" class="cls-2" points="1802.12 458.54 1797.98 460.39 1816.59 468.38 1820.81 466.57 1802.12 458.54"/>
    <polygon id="fullLogo-11" class="cls-2" points="1847.82 458.6 1843.68 456.75 1824.91 448.38 1820.81 446.56 1775.47 426.34 1775.47 450.73 1793.8 458.6 1797.95 456.75 1778.78 448.51 1778.78 431.48 1816.72 448.38 1820.81 450.21 1839.51 458.54 1843.65 460.39 1856.88 466.28 1856.88 470.66 1843.85 476.47 1839.71 478.32 1820.52 486.86 1816.45 488.68 1778.78 505.47 1778.78 488.25 1797.75 480.11 1793.6 478.26 1775.47 486.04 1775.47 510.6 1820.51 490.52 1824.58 488.71 1843.88 480.11 1848.03 478.26 1860.19 472.83 1860.19 464.11 1847.82 458.6"/>
    <path class="cls-2" d="M2126.12,447.92c0,2.51-1.97,4.48-4.54,4.48s-4.57-1.97-4.57-4.48,2.03-4.43,4.57-4.43,4.54,1.97,4.54,4.43ZM2118.15,447.92c0,1.97,1.46,3.54,3.46,3.54s3.38-1.57,3.38-3.51-1.43-3.57-3.4-3.57-3.43,1.6-3.43,3.54ZM2120.88,450.24h-1.03v-4.43c.4-.08.97-.13,1.7-.13.84,0,1.22.13,1.54.33.24.19.43.54.43.97,0,.49-.38.87-.92,1.03v.05c.43.16.67.49.81,1.08.13.67.22.94.33,1.11h-1.11c-.13-.16-.22-.56-.35-1.08-.08-.49-.35-.7-.92-.7h-.49v1.78h0ZM2120.91,447.73h.49c.56,0,1.03-.19,1.03-.65,0-.4-.3-.67-.94-.67-.27,0-.46.03-.56.05v1.27h0Z"/>
  </g>
  <g id="Layer_3">
    <g>
      <path d="M478.47,356.55V57.11h124.05c101.81,0,127.05,53.9,127.05,103.09s-32.51,102.24-127.05,102.24h-57.75v94.11h-66.3ZM544.77,119.14v81.28h56.89c41.49,0,59.03-15.4,59.03-40.64,0-23.53-14.54-40.64-56.46-40.64h-59.46Z"/>
      <path d="M846.77,129.41c71.01,0,121.06,48.34,121.06,115.5s-50.05,115.07-121.06,115.07-120.2-48.34-120.2-115.07,49.19-115.5,120.2-115.5ZM846.77,302.22c33.79,0,56.89-21.39,56.89-57.32s-25.67-57.75-56.89-57.75-56.04,20.96-56.04,57.75c0,32.51,22.67,57.32,56.04,57.32Z"/>
      <path d="M991.77,198.28c0-42.78,35.5-68.87,95.82-68.87,42.35,0,78.28,19.68,92.4,40.21l-42.35,40.64c-14.54-14.97-34.65-23.1-62.45-23.1-11.55,0-19.25,2.57-19.25,10.69,0,19.25,126.19,13.26,126.19,91.97,0,48.77-43.63,70.15-94.11,70.15-54.33,0-90.69-24.81-106.51-53.9l49.19-33.37c11.98,15.4,36.79,29.52,64.17,29.52,14.97,0,23.1-3.85,23.1-11.98,0-21.82-126.19-16.25-126.19-91.97Z"/>
      <path d="M1242.86,44.28c20.1,0,34.65,13.26,34.65,30.8s-14.54,31.65-34.65,31.65c-21.82,0-35.08-13.26-35.08-31.65s14.54-30.8,35.08-30.8ZM1211.64,134.11h62.03v222.44h-62.03v-222.44Z"/>
      <path d="M1298.9,134.11h42.35v-51.76h62.03v51.76h68.01v57.75h-68.01v72.29c0,26.95,5.99,37.22,22.67,37.22,14.54,0,26.09-5.13,38.07-14.54l25.67,44.06c-15.4,16.25-39.35,28.23-69.73,28.23-46.63,0-78.71-25.24-78.71-76.57v-90.69h-42.35v-57.75Z"/>
      <path d="M1506.79,134.11h62.03v8.98c4.71-6.42,19.68-13.26,34.22-13.26,23.53,0,33.79,6.84,43.63,19.25l-31.66,49.62c-2.99-5.56-11.98-8.98-20.1-8.98-9.84,0-20.96,4.28-26.09,23.1v143.73h-62.03v-222.44Z"/>
      <path d="M1757.46,129.41c71.01,0,121.06,48.34,121.06,115.5s-50.05,115.07-121.06,115.07-120.2-48.34-120.2-115.07,49.19-115.5,120.2-115.5ZM1757.46,302.22c33.79,0,56.89-21.39,56.89-57.32s-25.67-57.75-56.89-57.75-56.04,20.96-56.04,57.75c0,32.51,22.67,57.32,56.04,57.32Z"/>
      <path d="M1906.31,134.11h62.03v15.83c9.84-11.98,30.8-20.1,60.74-20.1,56.89,0,87.69,30.37,87.69,101.81v124.91h-62.03v-121.06c0-35.93-14.12-47.91-43.63-47.91-20.1,0-35.08,10.69-42.78,29.52v139.45h-62.03v-222.44Z"/>
    </g>
  </g>
</svg>