<?xml version="1.0" encoding="utf-8"?>
<!-- Generator: Adobe Illustrator 26.5.0, SVG Export Plug-In . SVG Version: 6.00 Build 0)  -->
<svg version="1.1" id="help_00000147194613819184138090000013655513397958626234_"
	 xmlns="http://www.w3.org/2000/svg" xmlns:xlink="http://www.w3.org/1999/xlink" x="0px" y="0px" viewBox="0 0 62 80"
	 enable-background="new 0 0 62 80" xml:space="preserve">
<g id="_x3F_">
	<g>
		<path fill-rule="evenodd" clip-rule="evenodd" d="M30.8,46.5c-1.1,0-1.9,0.8-1.9,1.9s0.8,1.9,1.9,1.9c1.1,0,1.9-0.8,1.9-1.9
			S31.9,46.5,30.8,46.5z M31.3,28.8c-2.9,0-5.2,1.2-6,3.3c-0.3,0.6-0.4,1.1-0.4,1.7c0,0.9,0.5,1.4,1.4,1.4c0.7,0,1.2-0.3,1.5-1.2
			c0.5-1.6,1.6-2.5,3.4-2.5c1.9,0,3.3,1.2,3.3,2.9c0,1.4-0.6,2.3-2.4,3.4c-1.9,1.1-2.8,2.4-2.8,4.3v0.3c0,1,0.5,1.7,1.5,1.7
			c1,0,1.4-0.6,1.5-1.6c0.1-1.4,0.6-2.2,2.5-3.3c1.9-1.2,3.1-2.7,3.1-5C37.8,31,35.1,28.8,31.3,28.8z"/>
	</g>
</g>
<g id="Ellipse_3837">
	<g>
		<path fill-rule="evenodd" clip-rule="evenodd" d="M31,19c-11,0-20,9-20,20s9,20,20,20c11,0,20-9,20-20S42,19,31,19z M31,56
			c-9.4,0-17-7.6-17-17c0-9.4,7.6-17,17-17s17,7.6,17,17C48,48.4,40.4,56,31,56z"/>
	</g>
	<g>
		<path d="M31,19c-11,0-20,9-20,20s9,20,20,20c11,0,20-9,20-20S42,19,31,19L31,19z M31,19c11,0,20,9,20,20s-9,20-20,20
			c-11,0-20-9-20-20S20,19,31,19L31,19z M31,56c-9.4,0-17-7.6-17-17c0-9.4,7.6-17,17-17s17,7.6,17,17C48,48.4,40.4,56,31,56L31,56z
			 M31,56c9.4,0,17-7.6,17-17c0-9.4-7.6-17-17-17s-17,7.6-17,17C14,48.4,21.6,56,31,56L31,56z"/>
	</g>
</g>
</svg>
