<?xml version="1.0" encoding="utf-8"?>
<!-- Generator: Adobe Illustrator 26.5.0, SVG Export Plug-In . SVG Version: 6.00 Build 0)  -->
<svg version="1.1" id="presentation_00000088817891207776657900000015689674842009669047_"
	 xmlns="http://www.w3.org/2000/svg" xmlns:xlink="http://www.w3.org/1999/xlink" x="0px" y="0px" viewBox="0 0 62 80"
	 enable-background="new 0 0 62 80" xml:space="preserve">
<g id="Rectangle_3869">
	<g>
		<path fill-rule="evenodd" clip-rule="evenodd" d="M32,19h-1c-0.6,0-1,0.4-1,1v4c0,0.6,0.4,1,1,1h1c0.6,0,1-0.4,1-1v-4
			C33,19.4,32.6,19,32,19z M32,46h-1c-0.6,0-1,0.4-1,1v5c0,0.6,0.4,1,1,1h1c0.6,0,1-0.4,1-1v-5C33,46.4,32.6,46,32,46z"/>
	</g>
	<g>
		<path d="M32,19h-1c-0.6,0-1,0.4-1,1v4c0,0.6,0.4,1,1,1h1c0.6,0,1-0.4,1-1v-4C33,19.4,32.6,19,32,19L32,19z M32,19c0.6,0,1,0.4,1,1
			v4c0,0.6-0.4,1-1,1h-1c-0.6,0-1-0.4-1-1v-4c0-0.6,0.4-1,1-1H32L32,19z M32,46h-1c-0.6,0-1,0.4-1,1v5c0,0.6,0.4,1,1,1h1
			c0.6,0,1-0.4,1-1v-5C33,46.4,32.6,46,32,46L32,46z M32,46c0.6,0,1,0.4,1,1v5c0,0.6-0.4,1-1,1h-1c-0.6,0-1-0.4-1-1v-5
			c0-0.6,0.4-1,1-1H32L32,46z"/>
	</g>
</g>
<g id="Rectangle_3870">
	<g>
		<path fill-rule="evenodd" clip-rule="evenodd" d="M36.3,56.3l-3-5.2c-0.4-0.6-1.1-0.9-1.8-0.7c-0.7-0.2-1.4,0-1.8,0.7l-3,5.2
			c-0.4,0.7-0.2,1.6,0.5,2c0.7,0.4,1.6,0.2,2-0.5l2.2-3.8l2.2,3.8c0.4,0.7,1.3,1,2,0.5C36.5,58,36.7,57.1,36.3,56.3z"/>
	</g>
	<g>
		<path d="M32,50.4c-0.2,0-0.3,0-0.5,0.1c-0.2-0.1-0.3-0.1-0.5-0.1c-0.5,0-1,0.3-1.3,0.7l-3,5.2c-0.4,0.7-0.2,1.6,0.5,2
			c0.2,0.1,0.5,0.2,0.7,0.2c0.5,0,1-0.3,1.3-0.8l2.2-3.8l2.2,3.8c0.3,0.5,0.8,0.8,1.3,0.8c0.3,0,0.5-0.1,0.7-0.2
			c0.7-0.4,1-1.3,0.5-2l-3-5.2C33,50.7,32.5,50.4,32,50.4L32,50.4z M32,50.4c0.5,0,1,0.3,1.3,0.7l3,5.2c0.4,0.7,0.2,1.6-0.5,2
			c-0.2,0.1-0.5,0.2-0.7,0.2c-0.5,0-1-0.3-1.3-0.8L31.5,54l-2.2,3.8c-0.3,0.5-0.8,0.8-1.3,0.8c-0.3,0-0.5-0.1-0.7-0.2
			c-0.7-0.4-1-1.3-0.5-2l3-5.2c0.3-0.5,0.8-0.7,1.3-0.7c0.2,0,0.3,0,0.5,0.1C31.7,50.4,31.8,50.4,32,50.4L32,50.4z"/>
	</g>
</g>
<g id="Rectangle_3867">
	<g>
		<path fill-rule="evenodd" clip-rule="evenodd" d="M46,23H17c-1.1,0-2,0.9-2,2v21c0,1.1,0.9,2,2,2h29c1.1,0,2-0.9,2-2V25
			C48,23.9,47.1,23,46,23z M45,44c0,0.6-0.4,1-1,1H19c-0.6,0-1-0.4-1-1V27c0-0.6,0.4-1,1-1h25c0.6,0,1,0.4,1,1V44z"/>
	</g>
	<g>
		<path d="M46,23H17c-1.1,0-2,0.9-2,2v21c0,1.1,0.9,2,2,2h29c1.1,0,2-0.9,2-2V25C48,23.9,47.1,23,46,23L46,23z M46,23
			c1.1,0,2,0.9,2,2v21c0,1.1-0.9,2-2,2H17c-1.1,0-2-0.9-2-2V25c0-1.1,0.9-2,2-2H46L46,23z M19,45c-0.6,0-1-0.4-1-1V27
			c0-0.6,0.4-1,1-1h25c0.6,0,1,0.4,1,1v17c0,0.6-0.4,1-1,1H19L19,45z M19,45h25c0.6,0,1-0.4,1-1V27c0-0.6-0.4-1-1-1H19
			c-0.6,0-1,0.4-1,1v17C18,44.6,18.4,45,19,45L19,45z"/>
	</g>
</g>
</svg>
