<?xml version="1.0" encoding="utf-8"?>
<!-- Generator: Adobe Illustrator 26.5.0, SVG Export Plug-In . SVG Version: 6.00 Build 0)  -->
<svg version="1.1" id="preview_00000068666690767649266080000013877281973161259663_"
	 xmlns="http://www.w3.org/2000/svg" xmlns:xlink="http://www.w3.org/1999/xlink" x="0px" y="0px" viewBox="0 0 62 80"
	 enable-background="new 0 0 62 80" xml:space="preserve">
<g id="Shape_3844">
	<g>
		<path fill-rule="evenodd" clip-rule="evenodd" d="M23,25c-2.7,0-5,3-5,3l-8,13.8l2,1.2l7-12c0,0,1.4-3,4-3c1.8,0,3,1,3,1
			s1.3,0.4,1.5-0.1C27.8,28.4,28,27,28,27S25.7,25,23,25z"/>
	</g>
	<g>
		<path d="M23,25c-2.7,0-5,3-5,3l-8,13.8l2,1.2l7-12c0,0,1.4-3,4-3c1.8,0,3,1,3,1s0.5,0.2,0.9,0.2c0.3,0,0.5-0.1,0.6-0.3
			C27.8,28.4,28,27,28,27S25.7,25,23,25L23,25z M23,25c2.7,0,5,2,5,2s-0.2,1.4-0.5,1.9c-0.1,0.2-0.3,0.3-0.6,0.3
			C26.5,29.2,26,29,26,29s-1.2-1-3-1c-2.6,0-4,3-4,3l-7,12l-2-1.2L18,28C18,28,20.3,25,23,25L23,25z"/>
	</g>
</g>
<g id="Shape_3844_copy_2">
	<g>
		<path fill-rule="evenodd" clip-rule="evenodd" d="M44,28c0,0-2.3-3-5-3c-2.7,0-5,2-5,2s0.2,1.4,0.5,1.9C34.7,29.4,36,29,36,29
			s1.2-1,3-1c2.6,0,4,3,4,3l7.2,12l1.8-1.8L44,28z"/>
	</g>
	<g>
		<path d="M39,25c-2.7,0-5,2-5,2s0.2,1.4,0.5,1.9c0.1,0.2,0.3,0.3,0.6,0.3c0.4,0,0.9-0.2,0.9-0.2s1.2-1,3-1c2.6,0,4,3,4,3l7.2,12
			l1.8-1.8L44,28C44,28,41.7,25,39,25L39,25z M39,25c2.7,0,5,3,5,3l8,13.2L50.2,43L43,31c0,0-1.4-3-4-3c-1.8,0-3,1-3,1
			s-0.5,0.2-0.9,0.2c-0.3,0-0.5-0.1-0.6-0.3C34.2,28.4,34,27,34,27S36.3,25,39,25L39,25z"/>
	</g>
</g>
<g id="Ellipse_3841">
	<g>
		<path fill-rule="evenodd" clip-rule="evenodd" d="M19,35c-5.5,0-10,4.5-10,10s4.5,10,10,10s10-4.5,10-10S24.5,35,19,35z M19,52
			c-3.9,0-7-3.1-7-7c0-3.9,3.1-7,7-7c3.9,0,7,3.1,7,7C26,48.9,22.9,52,19,52z"/>
	</g>
	<g>
		<path d="M19,35c-5.5,0-10,4.5-10,10s4.5,10,10,10s10-4.5,10-10S24.5,35,19,35L19,35z M19,35c5.5,0,10,4.5,10,10s-4.5,10-10,10
			S9,50.5,9,45S13.5,35,19,35L19,35z M19,52c-3.9,0-7-3.1-7-7c0-3.9,3.1-7,7-7c3.9,0,7,3.1,7,7C26,48.9,22.9,52,19,52L19,52z M19,52
			c3.9,0,7-3.1,7-7c0-3.9-3.1-7-7-7c-3.9,0-7,3.1-7,7C12,48.9,15.1,52,19,52L19,52z"/>
	</g>
</g>
<g id="Ellipse_3841_copy">
	<g>
		<path fill-rule="evenodd" clip-rule="evenodd" d="M43,35c-5.5,0-10,4.5-10,10s4.5,10,10,10c5.5,0,10-4.5,10-10S48.5,35,43,35z
			 M43,52c-3.9,0-7-3.1-7-7c0-3.9,3.1-7,7-7c3.9,0,7,3.1,7,7C50,48.9,46.9,52,43,52z"/>
	</g>
	<g>
		<path d="M43,35c-5.5,0-10,4.5-10,10s4.5,10,10,10c5.5,0,10-4.5,10-10S48.5,35,43,35L43,35z M43,35c5.5,0,10,4.5,10,10
			s-4.5,10-10,10c-5.5,0-10-4.5-10-10S37.5,35,43,35L43,35z M43,52c-3.9,0-7-3.1-7-7c0-3.9,3.1-7,7-7c3.9,0,7,3.1,7,7
			C50,48.9,46.9,52,43,52L43,52z M43,52c3.9,0,7-3.1,7-7c0-3.9-3.1-7-7-7c-3.9,0-7,3.1-7,7C36,48.9,39.1,52,43,52L43,52z"/>
	</g>
</g>
<g id="Shape_3843">
	<g>
		<path fill-rule="evenodd" clip-rule="evenodd" d="M31,40c-1.5,0-3,2-3,2v3c0,0,1.3-2,3-2c1.7,0,3,2,3,2v-3C34,42,32.5,40,31,40z"
			/>
	</g>
	<g>
		<path d="M31,40c-1.5,0-3,2-3,2v3c0,0,1.3-2,3-2c1.7,0,3,2,3,2v-3C34,42,32.5,40,31,40L31,40z M31,40c1.5,0,3,2,3,2v3
			c0,0-1.3-2-3-2c-1.7,0-3,2-3,2v-3C28,42,29.5,40,31,40L31,40z"/>
	</g>
</g>
</svg>
