<?xml version="1.0" encoding="utf-8"?>
<svg viewBox="-0.925 37.12 278.464 278.464" xmlns="http://www.w3.org/2000/svg">
  <defs>
    <radialGradient gradientUnits="userSpaceOnUse" cx="138.307" cy="176.352" r="73.728" id="gradient-0" spreadMethod="pad">
      <stop offset="0" style="stop-color: rgba(216, 216, 216, 1)"/>
      <stop offset="1" style="stop-color: rgba(165, 165, 165, 1)"/>
    </radialGradient>
  </defs>
  <circle style="stroke: rgb(0, 0, 0); fill: url(#gradient-0);" cx="138.307" cy="176.352" r="105.216"/>
  <g>
    <path id="crop-marks-path" d="M -0.9249999999999989 82.475 L 33.091 82.475 M 44.43 37.12 L 44.43 71.136 M 243.523 82.475 L 277.539 82.475 M 232.184 71.136 L 232.184 37.12 M -0.9249999999999989 270.229 L 33.091 270.229 M 44.43 281.568 L 44.43 315.584 M 243.523 270.229 L 277.539 270.229 M 232.184 281.568 L 232.184 315.584" style="stroke: rgb(0, 0, 0); vector-effect: non-scaling-stroke;"/>
    <path d="M 30.090999999999998 54.128L 29.82184020788845 56.86082523080192L 29.024704491418102 59.48862952057018L 27.73022632913405 61.91042782413859L 25.988151790861156 64.03315179086115L 23.865427824138585 65.77522632913406L 21.443629520570177 67.06970449141811L 18.815825230801924 67.86684020788846L 16.083 68.136L 13.350174769198079 67.86684020788846L 10.722370479429822 67.06970449141811L 8.30057217586141 65.77522632913406L 6.177848209138842 64.03315179086115L 4.435773670865943 61.91042782413859L 3.1412955085818943 59.48862952057018L 2.3441597921115473 56.86082523080192L 2.0749999999999993 54.128L 2.3441597921115456 51.39517476919808L 3.1412955085818908 48.76737047942983L 4.435773670865945 46.34557217586141L 6.177848209138839 44.222848209138846L 8.3005721758614 42.48077367086596L 10.722370479429825 41.18629550858189L 13.350174769198068 40.38915979211155L 16.082999999999995 40.120000000000005L 18.815825230801924 40.38915979211155L 21.443629520570177 41.1862955085819L 23.86542782413858 42.48077367086594L 25.988151790861153 44.22284820913884L 27.73022632913405 46.34557217586141L 29.024704491418106 48.76737047942983L 29.82184020788845 51.39517476919807" style="fill: white;"/>
    <path d="M 16.083 54.128 L 30.090999999999998 54.128 L 29.82184020788845 56.86082523080192 ZM 16.083 54.128 L 29.024704491418102 59.48862952057018 L 27.73022632913405 61.91042782413859 ZM 16.083 54.128 L 25.988151790861156 64.03315179086115 L 23.865427824138585 65.77522632913406 ZM 16.083 54.128 L 21.443629520570177 67.06970449141811 L 18.815825230801924 67.86684020788846 ZM 16.083 54.128 L 16.083 68.136 L 13.350174769198079 67.86684020788846 ZM 16.083 54.128 L 10.722370479429822 67.06970449141811 L 8.30057217586141 65.77522632913406 ZM 16.083 54.128 L 6.177848209138842 64.03315179086115 L 4.435773670865943 61.91042782413859 ZM 16.083 54.128 L 3.1412955085818943 59.48862952057018 L 2.3441597921115473 56.86082523080192 ZM 16.083 54.128 L 2.0749999999999993 54.128 L 2.3441597921115456 51.39517476919808 ZM 16.083 54.128 L 3.1412955085818908 48.76737047942983 L 4.435773670865945 46.34557217586141 ZM 16.083 54.128 L 6.177848209138839 44.222848209138846 L 8.3005721758614 42.48077367086596 ZM 16.083 54.128 L 10.722370479429825 41.18629550858189 L 13.350174769198068 40.38915979211155 ZM 16.083 54.128 L 16.082999999999995 40.120000000000005 L 18.815825230801924 40.38915979211155 ZM 16.083 54.128 L 21.443629520570177 41.1862955085819 L 23.86542782413858 42.48077367086594 ZM 16.083 54.128 L 25.988151790861153 44.22284820913884 L 27.73022632913405 46.34557217586141 ZM 16.083 54.128 L 29.024704491418106 48.76737047942983 L 29.82184020788845 51.39517476919807 Z" style="fill: black;"/>
    <path d="M 274.539 298.57599999999996L 274.2698402078885 301.3088252308019L 273.4727044914181 303.93662952057014L 272.1782263291341 306.3584278241386L 270.4361517908612 308.48115179086113L 268.3134278241386 310.22322632913404L 265.8916295205702 311.51770449141804L 263.26382523080196 312.31484020788844L 260.531 312.58399999999995L 257.7981747691981 312.31484020788844L 255.17037047942983 311.51770449141804L 252.74857217586143 310.22322632913404L 250.62584820913884 308.48115179086113L 248.88377367086596 306.3584278241386L 247.5892955085819 303.93662952057014L 246.79215979211156 301.3088252308019L 246.523 298.57599999999996L 246.79215979211156 295.8431747691981L 247.5892955085819 293.2153704794298L 248.88377367086596 290.79357217586136L 250.62584820913884 288.6708482091388L 252.7485721758614 286.9287736708659L 255.17037047942983 285.6342955085819L 257.79817476919806 284.8371597921115L 260.531 284.568L 263.26382523080196 284.8371597921115L 265.8916295205702 285.6342955085819L 268.3134278241386 286.9287736708659L 270.4361517908612 288.6708482091388L 272.1782263291341 290.79357217586136L 273.4727044914181 293.2153704794298L 274.2698402078885 295.843174769198" style="fill: white;"/>
    <path d="M 260.531 298.57599999999996 L 274.539 298.57599999999996 L 274.2698402078885 301.3088252308019 ZM 260.531 298.57599999999996 L 273.4727044914181 303.93662952057014 L 272.1782263291341 306.3584278241386 ZM 260.531 298.57599999999996 L 270.4361517908612 308.48115179086113 L 268.3134278241386 310.22322632913404 ZM 260.531 298.57599999999996 L 265.8916295205702 311.51770449141804 L 263.26382523080196 312.31484020788844 ZM 260.531 298.57599999999996 L 260.531 312.58399999999995 L 257.7981747691981 312.31484020788844 ZM 260.531 298.57599999999996 L 255.17037047942983 311.51770449141804 L 252.74857217586143 310.22322632913404 ZM 260.531 298.57599999999996 L 250.62584820913884 308.48115179086113 L 248.88377367086596 306.3584278241386 ZM 260.531 298.57599999999996 L 247.5892955085819 303.93662952057014 L 246.79215979211156 301.3088252308019 ZM 260.531 298.57599999999996 L 246.523 298.57599999999996 L 246.79215979211156 295.8431747691981 ZM 260.531 298.57599999999996 L 247.5892955085819 293.2153704794298 L 248.88377367086596 290.79357217586136 ZM 260.531 298.57599999999996 L 250.62584820913884 288.6708482091388 L 252.7485721758614 286.9287736708659 ZM 260.531 298.57599999999996 L 255.17037047942983 285.6342955085819 L 257.79817476919806 284.8371597921115 ZM 260.531 298.57599999999996 L 260.531 284.568 L 263.26382523080196 284.8371597921115 ZM 260.531 298.57599999999996 L 265.8916295205702 285.6342955085819 L 268.3134278241386 286.9287736708659 ZM 260.531 298.57599999999996 L 270.4361517908612 288.6708482091388 L 272.1782263291341 290.79357217586136 ZM 260.531 298.57599999999996 L 273.4727044914181 293.2153704794298 L 274.2698402078885 295.843174769198 Z" style="fill: black;"/>
    <text style="fill: rgb(51, 51, 51); font-family: Arial, sans-serif; font-size: 150px; white-space: pre;" x="92.782" y="229.307">$title</text>
    <text style="white-space: pre; fill: rgb(51, 51, 51); font-family: Arial, sans-serif; font-size: 14.6px;" x="118.852" y="310.616">$height</text>
    <text style="white-space: pre; fill: rgb(51, 51, 51); font-family: Arial, sans-serif; font-size: 14.6px;" x="275.287" y="178.168" transform="matrix(0, -1, 1, 0, 93.589996, 464.356293)">$width</text>
  </g>
</svg>
