<svg xmlns="http://www.w3.org/2000/svg" viewBox="0 0 16 16"><defs><style>.icon-canvas-transparent,.icon-vs-out{fill:#252526;}.icon-canvas-transparent{opacity:0;}.icon-vs-action-blue{fill:#75beff;}</style></defs><title>Redo_16x</title><g id="canvas"><path class="icon-canvas-transparent" d="M16,0V16H0V0Z"/></g><g id="outline" style="display: none;"><path class="icon-vs-out" d="M2.9,1.736A5.935,5.935,0,0,1,11,1.474V0h4V8H7V4.011a2.036,2.036,0,0,0-1.332.61,1.93,1.93,0,0,0,0,2.727l5.945,5.945L8.906,16H8.664L2.84,10.176a5.857,5.857,0,0,1-1.728-4.2A6.009,6.009,0,0,1,2.9,1.736Z" style="display: none;"/></g><g id="iconBg"><path class="icon-vs-action-blue" d="M3.6,2.443a4.933,4.933,0,0,1,6.969,0L12,3.872V1h2V7H8V5h2.3L9.158,3.857a2.949,2.949,0,0,0-4.2.057,2.93,2.93,0,0,0,0,4.141L10.2,13.293,8.785,14.707,3.547,9.469A4.951,4.951,0,0,1,3.6,2.443Z"/></g></svg>