<svg width="520" height="369" viewBox="0 0 520 369" fill="none" xmlns="http://www.w3.org/2000/svg">
<rect x="0.5" y="0.5" width="519" height="341" rx="3.5" fill="var(--vscode-editor-background, #1e1e1e)"/>
<path d="M0 4C0 1.79087 1.79086 0 4 0H516C518.209 0 520 1.79086 520 4V30.9016H0V4Z" fill="var(--vscode-titleBar-activeBackground, #3c3c3c)"/>
<rect width="516" height="39" transform="translate(2 31.0002)" fill="var(--vscode-editorGroupHeader-tabsBackground, #252526)"/>
<g clip-path="url(#clip0)">
<rect width="115.654" height="39.2998" transform="translate(2 31.0002)" fill="var(--vscode-tab-activeBackground, #1e1e1e)"/>
<rect x="15.4746" y="46.7202" width="88.7052" height="7.85995" rx="3.92998" fill="var(--vscode-foreground)" fill-opacity="0.25"/>
</g>
<path d="M1 316H519V338C519 340.209 517.209 342 515 342H5.00001C2.79087 342 1 340.209 1 338V316Z" fill="var(--vscode-statusBar-background, #3794FF)"/>
<rect x="74.7148" y="316" width="122.527" height="26" fill="var(--vscode-statusBarItem-hoverBackground, white)" />
<rect x="10.9609" y="326.592" width="37.8538" height="6.74074" rx="3.37037" fill="var(--vscode-statusBar-foreground, white)" fill-opacity="0.75"/>
<rect x="56.7852" y="326.592" width="13.9462" height="6.74074" rx="3.37037" fill="var(--vscode-statusBar-foreground, white)" fill-opacity="0.75"/>
<path d="M79.7598 325.286V333.741H81.0723V330.852H83.0293C84.6875 330.852 85.8594 329.715 85.8594 328.086C85.8594 326.422 84.7227 325.286 83.0703 325.286H79.7598ZM81.0723 326.393H82.7246C83.8789 326.393 84.5176 326.991 84.5176 328.086C84.5176 329.147 83.8555 329.75 82.7246 329.75H81.0723V326.393ZM88.2383 336.049C89.5391 336.049 90.1426 335.563 90.6875 334.034L93.0664 327.377H91.7305L90.1367 332.475H90.0371L88.4375 327.377H87.0664L89.375 333.758L89.2812 334.086C89.0645 334.76 88.7246 335.012 88.127 335.012C88.0098 335.012 87.8164 335.006 87.7168 334.989V336.02C87.834 336.038 88.1328 336.049 88.2383 336.049ZM94.8008 325.772V327.395H93.7871V328.403H94.8008V332.065C94.8008 333.29 95.3574 333.782 96.7578 333.782C97.0039 333.782 97.2383 333.752 97.4434 333.717V332.715C97.2676 332.733 97.1562 332.745 96.9629 332.745C96.3359 332.745 96.0605 332.446 96.0605 331.76V328.403H97.4434V327.395H96.0605V325.772H94.8008ZM98.9844 333.741H100.244V330.014C100.244 329.018 100.818 328.356 101.85 328.356C102.74 328.356 103.215 328.877 103.215 329.926V333.741H104.475V329.627C104.475 328.122 103.637 327.26 102.277 327.26C101.316 327.26 100.643 327.682 100.332 328.391H100.232V324.881H98.9844V333.741ZM108.945 333.864C110.809 333.864 111.951 332.616 111.951 330.559C111.951 328.502 110.803 327.254 108.945 327.254C107.082 327.254 105.934 328.508 105.934 330.559C105.934 332.616 107.076 333.864 108.945 333.864ZM108.945 332.792C107.85 332.792 107.234 331.977 107.234 330.559C107.234 329.141 107.85 328.321 108.945 328.321C110.035 328.321 110.656 329.141 110.656 330.559C110.656 331.971 110.035 332.792 108.945 332.792ZM113.469 333.741H114.729V330.008C114.729 328.983 115.32 328.35 116.252 328.35C117.184 328.35 117.629 328.866 117.629 329.92V333.741H118.889V329.622C118.889 328.104 118.104 327.254 116.68 327.254C115.719 327.254 115.086 327.682 114.775 328.385H114.682V327.377H113.469V333.741ZM125.814 329.915H126.869C127.971 329.915 128.65 330.477 128.65 331.379C128.65 332.258 127.924 332.844 126.887 332.844C125.861 332.844 125.152 332.311 125.076 331.479H123.816C123.887 332.967 125.117 333.946 126.904 333.946C128.668 333.946 129.998 332.891 129.998 331.45C129.998 330.29 129.271 329.54 128.146 329.37V329.27C129.031 329.024 129.67 328.35 129.676 327.331C129.682 326.129 128.691 325.081 126.945 325.081C125.164 325.081 124.062 326.106 123.975 327.542H125.217C125.293 326.657 125.908 326.159 126.869 326.159C127.818 326.159 128.381 326.75 128.381 327.495C128.381 328.309 127.748 328.883 126.834 328.883H125.814V329.915ZM132.201 333.829C132.699 333.829 133.062 333.459 133.062 332.985C133.062 332.51 132.699 332.141 132.201 332.141C131.709 332.141 131.34 332.51 131.34 332.985C131.34 333.459 131.709 333.829 132.201 333.829ZM137.369 333.94C139.484 333.94 140.721 332.264 140.721 329.393C140.721 326.557 139.361 325.081 137.422 325.081C135.629 325.081 134.357 326.305 134.357 328.022C134.357 329.651 135.529 330.84 137.141 330.84C138.143 330.84 138.951 330.372 139.355 329.563H139.455C139.42 331.661 138.676 332.833 137.381 332.833C136.607 332.833 136.004 332.411 135.805 331.713H134.48C134.732 333.073 135.869 333.94 137.369 333.94ZM137.428 329.78C136.385 329.78 135.664 329.047 135.664 327.981C135.664 326.961 136.426 326.176 137.439 326.176C138.447 326.176 139.209 326.973 139.209 328.016C139.209 329.042 138.465 329.78 137.428 329.78ZM142.83 333.829C143.328 333.829 143.691 333.459 143.691 332.985C143.691 332.51 143.328 332.141 142.83 332.141C142.338 332.141 141.969 332.51 141.969 332.985C141.969 333.459 142.338 333.829 142.83 333.829ZM148.121 333.946C150.09 333.946 151.238 332.323 151.238 329.522C151.238 326.715 150.072 325.081 148.121 325.081C146.158 325.081 144.992 326.715 144.992 329.504C144.992 332.317 146.146 333.946 148.121 333.946ZM148.121 332.856C146.973 332.856 146.316 331.684 146.316 329.504C146.316 327.354 146.984 326.176 148.121 326.176C149.258 326.176 149.914 327.342 149.914 329.504C149.914 331.69 149.27 332.856 148.121 332.856ZM159.33 333.94C161.123 333.94 162.395 332.715 162.395 330.999C162.395 329.37 161.223 328.18 159.617 328.18C158.615 328.18 157.801 328.649 157.396 329.463H157.297C157.32 327.319 158.094 326.188 159.412 326.188C160.209 326.188 160.789 326.598 160.953 327.313H162.271C162.061 325.971 160.971 325.081 159.383 325.081C157.326 325.081 156.037 326.756 156.037 329.627C156.037 332.504 157.426 333.94 159.33 333.94ZM159.318 332.844C158.311 332.844 157.543 332.047 157.543 331.004C157.543 329.973 158.287 329.229 159.33 329.229C160.373 329.229 161.094 329.973 161.094 331.034C161.094 332.059 160.326 332.844 159.318 332.844ZM167.949 333.741H169.215V332.059H170.381V330.946H169.215V325.286H167.346C166.18 327.038 164.938 329.036 163.824 330.946V332.059H167.949V333.741ZM165.084 330.887C165.951 329.405 166.982 327.758 167.891 326.393H167.967V330.969H165.084V330.887ZM175.848 330.917V329.75H172.004V330.917H175.848ZM181.08 333.846C182.691 333.846 183.717 332.563 183.717 330.559C183.717 328.538 182.697 327.266 181.08 327.266C180.207 327.266 179.457 327.694 179.117 328.385H179.018V324.881H177.758V333.741H178.971V332.733H179.064C179.445 333.436 180.189 333.846 181.08 333.846ZM180.717 328.344C181.783 328.344 182.422 329.182 182.422 330.559C182.422 331.936 181.783 332.768 180.717 332.768C179.656 332.768 179 331.924 178.994 330.559C179 329.194 179.662 328.344 180.717 328.344ZM185.885 326.241C186.324 326.241 186.682 325.883 186.682 325.45C186.682 325.01 186.324 324.653 185.885 324.653C185.445 324.653 185.088 325.01 185.088 325.45C185.088 325.883 185.445 326.241 185.885 326.241ZM185.258 333.741H186.512V327.377H185.258V333.741ZM188.809 325.772V327.395H187.795V328.403H188.809V332.065C188.809 333.29 189.365 333.782 190.766 333.782C191.012 333.782 191.246 333.752 191.451 333.717V332.715C191.275 332.733 191.164 332.745 190.971 332.745C190.344 332.745 190.068 332.446 190.068 331.76V328.403H191.451V327.395H190.068V325.772H188.809Z" fill="var(--vscode-statusBar-foreground, white)"/>
<g filter="url(#filter0_d)">
<rect width="425" height="182" transform="translate(50 51)" fill="var(--vscode-quickInput-background, #252526)"/>
<rect x="57.5" y="58.5" width="410" height="25" fill="var(--vscode-input-background, #3c3c3c)"/>
<rect x="57.5" y="58.5" width="410" height="25" stroke="var(--vscode-inputOption-activeBorder, #007FD4"/>
<rect x="62" y="97" width="38" height="6" rx="3" fill="var(--vscode-menu-selectionForeground, #E3E3E3)" fill-opacity="0.16"/>
<rect x="137" y="97" width="105" height="6" rx="3" fill="var(--vscode-menu-selectionForeground, #E3E3E3)" fill-opacity="0.16"/>
<rect x="104" y="97" width="29" height="6" rx="3" fill="var(--vscode-list-highlightForeground, #3794FF)" fill-opacity="0.6"/>
<rect width="425" height="24" transform="translate(50 113)" fill="var(--vscode-list-activeSelectionBackground, #062F4A)"/>
<path d="M63.1489 120.84V130H64.5708V126.871H66.6909C68.4873 126.871 69.7568 125.639 69.7568 123.875C69.7568 122.072 68.5254 120.84 66.7354 120.84H63.1489ZM64.5708 122.04H66.3608C67.6113 122.04 68.3032 122.688 68.3032 123.875C68.3032 125.023 67.5859 125.677 66.3608 125.677H64.5708V122.04ZM72.334 132.501C73.7432 132.501 74.397 131.974 74.9873 130.317L77.5645 123.106H76.1172L74.3906 128.629H74.2827L72.5498 123.106H71.0645L73.5654 130.019L73.4639 130.375C73.229 131.104 72.8608 131.377 72.2134 131.377C72.0864 131.377 71.877 131.371 71.769 131.352V132.469C71.896 132.488 72.2197 132.501 72.334 132.501ZM79.4434 121.367V123.125H78.3452V124.217H79.4434V128.185C79.4434 129.511 80.0464 130.044 81.5635 130.044C81.8301 130.044 82.084 130.013 82.3062 129.975V128.889C82.1157 128.908 81.9951 128.921 81.7856 128.921C81.1064 128.921 80.8081 128.597 80.8081 127.854V124.217H82.3062V123.125H80.8081V121.367H79.4434ZM83.9756 130H85.3403V125.963C85.3403 124.884 85.9624 124.167 87.0796 124.167C88.0444 124.167 88.5586 124.731 88.5586 125.868V130H89.9233V125.544C89.9233 123.913 89.0156 122.979 87.543 122.979C86.502 122.979 85.772 123.437 85.4355 124.205H85.3276V120.402H83.9756V130ZM94.7666 130.133C96.7852 130.133 98.0229 128.781 98.0229 126.553C98.0229 124.325 96.7788 122.973 94.7666 122.973C92.748 122.973 91.5039 124.332 91.5039 126.553C91.5039 128.781 92.7417 130.133 94.7666 130.133ZM94.7666 128.972C93.5796 128.972 92.9131 128.089 92.9131 126.553C92.9131 125.017 93.5796 124.128 94.7666 124.128C95.9473 124.128 96.6201 125.017 96.6201 126.553C96.6201 128.083 95.9473 128.972 94.7666 128.972ZM99.667 130H101.032V125.957C101.032 124.846 101.673 124.16 102.682 124.16C103.691 124.16 104.174 124.719 104.174 125.861V130H105.539V125.538C105.539 123.894 104.688 122.973 103.146 122.973C102.104 122.973 101.419 123.437 101.083 124.198H100.981V123.106H99.667V130ZM113.042 125.855H114.184C115.377 125.855 116.114 126.464 116.114 127.442C116.114 128.394 115.327 129.029 114.203 129.029C113.092 129.029 112.324 128.451 112.242 127.55H110.877C110.953 129.162 112.286 130.222 114.222 130.222C116.133 130.222 117.574 129.08 117.574 127.518C117.574 126.261 116.787 125.449 115.568 125.265V125.157C116.526 124.89 117.218 124.16 117.225 123.056C117.231 121.754 116.158 120.618 114.267 120.618C112.337 120.618 111.144 121.729 111.048 123.284H112.394C112.477 122.326 113.143 121.786 114.184 121.786C115.212 121.786 115.822 122.427 115.822 123.233C115.822 124.116 115.136 124.738 114.146 124.738H113.042V125.855ZM119.96 130.095C120.5 130.095 120.894 129.695 120.894 129.181C120.894 128.667 120.5 128.267 119.96 128.267C119.427 128.267 119.027 128.667 119.027 129.181C119.027 129.695 119.427 130.095 119.96 130.095ZM125.559 130.216C127.851 130.216 129.19 128.4 129.19 125.29C129.19 122.218 127.717 120.618 125.616 120.618C123.674 120.618 122.296 121.945 122.296 123.805C122.296 125.569 123.566 126.858 125.312 126.858C126.397 126.858 127.273 126.35 127.711 125.474H127.819C127.781 127.747 126.975 129.016 125.572 129.016C124.734 129.016 124.08 128.559 123.864 127.804H122.43C122.703 129.276 123.934 130.216 125.559 130.216ZM125.623 125.709C124.493 125.709 123.712 124.916 123.712 123.76C123.712 122.656 124.537 121.805 125.635 121.805C126.727 121.805 127.552 122.668 127.552 123.798C127.552 124.909 126.746 125.709 125.623 125.709ZM131.475 130.095C132.015 130.095 132.408 129.695 132.408 129.181C132.408 128.667 132.015 128.267 131.475 128.267C130.942 128.267 130.542 128.667 130.542 129.181C130.542 129.695 130.942 130.095 131.475 130.095ZM137.207 130.222C139.34 130.222 140.584 128.464 140.584 125.43C140.584 122.389 139.321 120.618 137.207 120.618C135.081 120.618 133.817 122.389 133.817 125.411C133.817 128.458 135.068 130.222 137.207 130.222ZM137.207 129.042C135.963 129.042 135.252 127.772 135.252 125.411C135.252 123.081 135.976 121.805 137.207 121.805C138.438 121.805 139.149 123.068 139.149 125.411C139.149 127.778 138.451 129.042 137.207 129.042ZM149.35 130.216C151.292 130.216 152.67 128.889 152.67 127.029C152.67 125.265 151.4 123.976 149.661 123.976C148.576 123.976 147.693 124.484 147.255 125.366H147.147C147.173 123.043 148.011 121.818 149.439 121.818C150.302 121.818 150.931 122.262 151.108 123.037H152.537C152.308 121.583 151.127 120.618 149.407 120.618C147.179 120.618 145.783 122.434 145.783 125.544C145.783 128.661 147.287 130.216 149.35 130.216ZM149.337 129.029C148.246 129.029 147.414 128.166 147.414 127.036C147.414 125.918 148.22 125.112 149.35 125.112C150.48 125.112 151.261 125.918 151.261 127.067C151.261 128.178 150.429 129.029 149.337 129.029ZM158.688 130H160.059V128.178H161.322V126.972H160.059V120.84H158.034C156.771 122.738 155.425 124.903 154.219 126.972V128.178H158.688V130ZM155.583 126.909C156.523 125.303 157.64 123.519 158.624 122.04H158.707V126.998H155.583V126.909ZM167.244 126.94V125.677H163.08V126.94H167.244ZM172.913 130.114C174.658 130.114 175.769 128.724 175.769 126.553C175.769 124.363 174.665 122.986 172.913 122.986C171.967 122.986 171.154 123.449 170.786 124.198H170.678V120.402H169.313V130H170.627V128.908H170.729C171.142 129.67 171.948 130.114 172.913 130.114ZM172.519 124.154C173.674 124.154 174.366 125.062 174.366 126.553C174.366 128.045 173.674 128.946 172.519 128.946C171.37 128.946 170.659 128.032 170.653 126.553C170.659 125.074 171.376 124.154 172.519 124.154ZM178.118 121.875C178.594 121.875 178.981 121.488 178.981 121.018C178.981 120.542 178.594 120.155 178.118 120.155C177.642 120.155 177.254 120.542 177.254 121.018C177.254 121.488 177.642 121.875 178.118 121.875ZM177.438 130H178.797V123.106H177.438V130ZM181.285 121.367V123.125H180.187V124.217H181.285V128.185C181.285 129.511 181.888 130.044 183.405 130.044C183.672 130.044 183.926 130.013 184.148 129.975V128.889C183.958 128.908 183.837 128.921 183.627 128.921C182.948 128.921 182.65 128.597 182.65 127.854V124.217H184.148V123.125H182.65V121.367H181.285Z" fill="var(--vscode-list-activeSelectionForeground, #e3e3e3)"/>
<rect x="62" y="147" width="62.5" height="6" rx="3" fill="var(--vscode-menu-selectionForeground, #E3E3E3)" fill-opacity="0.16"/>
<rect x="128.5" y="147" width="29" height="6" rx="3" fill="var(--vscode-list-highlightForeground, #3794FF)" fill-opacity="0.6"/>
<rect x="161.5" y="147" width="62.5" height="6" rx="3" fill="var(--vscode-menu-selectionForeground, #E3E3E3)" fill-opacity="0.16"/>
<rect x="62" y="169" width="41" height="6" rx="3" fill="var(--vscode-menu-selectionForeground, #E3E3E3)" fill-opacity="0.16"/>
<rect x="107" y="169" width="69" height="6" rx="3" fill="var(--vscode-menu-selectionForeground, #E3E3E3)" fill-opacity="0.16"/>
<rect x="180" y="169" width="26" height="6" rx="3" fill="var(--vscode-list-highlightForeground, #3794FF)" fill-opacity="0.6"/>
<rect x="62" y="191" width="26" height="6" rx="3" fill="var(--vscode-list-highlightForeground, #3794FF)" fill-opacity="0.6"/>
<rect x="92" y="191" width="164" height="6" rx="3" fill="var(--vscode-menu-selectionForeground, #E3E3E3)" fill-opacity="0.16"/>
<rect x="62" y="213" width="46" height="6" rx="3" fill="var(--vscode-menu-selectionForeground, #E3E3E3)" fill-opacity="0.16"/>
<rect x="112" y="213" width="29" height="6" rx="3" fill="var(--vscode-list-highlightForeground, #3794FF)" fill-opacity="0.6"/>
<rect x="145" y="213" width="46" height="6" rx="3" fill="var(--vscode-menu-selectionForeground, #E3E3E3)" fill-opacity="0.16"/>
</g>
<rect x="0.5" y="0.5" width="519" height="341" rx="3.5" stroke="var(--vscode-editorOverviewRuler-border, #3A3D41)"/>
<g filter="url(#filter1_d)">
<path d="M160.269 347.28C159.989 346.92 159.639 346.19 159.029 345.28C158.679 344.78 157.819 343.83 157.559 343.34C157.371 343.042 157.317 342.68 157.409 342.34C157.566 341.694 158.178 341.266 158.839 341.34C159.35 341.443 159.819 341.693 160.189 342.06C160.447 342.303 160.685 342.567 160.899 342.85C161.059 343.05 161.099 343.13 161.279 343.36C161.459 343.59 161.579 343.82 161.489 343.48C161.419 342.98 161.299 342.14 161.129 341.39C160.999 340.82 160.969 340.73 160.849 340.3C160.729 339.87 160.659 339.51 160.529 339.02C160.41 338.538 160.317 338.051 160.249 337.56C160.123 336.932 160.215 336.279 160.509 335.71C160.858 335.381 161.371 335.295 161.809 335.49C162.249 335.815 162.578 336.27 162.749 336.79C163.011 337.43 163.186 338.103 163.269 338.79C163.429 339.79 163.739 341.25 163.749 341.55C163.749 341.18 163.679 340.4 163.749 340.05C163.818 339.685 164.072 339.382 164.419 339.25C164.717 339.159 165.032 339.138 165.339 339.19C165.649 339.255 165.924 339.433 166.109 339.69C166.341 340.273 166.469 340.893 166.489 341.52C166.516 340.971 166.61 340.426 166.769 339.9C166.936 339.664 167.18 339.495 167.459 339.42C167.789 339.359 168.128 339.359 168.459 339.42C168.73 339.511 168.967 339.681 169.139 339.91C169.351 340.44 169.479 341 169.519 341.57C169.519 341.71 169.589 341.18 169.809 340.83C169.923 340.491 170.21 340.238 170.561 340.167C170.912 340.097 171.274 340.218 171.511 340.487C171.748 340.756 171.823 341.131 171.709 341.47C171.709 342.12 171.709 342.09 171.709 342.53C171.709 342.97 171.709 343.36 171.709 343.73C171.672 344.315 171.592 344.897 171.469 345.47C171.295 345.977 171.053 346.458 170.749 346.9C170.263 347.44 169.862 348.05 169.559 348.71C169.484 349.038 169.45 349.374 169.459 349.71C169.458 350.021 169.498 350.33 169.579 350.63C169.17 350.673 168.758 350.673 168.349 350.63C167.959 350.57 167.479 349.79 167.349 349.55C167.285 349.421 167.153 349.34 167.009 349.34C166.865 349.34 166.733 349.421 166.669 349.55C166.449 349.93 165.959 350.62 165.619 350.66C164.949 350.74 163.569 350.66 162.479 350.66C162.479 350.66 162.659 349.66 162.249 349.3C161.839 348.94 161.419 348.52 161.109 348.24L160.269 347.28Z" fill="white"/>
<path fill-rule="evenodd" clip-rule="evenodd" d="M172.084 343.753C172.085 343.165 172.085 343.165 172.085 342.53V341.526C172.212 341.077 172.104 340.592 171.793 340.239C171.468 339.87 170.97 339.702 170.488 339.799C170.159 339.866 169.871 340.048 169.672 340.305C169.619 340.124 169.558 339.946 169.488 339.771C169.222 339.395 168.922 339.179 168.579 339.064C168.152 338.982 167.767 338.982 167.392 339.051C167.017 339.15 166.71 339.357 166.493 339.642C166.482 339.612 166.47 339.582 166.458 339.551C166.174 339.138 165.818 338.907 165.416 338.823C165.037 338.758 164.663 338.783 164.31 338.891C164.082 338.978 163.887 339.111 163.733 339.278C163.696 339.072 163.666 338.893 163.64 338.731C163.555 338.025 163.371 337.319 163.097 336.648C162.911 336.079 162.536 335.56 162.032 335.188C161.386 334.89 160.712 335.004 160.253 335.437L160.177 335.538C159.843 336.182 159.739 336.922 159.882 337.634C159.948 338.115 160.044 338.616 160.166 339.11C160.222 339.323 160.222 339.324 160.342 339.825L160.373 339.954C160.414 340.122 160.449 340.26 160.488 340.401C160.556 340.64 160.582 340.732 160.604 340.816L160.617 340.865C160.659 341.021 160.699 341.188 160.764 341.473C160.824 341.736 160.876 342 160.927 342.287C160.776 342.114 160.616 341.946 160.447 341.787C160.032 341.375 159.496 341.089 158.914 340.972C158.033 340.872 157.247 341.422 157.045 342.251C156.929 342.683 156.999 343.153 157.242 343.54C157.358 343.759 157.581 344.061 157.979 344.553L158.04 344.63C158.502 345.199 158.585 345.302 158.662 345.409C158.68 345.435 158.699 345.461 158.722 345.495C158.867 345.711 159.121 346.129 159.366 346.533C159.639 346.984 159.902 347.417 159.987 347.527L160.827 348.487C160.937 348.588 161.229 348.864 161.429 349.054C161.528 349.147 161.604 349.219 161.625 349.239C161.722 349.33 161.811 349.411 161.897 349.488C161.923 349.511 161.936 349.523 161.949 349.535C161.963 349.547 161.976 349.558 162.002 349.582C162.062 349.634 162.112 349.765 162.133 349.957C162.151 350.12 162.146 350.301 162.127 350.475C162.12 350.533 162.114 350.574 162.111 350.593C162.069 350.823 162.246 351.035 162.48 351.035C162.749 351.035 163.027 351.039 163.468 351.049L163.621 351.053C164.817 351.08 165.266 351.08 165.664 351.032C166.119 350.979 166.603 350.413 167.014 349.717C167.363 350.363 167.812 350.927 168.293 351C168.745 351.049 169.184 351.049 169.619 351.003C169.848 350.979 170.002 350.755 169.942 350.532C169.87 350.265 169.834 349.988 169.835 349.711C169.827 349.395 169.857 349.091 169.925 348.794C170.188 348.241 170.568 347.662 171.028 347.151C171.382 346.642 171.639 346.131 171.824 345.592C171.964 344.957 172.046 344.357 172.084 343.753ZM162.001 348.563C161.806 348.378 161.465 348.056 161.361 347.962L160.561 347.043C160.502 346.964 160.312 346.648 160.09 346.282C159.828 345.847 159.521 345.34 159.341 345.071C159.258 344.952 159.155 344.817 159.014 344.641C158.96 344.573 158.921 344.524 158.823 344.404L158.623 344.158L158.562 344.083C158.198 343.631 157.989 343.349 157.891 343.164C157.745 342.931 157.707 342.676 157.772 342.438C157.886 341.966 158.325 341.659 158.798 341.712C159.205 341.796 159.608 342.011 159.925 342.326C160.176 342.562 160.399 342.81 160.601 343.076C160.663 343.155 160.703 343.208 160.765 343.294C160.871 343.444 160.902 343.485 160.984 343.591C160.99 343.598 161.006 343.62 161.027 343.648C161.085 343.727 161.181 343.857 161.213 343.891C161.252 343.941 161.252 343.941 161.452 344.022C161.88 343.865 161.882 343.861 161.894 343.66C161.899 343.581 161.886 343.51 161.852 343.384C161.738 342.548 161.637 341.93 161.495 341.307C161.428 341.014 161.386 340.838 161.342 340.673L161.328 340.62C161.305 340.533 161.277 340.436 161.211 340.199C161.174 340.067 161.141 339.937 161.102 339.777L161.071 339.651C160.95 339.142 160.949 339.14 160.892 338.924C160.778 338.461 160.687 337.987 160.621 337.509C160.513 336.965 160.581 336.422 160.812 335.943C161.049 335.751 161.375 335.707 161.657 335.832C161.965 336.071 162.247 336.46 162.393 336.907C162.652 337.541 162.818 338.181 162.897 338.835C162.941 339.108 162.993 339.405 163.063 339.784L163.094 339.952C163.369 341.424 163.371 341.434 163.375 341.562C163.391 342.054 164.125 342.042 164.125 341.55C164.125 341.442 164.123 341.383 164.109 341.058C164.103 340.93 164.101 340.876 164.099 340.801C164.088 340.469 164.093 340.243 164.117 340.123C164.163 339.883 164.328 339.686 164.553 339.6C164.772 339.534 165.028 339.517 165.277 339.56C165.481 339.603 165.675 339.728 165.806 339.909C165.977 340.371 166.096 340.948 166.115 341.532C166.13 342.012 166.841 342.018 166.864 341.538C166.888 341.041 166.971 340.549 167.11 340.072C167.224 339.931 167.381 339.829 167.557 339.782C167.813 339.736 168.106 339.736 168.392 339.789C168.54 339.842 168.714 339.967 168.84 340.135C168.989 340.543 169.108 341.065 169.146 341.596C169.143 341.595 169.141 341.595 169.14 341.596C169.134 341.599 169.15 341.635 169.243 341.843C169.624 341.909 169.74 341.929 169.795 341.881C169.819 341.859 169.832 341.825 169.851 341.776L169.851 341.776C169.876 341.723 169.876 341.723 169.884 341.701C169.893 341.674 169.903 341.637 169.92 341.571C169.957 341.429 169.991 341.319 170.036 341.211C170.065 341.141 170.096 341.079 170.127 341.029C170.237 340.737 170.416 340.579 170.636 340.535C170.856 340.49 171.082 340.567 171.23 340.735C171.379 340.903 171.426 341.138 171.354 341.35L171.335 341.47V343.73C171.3 344.273 171.222 344.836 171.103 345.391C170.952 345.823 170.725 346.274 170.441 346.687C169.96 347.217 169.538 347.859 169.219 348.553C169.112 348.984 169.075 349.352 169.085 349.72C169.084 349.906 169.098 350.096 169.126 350.285C168.88 350.292 168.634 350.283 168.389 350.257C168.267 350.238 167.896 349.771 167.679 349.371C167.557 349.126 167.296 348.965 167.01 348.965C166.723 348.965 166.462 349.126 166.334 349.382C166.086 349.81 165.689 350.274 165.576 350.287C165.229 350.329 164.786 350.329 163.638 350.303L163.485 350.299C163.249 350.294 163.06 350.29 162.892 350.288C162.897 350.15 162.894 350.011 162.879 349.875C162.839 349.515 162.726 349.219 162.497 349.018C162.472 348.996 162.46 348.985 162.448 348.974C162.435 348.963 162.423 348.952 162.397 348.93C162.316 348.857 162.231 348.778 162.137 348.691C162.122 348.676 162.071 348.628 162.001 348.563Z" fill="black"/>
<path d="M168.75 347.826V344.374C168.75 344.167 168.582 344 168.375 344C168.168 344 168 344.167 168 344.374V347.826C168 348.033 168.168 348.2 168.375 348.2C168.582 348.2 168.75 348.033 168.75 347.826Z" fill="black"/>
<path d="M166.77 347.825L166.75 344.371C166.749 344.165 166.58 343.999 166.373 344C166.166 344.001 165.999 344.169 166 344.375L166.02 347.829C166.021 348.035 166.19 348.201 166.397 348.2C166.604 348.199 166.771 348.031 166.77 347.825Z" fill="black"/>
<path d="M164 344.379L164.02 347.825C164.021 348.033 164.19 348.201 164.397 348.2C164.604 348.199 164.771 348.029 164.77 347.821L164.75 344.375C164.749 344.167 164.58 343.999 164.373 344C164.166 344.001 163.999 344.171 164 344.379Z" fill="black"/>
</g>
<defs>
<filter id="filter0_d" x="38" y="41" width="449" height="206" filterUnits="userSpaceOnUse" color-interpolation-filters="sRGB">
<feFlood flood-opacity="0" result="BackgroundImageFix"/>
<feColorMatrix in="SourceAlpha" type="matrix" values="0 0 0 0 0 0 0 0 0 0 0 0 0 0 0 0 0 0 127 0" result="hardAlpha"/>
<feOffset dy="2"/>
<feGaussianBlur stdDeviation="6"/>
<feColorMatrix type="matrix" values="0 0 0 0 0 0 0 0 0 0 0 0 0 0 0 0 0 0 0.6 0"/>
<feBlend mode="normal" in2="BackgroundImageFix" result="effect1_dropShadow"/>
<feBlend mode="normal" in="SourceGraphic" in2="effect1_dropShadow" result="shape"/>
</filter>
<filter id="filter1_d" x="156.19" y="335.022" width="16.7469" height="17.8489" filterUnits="userSpaceOnUse" color-interpolation-filters="sRGB">
<feFlood flood-opacity="0" result="BackgroundImageFix"/>
<feColorMatrix in="SourceAlpha" type="matrix" values="0 0 0 0 0 0 0 0 0 0 0 0 0 0 0 0 0 0 127 0" result="hardAlpha"/>
<feOffset dy="1"/>
<feGaussianBlur stdDeviation="0.4"/>
<feColorMatrix type="matrix" values="0 0 0 0 0 0 0 0 0 0 0 0 0 0 0 0 0 0 0.5 0"/>
<feBlend mode="normal" in2="BackgroundImageFix" result="effect1_dropShadow"/>
<feBlend mode="normal" in="SourceGraphic" in2="effect1_dropShadow" result="shape"/>
</filter>
<clipPath id="clip0">
<rect width="115.654" height="39.2998" fill="white" transform="translate(2 31.0002)"/>
</clipPath>
</defs>
</svg>
