<svg width="72" height="72" viewBox="0 0 72 72" fill="none" xmlns="http://www.w3.org/2000/svg">
<path d="M35.1827 0.000588916C32.2463 0.0142333 29.4421 0.264669 26.9746 0.70128C19.7059 1.98543 18.3862 4.67326 18.3862 9.63008V16.1765H35.5631V18.3587H18.3862H11.9398C6.9477 18.3587 2.57648 21.3592 1.20921 27.0673C-0.367905 33.61 -0.437859 37.6928 1.20921 44.5245C2.43021 49.6097 5.34612 53.2331 10.3382 53.2331H16.244V45.3853C16.244 39.7158 21.1495 34.7148 26.9746 34.7148H44.1315C48.9074 34.7148 52.72 30.7825 52.72 25.9862V9.63008C52.72 4.97504 48.7929 1.47819 44.1315 0.70128C41.1808 0.210091 38.1191 -0.0130555 35.1827 0.000588916ZM25.8936 5.26578C27.6678 5.26578 29.1167 6.73837 29.1167 8.54902C29.1167 10.3533 27.6678 11.8122 25.8936 11.8122C24.1129 11.8122 22.6704 10.3533 22.6704 8.54902C22.6704 6.73837 24.1129 5.26578 25.8936 5.26578Z" fill="url(#paint0_linear)"/>
<path d="M54.8622 18.3589V25.9864C54.8622 31.8999 49.8487 36.8771 44.1316 36.8771H26.9747C22.2752 36.8771 18.3863 40.8993 18.3863 45.6058V61.9619C18.3863 66.6169 22.4341 69.355 26.9747 70.6905C32.412 72.2893 37.626 72.5782 44.1316 70.6905C48.456 69.4384 52.7201 66.9187 52.7201 61.9619V55.4154H35.5632V53.2333H52.7201H61.3086C66.3007 53.2333 68.1609 49.7512 69.8971 44.5247C71.6904 39.1441 71.6141 33.9698 69.8971 27.0675C68.6633 22.0978 66.307 18.3589 61.3086 18.3589H54.8622ZM45.2127 59.7797C46.9933 59.7797 48.4359 61.2387 48.4359 63.0429C48.4359 64.8536 46.9933 66.3262 45.2127 66.3262C43.4385 66.3262 41.9895 64.8536 41.9895 63.0429C41.9895 61.2387 43.4385 59.7797 45.2127 59.7797Z" fill="url(#paint1_linear)"/>
<defs>
<linearGradient id="paint0_linear" x1="5.60631e-08" y1="4.87005e-08" x2="39.6081" y2="33.7516" gradientUnits="userSpaceOnUse">
<stop stop-color="#5A9FD4"/>
<stop offset="1" stop-color="#306998"/>
</linearGradient>
<linearGradient id="paint1_linear" x1="44.7999" y1="62.4926" x2="30.59" y2="42.5803" gradientUnits="userSpaceOnUse">
<stop stop-color="#FFD43B"/>
<stop offset="1" stop-color="#FFE873"/>
</linearGradient>
</defs>
</svg>
