<svg xmlns="http://www.w3.org/2000/svg" viewBox="0 0 16 16"><defs><style>.icon-canvas-transparent,.icon-vs-out{fill:#252526;}.icon-canvas-transparent{opacity:0;}.icon-vs-action-blue{fill:#75beff;}.icon-vs-bg{fill:#c5c5c5;}</style></defs><title>SaveAs_16x</title><g ><path class="icon-canvas-transparent" d="M16,0V16H0V0Z"/></g><g  style="display: none;"><path class="icon-vs-out" d="M15.906,7.544a2.543,2.543,0,0,1-.75,1.812l-5.795,5.8L5.973,16H4.623l.5-2H2.086L0,11.914V0H14V5.109a2.455,2.455,0,0,1,1.157.626A2.537,2.537,0,0,1,15.906,7.544Z" style="display: none;"/></g><g ><path class="icon-vs-action-blue" d="M1,1V11.5L2.5,13H4V9H8.27l3.265-3.265A2.511,2.511,0,0,1,13,5.053V1ZM11,5H3V2h8ZM5,11H6.27l-.531.531L5.372,13H5Z"/><path class="icon-vs-bg" d="M5.907,14.985l.735-2.943,5.6-5.6a1.655,1.655,0,0,1,2.208,0,1.562,1.562,0,0,1,0,2.207l-5.6,5.6Zm1.638-2.431L7.281,13.61l1.057-.263,5.4-5.4a.561.561,0,0,0,0-.793.629.629,0,0,0-.793,0Z"/></g></svg>