<?xml version="1.0" encoding="utf-8"?>
<!-- Generator: Adobe Illustrator 26.5.0, SVG Export Plug-In . SVG Version: 6.00 Build 0)  -->
<svg version="1.1" id="environment_00000090293204795152650670000016961330050414946213_"
	 xmlns="http://www.w3.org/2000/svg" xmlns:xlink="http://www.w3.org/1999/xlink" x="0px" y="0px" viewBox="0 0 62 80"
	 enable-background="new 0 0 62 80" xml:space="preserve">
<g id="object_copy_2">
	<g>
		<path fill-rule="evenodd" clip-rule="evenodd" d="M45,33h-2v3h1c2.2,0,4,1.8,4,4v11c0,2.2-1.8,4-4,4H32c-2.2,0-4-1.8-4-4v-1h-3v2
			c0,3.3,2.7,6,6,6h14c3.3,0,6-2.7,6-6V39C51,35.7,48.3,33,45,33z"/>
	</g>
	<g>
		<path d="M45,33h-2v3h1c2.2,0,4,1.8,4,4v11c0,2.2-1.8,4-4,4H32c-2.2,0-4-1.8-4-4v-1h-3v2c0,3.3,2.7,6,6,6h14c3.3,0,6-2.7,6-6V39
			C51,35.7,48.3,33,45,33L45,33z M45,33c3.3,0,6,2.7,6,6v13c0,3.3-2.7,6-6,6H31c-3.3,0-6-2.7-6-6v-2h3v1c0,2.2,1.8,4,4,4h12
			c2.2,0,4-1.8,4-4V40c0-2.2-1.8-4-4-4h-1v-3H45L45,33z"/>
	</g>
</g>
<g id="object_copy">
	<g>
		<path fill-rule="evenodd" clip-rule="evenodd" d="M39,19H25c-3.3,0-6,2.7-6,6v3h3v-2c0-2.2,1.8-4,4-4h12c2.2,0,4,1.8,4,4v11
			c0,2.2-1.8,4-4,4h-2v3h3c3.3,0,6-2.7,6-6V25C45,21.7,42.3,19,39,19z"/>
	</g>
	<g>
		<path d="M39,19H25c-3.3,0-6,2.7-6,6v3h3v-2c0-2.2,1.8-4,4-4h12c2.2,0,4,1.8,4,4v11c0,2.2-1.8,4-4,4h-2v3h3c3.3,0,6-2.7,6-6V25
			C45,21.7,42.3,19,39,19L39,19z M39,19c3.3,0,6,2.7,6,6v13c0,3.3-2.7,6-6,6h-3v-3h2c2.2,0,4-1.8,4-4V26c0-2.2-1.8-4-4-4H26
			c-2.2,0-4,1.8-4,4v2h-3v-3c0-3.3,2.7-6,6-6H39L39,19z"/>
	</g>
</g>
<g id="object">
	<g>
		<path fill-rule="evenodd" clip-rule="evenodd" d="M31,27H17c-3.3,0-6,2.7-6,6v13c0,3.3,2.7,6,6,6h14c3.3,0,6-2.7,6-6V33
			C37,29.7,34.3,27,31,27z M34,45c0,2.2-1.8,4-4,4H18c-2.2,0-4-1.8-4-4V34c0-2.2,1.8-4,4-4h12c2.2,0,4,1.8,4,4V45z"/>
	</g>
	<g>
		<path d="M31,27H17c-3.3,0-6,2.7-6,6v13c0,3.3,2.7,6,6,6h14c3.3,0,6-2.7,6-6V33C37,29.7,34.3,27,31,27L31,27z M31,27
			c3.3,0,6,2.7,6,6v13c0,3.3-2.7,6-6,6H17c-3.3,0-6-2.7-6-6V33c0-3.3,2.7-6,6-6H31L31,27z M18,49c-2.2,0-4-1.8-4-4V34
			c0-2.2,1.8-4,4-4h12c2.2,0,4,1.8,4,4v11c0,2.2-1.8,4-4,4H18L18,49z M18,49h12c2.2,0,4-1.8,4-4V34c0-2.2-1.8-4-4-4H18
			c-2.2,0-4,1.8-4,4v11C14,47.2,15.8,49,18,49L18,49z"/>
	</g>
</g>
</svg>
