<?xml version="1.0" encoding="utf-8"?>
<!-- Generator: Adobe Illustrator 26.5.0, SVG Export Plug-In . SVG Version: 6.00 Build 0)  -->
<svg version="1.1" id="_xDBC1__xDC41__00000023991828216784166180000009896679817789400716_"
	 xmlns="http://www.w3.org/2000/svg" xmlns:xlink="http://www.w3.org/1999/xlink" x="0px" y="0px" viewBox="0 0 62 80"
	 enable-background="new 0 0 62 80" xml:space="preserve">
<g id="_xDBC1__xDC41_">
	<g>
		<path fill-rule="evenodd" clip-rule="evenodd" d="M46.3,51.6H16.9c-0.3,0-0.4-0.1-0.4-0.4v-6.9l6.6-6.7c0.1-0.1,0.3-0.2,0.4-0.2
			s0.3,0.1,0.4,0.2l5.8,5.9c0.7,0.7,1.4,1,2.1,1c0.8,0,1.4-0.3,2.1-1l6.4-6.4l2.6,2.6c0.6,0.6,1.3,0.2,1.5-0.6l2.3-9.2
			c0.2-0.7-0.4-1.3-1.1-1.1l-9.1,2.3c-0.8,0.2-1.1,0.9-0.6,1.5l2.6,2.6l-6.2,6.2c-0.1,0.1-0.3,0.2-0.4,0.2c-0.1,0-0.3-0.1-0.4-0.2
			l-5.8-5.9c-0.7-0.7-1.4-1-2.1-1s-1.4,0.3-2.1,1l-4.9,4.9v-14c0-0.7-0.6-1.2-1.2-1.2c-0.7,0-1.3,0.6-1.3,1.2v26.4
			c0,0.8,0.5,1.2,1.2,1.2h31.1c0.7,0,1.3-0.5,1.3-1.2C47.5,52.2,47,51.6,46.3,51.6z"/>
	</g>
</g>
</svg>
