<?xml version="1.0" encoding="utf-8"?>
<!-- Generator: Adobe Illustrator 26.5.0, SVG Export Plug-In . SVG Version: 6.00 Build 0)  -->
<svg version="1.1" id="viewer_00000147206625418769268670000012592975583331455143_"
	 xmlns="http://www.w3.org/2000/svg" xmlns:xlink="http://www.w3.org/1999/xlink" x="0px" y="0px" viewBox="0 0 62 80"
	 enable-background="new 0 0 62 80" xml:space="preserve">
<g id="viewer">
	<g>
		<path fill-rule="evenodd" clip-rule="evenodd" d="M41,23H22c-5.5,0-10,4.5-10,10v9c0,5.5,4.5,10,10,10h19c5.5,0,10-4.5,10-10v-9
			C51,27.5,46.5,23,41,23z M48,42c0,3.9-3.1,7-7,7H22c-3.9,0-7-3.1-7-7v-9c0-3.9,3.1-7,7-7h19c3.9,0,7,3.1,7,7V42z M40.5,54h-18
			c-0.8,0-1.5,0.7-1.5,1.5s0.7,1.5,1.5,1.5h18c0.8,0,1.5-0.7,1.5-1.5S41.3,54,40.5,54z"/>
	</g>
	<g>
		<path d="M41,23H22c-5.5,0-10,4.5-10,10v9c0,5.5,4.5,10,10,10h19c5.5,0,10-4.5,10-10v-9C51,27.5,46.5,23,41,23L41,23z M41,23
			c5.5,0,10,4.5,10,10v9c0,5.5-4.5,10-10,10H22c-5.5,0-10-4.5-10-10v-9c0-5.5,4.5-10,10-10H41L41,23z M22,49c-3.9,0-7-3.1-7-7v-9
			c0-3.9,3.1-7,7-7h19c3.9,0,7,3.1,7,7v9c0,3.9-3.1,7-7,7H22L22,49z M22,49h19c3.9,0,7-3.1,7-7v-9c0-3.9-3.1-7-7-7H22
			c-3.9,0-7,3.1-7,7v9C15,45.9,18.1,49,22,49L22,49z M40.5,54h-18c-0.8,0-1.5,0.7-1.5,1.5s0.7,1.5,1.5,1.5h18c0.8,0,1.5-0.7,1.5-1.5
			S41.3,54,40.5,54L40.5,54z M40.5,54c0.8,0,1.5,0.7,1.5,1.5S41.3,57,40.5,57h-18c-0.8,0-1.5-0.7-1.5-1.5s0.7-1.5,1.5-1.5H40.5
			L40.5,54z"/>
	</g>
</g>
</svg>
