<svg width="520" height="260" viewBox="0 0 520 260" fill="none" xmlns="http://www.w3.org/2000/svg">
<rect width="520" height="260" fill="white"/>
<path d="M26 30C26 27.7909 27.7909 26 30 26H46V121H26V30Z" fill="#F4F4F4"/>
<path d="M26 30C26 27.7909 27.7909 26 30 26H490C492.209 26 494 27.7909 494 30V48H26V30Z" fill="#F4F4F4"/>
<rect x="272" y="26" width="112" height="46" fill="#447099"/>
<rect x="25" y="25" width="470" height="210" rx="5" stroke="#C0C0C0" stroke-width="2"/>
<line x1="26" y1="121" x2="496" y2="121" stroke="#C0C0C0" stroke-width="2"/>
<rect x="90" y="146" width="140" height="8" fill="#DEDEDE"/>
<rect x="90" y="146" width="82" height="8" fill="#447099"/>
<rect x="90" y="166" width="140" height="8" fill="#DEDEDE"/>
<rect x="90" y="186" width="140" height="8" fill="#DEDEDE"/>
<rect x="90" y="206" width="140" height="8" fill="#DEDEDE"/>
<rect x="90" y="166" width="30" height="8" fill="#447099"/>
<rect x="90" y="206" width="44" height="8" fill="#447099"/>
<rect x="90" y="186" width="108" height="8" fill="#447099"/>
<path d="M50.9395 154L48.0625 146.418H48.0156C48.0312 146.578 48.0449 146.773 48.0566 147.004C48.0684 147.234 48.0781 147.486 48.0859 147.76C48.0938 148.029 48.0977 148.305 48.0977 148.586V154H47.1719V145.434H48.6484L51.3613 152.559H51.4023L54.1562 145.434H55.6211V154H54.6367V148.516C54.6367 148.262 54.6406 148.008 54.6484 147.754C54.6562 147.496 54.666 147.254 54.6777 147.027C54.6895 146.797 54.7012 146.598 54.7129 146.43H54.666L51.7539 154H50.9395ZM60.291 147.461C60.8379 147.461 61.3066 147.582 61.6973 147.824C62.0879 148.066 62.3867 148.406 62.5938 148.844C62.8008 149.277 62.9043 149.785 62.9043 150.367V150.971H58.4688C58.4805 151.725 58.668 152.299 59.0312 152.693C59.3945 153.088 59.9062 153.285 60.5664 153.285C60.9727 153.285 61.332 153.248 61.6445 153.174C61.957 153.1 62.2812 152.99 62.6172 152.846V153.701C62.293 153.846 61.9707 153.951 61.6504 154.018C61.334 154.084 60.959 154.117 60.5254 154.117C59.9082 154.117 59.3691 153.992 58.9082 153.742C58.4512 153.488 58.0957 153.117 57.8418 152.629C57.5879 152.141 57.4609 151.543 57.4609 150.836C57.4609 150.145 57.5762 149.547 57.8066 149.043C58.041 148.535 58.3691 148.145 58.791 147.871C59.2168 147.598 59.7168 147.461 60.291 147.461ZM60.2793 148.258C59.7598 148.258 59.3457 148.428 59.0371 148.768C58.7285 149.107 58.5449 149.582 58.4863 150.191H61.8848C61.8809 149.809 61.8203 149.473 61.7031 149.184C61.5898 148.891 61.416 148.664 61.1816 148.504C60.9473 148.34 60.6465 148.258 60.2793 148.258ZM66.959 147.473C67.7246 147.473 68.293 147.645 68.6641 147.988C69.0352 148.332 69.2207 148.881 69.2207 149.635V154H68.5117L68.3242 153.051H68.2773C68.0977 153.285 67.9102 153.482 67.7148 153.643C67.5195 153.799 67.293 153.918 67.0352 154C66.7812 154.078 66.4688 154.117 66.0977 154.117C65.707 154.117 65.3594 154.049 65.0547 153.912C64.7539 153.775 64.5156 153.568 64.3398 153.291C64.168 153.014 64.082 152.662 64.082 152.236C64.082 151.596 64.3359 151.104 64.8438 150.76C65.3516 150.416 66.125 150.229 67.1641 150.197L68.2715 150.15V149.758C68.2715 149.203 68.1523 148.814 67.9141 148.592C67.6758 148.369 67.3398 148.258 66.9062 148.258C66.5703 148.258 66.25 148.307 65.9453 148.404C65.6406 148.502 65.3516 148.617 65.0781 148.75L64.7793 148.012C65.0684 147.863 65.4004 147.736 65.7754 147.631C66.1504 147.525 66.5449 147.473 66.959 147.473ZM68.2598 150.836L67.2812 150.877C66.4805 150.908 65.916 151.039 65.5879 151.27C65.2598 151.5 65.0957 151.826 65.0957 152.248C65.0957 152.615 65.207 152.887 65.4297 153.062C65.6523 153.238 65.9473 153.326 66.3145 153.326C66.8848 153.326 67.3516 153.168 67.7148 152.852C68.0781 152.535 68.2598 152.061 68.2598 151.428V150.836ZM74.2656 147.461C75.0273 147.461 75.6035 147.648 75.9941 148.023C76.3848 148.395 76.5801 148.992 76.5801 149.816V154H75.6191V149.881C75.6191 149.346 75.4961 148.945 75.25 148.68C75.0078 148.414 74.6348 148.281 74.1309 148.281C73.4199 148.281 72.9199 148.482 72.6309 148.885C72.3418 149.287 72.1973 149.871 72.1973 150.637V154H71.2246V147.578H72.0098L72.1562 148.504H72.209C72.3457 148.277 72.5195 148.088 72.7305 147.936C72.9414 147.779 73.1777 147.662 73.4395 147.584C73.7012 147.502 73.9766 147.461 74.2656 147.461ZM50.9395 174L48.0625 166.418H48.0156C48.0312 166.578 48.0449 166.773 48.0566 167.004C48.0684 167.234 48.0781 167.486 48.0859 167.76C48.0938 168.029 48.0977 168.305 48.0977 168.586V174H47.1719V165.434H48.6484L51.3613 172.559H51.4023L54.1562 165.434H55.6211V174H54.6367V168.516C54.6367 168.262 54.6406 168.008 54.6484 167.754C54.6562 167.496 54.666 167.254 54.6777 167.027C54.6895 166.797 54.7012 166.598 54.7129 166.43H54.666L51.7539 174H50.9395ZM58.791 167.578V174H57.8184V167.578H58.791ZM58.3164 165.176C58.4766 165.176 58.6133 165.229 58.7266 165.334C58.8438 165.436 58.9023 165.596 58.9023 165.814C58.9023 166.029 58.8438 166.189 58.7266 166.295C58.6133 166.4 58.4766 166.453 58.3164 166.453C58.1484 166.453 58.0078 166.4 57.8945 166.295C57.7852 166.189 57.7305 166.029 57.7305 165.814C57.7305 165.596 57.7852 165.436 57.8945 165.334C58.0078 165.229 58.1484 165.176 58.3164 165.176ZM63.8945 167.461C64.6562 167.461 65.2324 167.648 65.623 168.023C66.0137 168.395 66.209 168.992 66.209 169.816V174H65.248V169.881C65.248 169.346 65.125 168.945 64.8789 168.68C64.6367 168.414 64.2637 168.281 63.7598 168.281C63.0488 168.281 62.5488 168.482 62.2598 168.885C61.9707 169.287 61.8262 169.871 61.8262 170.637V174H60.8535V167.578H61.6387L61.7852 168.504H61.8379C61.9746 168.277 62.1484 168.088 62.3594 167.936C62.5703 167.779 62.8066 167.662 63.0684 167.584C63.3301 167.502 63.6055 167.461 63.8945 167.461ZM50.9395 194L48.0625 186.418H48.0156C48.0312 186.578 48.0449 186.773 48.0566 187.004C48.0684 187.234 48.0781 187.486 48.0859 187.76C48.0938 188.029 48.0977 188.305 48.0977 188.586V194H47.1719V185.434H48.6484L51.3613 192.559H51.4023L54.1562 185.434H55.6211V194H54.6367V188.516C54.6367 188.262 54.6406 188.008 54.6484 187.754C54.6562 187.496 54.666 187.254 54.6777 187.027C54.6895 186.797 54.7012 186.598 54.7129 186.43H54.666L51.7539 194H50.9395ZM60.2207 187.473C60.9863 187.473 61.5547 187.645 61.9258 187.988C62.2969 188.332 62.4824 188.881 62.4824 189.635V194H61.7734L61.5859 193.051H61.5391C61.3594 193.285 61.1719 193.482 60.9766 193.643C60.7812 193.799 60.5547 193.918 60.2969 194C60.043 194.078 59.7305 194.117 59.3594 194.117C58.9688 194.117 58.6211 194.049 58.3164 193.912C58.0156 193.775 57.7773 193.568 57.6016 193.291C57.4297 193.014 57.3438 192.662 57.3438 192.236C57.3438 191.596 57.5977 191.104 58.1055 190.76C58.6133 190.416 59.3867 190.229 60.4258 190.197L61.5332 190.15V189.758C61.5332 189.203 61.4141 188.814 61.1758 188.592C60.9375 188.369 60.6016 188.258 60.168 188.258C59.832 188.258 59.5117 188.307 59.207 188.404C58.9023 188.502 58.6133 188.617 58.3398 188.75L58.041 188.012C58.3301 187.863 58.6621 187.736 59.0371 187.631C59.4121 187.525 59.8066 187.473 60.2207 187.473ZM61.5215 190.836L60.543 190.877C59.7422 190.908 59.1777 191.039 58.8496 191.27C58.5215 191.5 58.3574 191.826 58.3574 192.248C58.3574 192.615 58.4688 192.887 58.6914 193.062C58.9141 193.238 59.209 193.326 59.5762 193.326C60.1465 193.326 60.6133 193.168 60.9766 192.852C61.3398 192.535 61.5215 192.061 61.5215 191.428V190.836ZM66.0156 190.713L63.7949 187.578H64.9082L66.6016 190.051L68.2891 187.578H69.3906L67.1699 190.713L69.5137 194H68.4004L66.6016 191.381L64.791 194H63.6895L66.0156 190.713ZM52.0059 211.721C52.0059 212.229 51.8789 212.662 51.625 213.021C51.375 213.377 51.0234 213.648 50.5703 213.836C50.1172 214.023 49.584 214.117 48.9707 214.117C48.6465 214.117 48.3398 214.102 48.0508 214.07C47.7617 214.039 47.4961 213.994 47.2539 213.936C47.0117 213.877 46.7988 213.805 46.6152 213.719V212.764C46.9082 212.885 47.2656 212.998 47.6875 213.104C48.1094 213.205 48.5508 213.256 49.0117 213.256C49.4414 213.256 49.8047 213.199 50.1016 213.086C50.3984 212.969 50.623 212.803 50.7754 212.588C50.9316 212.369 51.0098 212.107 51.0098 211.803C51.0098 211.51 50.9453 211.266 50.8164 211.07C50.6875 210.871 50.4727 210.691 50.1719 210.531C49.875 210.367 49.4688 210.193 48.9531 210.01C48.5898 209.881 48.2695 209.74 47.9922 209.588C47.7148 209.432 47.4824 209.256 47.2949 209.061C47.1074 208.865 46.9648 208.639 46.8672 208.381C46.7734 208.123 46.7266 207.828 46.7266 207.496C46.7266 207.039 46.8418 206.648 47.0723 206.324C47.3066 205.996 47.6289 205.746 48.0391 205.574C48.4531 205.398 48.9277 205.311 49.4629 205.311C49.9199 205.311 50.3418 205.354 50.7285 205.439C51.1191 205.525 51.4766 205.641 51.8008 205.785L51.4902 206.641C51.1816 206.512 50.8535 206.404 50.5059 206.318C50.1621 206.232 49.8066 206.189 49.4395 206.189C49.0723 206.189 48.7617 206.244 48.5078 206.354C48.2578 206.459 48.0664 206.609 47.9336 206.805C47.8008 207 47.7344 207.232 47.7344 207.502C47.7344 207.803 47.7969 208.053 47.9219 208.252C48.0508 208.451 48.2539 208.629 48.5312 208.785C48.8125 208.938 49.1836 209.098 49.6445 209.266C50.1484 209.449 50.5762 209.645 50.9277 209.852C51.2793 210.055 51.5469 210.305 51.7305 210.602C51.9141 210.895 52.0059 211.268 52.0059 211.721ZM60.5605 209.635C60.5605 210.6 60.3848 211.406 60.0332 212.055C59.6816 212.699 59.1719 213.186 58.5039 213.514C57.8398 213.838 57.0332 214 56.084 214H53.7578V205.434H56.3418C57.2129 205.434 57.9629 205.594 58.5918 205.914C59.2207 206.23 59.7051 206.701 60.0449 207.326C60.3887 207.947 60.5605 208.717 60.5605 209.635ZM59.5117 209.67C59.5117 208.9 59.3828 208.266 59.125 207.766C58.8711 207.266 58.4961 206.895 58 206.652C57.5078 206.406 56.9043 206.283 56.1895 206.283H54.7539V213.145H55.9668C57.1465 213.145 58.0312 212.854 58.6211 212.271C59.2148 211.689 59.5117 210.822 59.5117 209.67Z" fill="#3E4246"/>
<path d="M246.459 154H245.51V147.93C245.51 147.699 245.51 147.502 245.51 147.338C245.514 147.17 245.518 147.018 245.521 146.881C245.529 146.74 245.539 146.598 245.551 146.453C245.43 146.578 245.316 146.686 245.211 146.775C245.105 146.861 244.975 146.969 244.818 147.098L243.84 147.883L243.33 147.221L245.65 145.434H246.459V154ZM252.412 148.762C252.994 148.762 253.5 148.861 253.93 149.061C254.359 149.256 254.691 149.541 254.926 149.916C255.164 150.291 255.283 150.746 255.283 151.281C255.283 151.867 255.156 152.373 254.902 152.799C254.648 153.221 254.283 153.547 253.807 153.777C253.33 154.004 252.76 154.117 252.096 154.117C251.65 154.117 251.236 154.078 250.854 154C250.471 153.922 250.148 153.805 249.887 153.648V152.723C250.172 152.895 250.518 153.031 250.924 153.133C251.33 153.234 251.725 153.285 252.107 153.285C252.541 153.285 252.92 153.217 253.244 153.08C253.572 152.939 253.826 152.729 254.006 152.447C254.189 152.162 254.281 151.805 254.281 151.375C254.281 150.805 254.105 150.365 253.754 150.057C253.406 149.744 252.855 149.588 252.102 149.588C251.859 149.588 251.594 149.607 251.305 149.646C251.016 149.686 250.777 149.729 250.59 149.775L250.098 149.453L250.426 145.434H254.686V146.324H251.258L251.041 148.908C251.189 148.877 251.381 148.846 251.615 148.814C251.85 148.779 252.115 148.762 252.412 148.762ZM256.859 153.391C256.859 153.117 256.926 152.924 257.059 152.811C257.191 152.693 257.354 152.635 257.545 152.635C257.744 152.635 257.912 152.693 258.049 152.811C258.186 152.924 258.254 153.117 258.254 153.391C258.254 153.66 258.186 153.857 258.049 153.982C257.912 154.104 257.744 154.164 257.545 154.164C257.354 154.164 257.191 154.104 257.059 153.982C256.926 153.857 256.859 153.66 256.859 153.391ZM265.766 152.014H264.482V154H263.533V152.014H259.391V151.193L263.469 145.387H264.482V151.135H265.766V152.014ZM263.533 151.135V148.334C263.533 148.119 263.535 147.926 263.539 147.754C263.543 147.578 263.549 147.416 263.557 147.268C263.564 147.115 263.57 146.971 263.574 146.834C263.582 146.697 263.588 146.562 263.592 146.43H263.545C263.471 146.586 263.385 146.752 263.287 146.928C263.193 147.1 263.098 147.254 263 147.391L260.357 151.135H263.533ZM252.412 168.762C252.994 168.762 253.5 168.861 253.93 169.061C254.359 169.256 254.691 169.541 254.926 169.916C255.164 170.291 255.283 170.746 255.283 171.281C255.283 171.867 255.156 172.373 254.902 172.799C254.648 173.221 254.283 173.547 253.807 173.777C253.33 174.004 252.76 174.117 252.096 174.117C251.65 174.117 251.236 174.078 250.854 174C250.471 173.922 250.148 173.805 249.887 173.648V172.723C250.172 172.895 250.518 173.031 250.924 173.133C251.33 173.234 251.725 173.285 252.107 173.285C252.541 173.285 252.92 173.217 253.244 173.08C253.572 172.939 253.826 172.729 254.006 172.447C254.189 172.162 254.281 171.805 254.281 171.375C254.281 170.805 254.105 170.365 253.754 170.057C253.406 169.744 252.855 169.588 252.102 169.588C251.859 169.588 251.594 169.607 251.305 169.646C251.016 169.686 250.777 169.729 250.59 169.775L250.098 169.453L250.426 165.434H254.686V166.324H251.258L251.041 168.908C251.189 168.877 251.381 168.846 251.615 168.814C251.85 168.779 252.115 168.762 252.412 168.762ZM256.859 173.391C256.859 173.117 256.926 172.924 257.059 172.811C257.191 172.693 257.354 172.635 257.545 172.635C257.744 172.635 257.912 172.693 258.049 172.811C258.186 172.924 258.254 173.117 258.254 173.391C258.254 173.66 258.186 173.857 258.049 173.982C257.912 174.104 257.744 174.164 257.545 174.164C257.354 174.164 257.191 174.104 257.059 173.982C256.926 173.857 256.859 173.66 256.859 173.391ZM265.385 169.705C265.385 170.4 265.332 171.021 265.227 171.568C265.121 172.115 264.955 172.578 264.729 172.957C264.502 173.336 264.209 173.625 263.85 173.824C263.49 174.02 263.059 174.117 262.555 174.117C261.918 174.117 261.391 173.943 260.973 173.596C260.559 173.248 260.248 172.746 260.041 172.09C259.838 171.43 259.736 170.635 259.736 169.705C259.736 168.791 259.828 168.006 260.012 167.35C260.199 166.689 260.5 166.184 260.914 165.832C261.328 165.477 261.875 165.299 262.555 165.299C263.199 165.299 263.73 165.475 264.148 165.826C264.566 166.174 264.877 166.678 265.08 167.338C265.283 167.994 265.385 168.783 265.385 169.705ZM260.715 169.705C260.715 170.502 260.775 171.166 260.896 171.697C261.018 172.229 261.213 172.627 261.482 172.893C261.756 173.154 262.113 173.285 262.555 173.285C262.996 173.285 263.352 173.154 263.621 172.893C263.895 172.631 264.092 172.234 264.213 171.703C264.338 171.172 264.4 170.506 264.4 169.705C264.4 168.92 264.34 168.264 264.219 167.736C264.098 167.205 263.902 166.807 263.633 166.541C263.363 166.271 263.004 166.137 262.555 166.137C262.105 166.137 261.746 166.271 261.477 166.541C261.207 166.807 261.012 167.205 260.891 167.736C260.773 168.264 260.715 168.92 260.715 169.705ZM248.451 194H242.838V193.186L245.129 190.859C245.555 190.43 245.912 190.047 246.201 189.711C246.494 189.375 246.717 189.045 246.869 188.721C247.021 188.393 247.098 188.033 247.098 187.643C247.098 187.158 246.953 186.789 246.664 186.535C246.379 186.277 246.002 186.148 245.533 186.148C245.123 186.148 244.76 186.219 244.443 186.359C244.127 186.5 243.803 186.699 243.471 186.957L242.949 186.301C243.176 186.109 243.422 185.939 243.688 185.791C243.957 185.643 244.244 185.525 244.549 185.439C244.857 185.354 245.186 185.311 245.533 185.311C246.061 185.311 246.516 185.402 246.898 185.586C247.281 185.77 247.576 186.031 247.783 186.371C247.994 186.711 248.1 187.115 248.1 187.584C248.1 188.037 248.01 188.459 247.83 188.85C247.65 189.236 247.398 189.621 247.074 190.004C246.75 190.383 246.371 190.785 245.938 191.211L244.074 193.068V193.109H248.451V194ZM252.412 188.762C252.994 188.762 253.5 188.861 253.93 189.061C254.359 189.256 254.691 189.541 254.926 189.916C255.164 190.291 255.283 190.746 255.283 191.281C255.283 191.867 255.156 192.373 254.902 192.799C254.648 193.221 254.283 193.547 253.807 193.777C253.33 194.004 252.76 194.117 252.096 194.117C251.65 194.117 251.236 194.078 250.854 194C250.471 193.922 250.148 193.805 249.887 193.648V192.723C250.172 192.895 250.518 193.031 250.924 193.133C251.33 193.234 251.725 193.285 252.107 193.285C252.541 193.285 252.92 193.217 253.244 193.08C253.572 192.939 253.826 192.729 254.006 192.447C254.189 192.162 254.281 191.805 254.281 191.375C254.281 190.805 254.105 190.365 253.754 190.057C253.406 189.744 252.855 189.588 252.102 189.588C251.859 189.588 251.594 189.607 251.305 189.646C251.016 189.686 250.777 189.729 250.59 189.775L250.098 189.453L250.426 185.434H254.686V186.324H251.258L251.041 188.908C251.189 188.877 251.381 188.846 251.615 188.814C251.85 188.779 252.115 188.762 252.412 188.762ZM256.859 193.391C256.859 193.117 256.926 192.924 257.059 192.811C257.191 192.693 257.354 192.635 257.545 192.635C257.744 192.635 257.912 192.693 258.049 192.811C258.186 192.924 258.254 193.117 258.254 193.391C258.254 193.66 258.186 193.857 258.049 193.982C257.912 194.104 257.744 194.164 257.545 194.164C257.354 194.164 257.191 194.104 257.059 193.982C256.926 193.857 256.859 193.66 256.859 193.391ZM265.385 189.705C265.385 190.4 265.332 191.021 265.227 191.568C265.121 192.115 264.955 192.578 264.729 192.957C264.502 193.336 264.209 193.625 263.85 193.824C263.49 194.02 263.059 194.117 262.555 194.117C261.918 194.117 261.391 193.943 260.973 193.596C260.559 193.248 260.248 192.746 260.041 192.09C259.838 191.43 259.736 190.635 259.736 189.705C259.736 188.791 259.828 188.006 260.012 187.35C260.199 186.689 260.5 186.184 260.914 185.832C261.328 185.477 261.875 185.299 262.555 185.299C263.199 185.299 263.73 185.475 264.148 185.826C264.566 186.174 264.877 186.678 265.08 187.338C265.283 187.994 265.385 188.783 265.385 189.705ZM260.715 189.705C260.715 190.502 260.775 191.166 260.896 191.697C261.018 192.229 261.213 192.627 261.482 192.893C261.756 193.154 262.113 193.285 262.555 193.285C262.996 193.285 263.352 193.154 263.621 192.893C263.895 192.631 264.092 192.234 264.213 191.703C264.338 191.172 264.4 190.506 264.4 189.705C264.4 188.92 264.34 188.264 264.219 187.736C264.098 187.205 263.902 186.807 263.633 186.541C263.363 186.271 263.004 186.137 262.555 186.137C262.105 186.137 261.746 186.271 261.477 186.541C261.207 186.807 261.012 187.205 260.891 187.736C260.773 188.264 260.715 188.92 260.715 189.705ZM255.746 212.014H254.463V214H253.514V212.014H249.371V211.193L253.449 205.387H254.463V211.135H255.746V212.014ZM253.514 211.135V208.334C253.514 208.119 253.516 207.926 253.52 207.754C253.523 207.578 253.529 207.416 253.537 207.268C253.545 207.115 253.551 206.971 253.555 206.834C253.562 206.697 253.568 206.562 253.572 206.43H253.525C253.451 206.586 253.365 206.752 253.268 206.928C253.174 207.1 253.078 207.254 252.98 207.391L250.338 211.135H253.514ZM256.859 213.391C256.859 213.117 256.926 212.924 257.059 212.811C257.191 212.693 257.354 212.635 257.545 212.635C257.744 212.635 257.912 212.693 258.049 212.811C258.186 212.924 258.254 213.117 258.254 213.391C258.254 213.66 258.186 213.857 258.049 213.982C257.912 214.104 257.744 214.164 257.545 214.164C257.354 214.164 257.191 214.104 257.059 213.982C256.926 213.857 256.859 213.66 256.859 213.391ZM265.338 214H259.725V213.186L262.016 210.859C262.441 210.43 262.799 210.047 263.088 209.711C263.381 209.375 263.604 209.045 263.756 208.721C263.908 208.393 263.984 208.033 263.984 207.643C263.984 207.158 263.84 206.789 263.551 206.535C263.266 206.277 262.889 206.148 262.42 206.148C262.01 206.148 261.646 206.219 261.33 206.359C261.014 206.5 260.689 206.699 260.357 206.957L259.836 206.301C260.062 206.109 260.309 205.939 260.574 205.791C260.844 205.643 261.131 205.525 261.436 205.439C261.744 205.354 262.072 205.311 262.42 205.311C262.947 205.311 263.402 205.402 263.785 205.586C264.168 205.77 264.463 206.031 264.67 206.371C264.881 206.711 264.986 207.115 264.986 207.584C264.986 208.037 264.896 208.459 264.717 208.85C264.537 209.236 264.285 209.621 263.961 210.004C263.637 210.383 263.258 210.785 262.824 211.211L260.961 213.068V213.109H265.338V214Z" fill="#3E4246"/>
<line x1="324" y1="214" x2="449" y2="214" stroke="#C0C0C0" stroke-width="2"/>
<line x1="323" y1="215" x2="323" y2="146" stroke="#C0C0C0" stroke-width="2"/>
<rect x="334" y="195" width="8" height="18" fill="#447099"/>
<rect x="415" y="195" width="8" height="18" fill="#447099"/>
<rect x="350" y="151" width="8" height="62" fill="#447099"/>
<rect x="383" y="160" width="8" height="53" fill="#447099"/>
<rect x="367" y="178" width="8" height="35" fill="#447099"/>
<rect x="431" y="178" width="8" height="35" fill="#447099"/>
<rect x="399" y="169" width="8" height="44" fill="#447099"/>
<rect x="26" y="50" width="20" height="22" fill="#447099"/>
<line x1="47" y1="122" x2="47" y2="24" stroke="#C0C0C0" stroke-width="2"/>
<line x1="159.5" y1="122" x2="159.5" y2="24" stroke="#C0C0C0"/>
<line x1="271.5" y1="122" x2="271.5" y2="24" stroke="#C0C0C0"/>
<line x1="383.5" y1="122" x2="383.5" y2="24" stroke="#C0C0C0"/>
<line x1="496" y1="49" x2="26" y2="49" stroke="#C0C0C0" stroke-width="2"/>
<line x1="496" y1="72.5" x2="26" y2="72.5" stroke="#C0C0C0"/>
<line x1="496" y1="96.5" x2="26" y2="96.5" stroke="#C0C0C0"/>
<rect x="54" y="34" width="28" height="6" rx="3" fill="#C0C0C0"/>
<rect x="54" y="58" width="54" height="6" rx="3" fill="#C0C0C0"/>
<rect x="54" y="81" width="54" height="6" rx="3" fill="#C0C0C0"/>
<rect x="54" y="107" width="54" height="6" rx="3" fill="#C0C0C0"/>
<rect x="168" y="34" width="54" height="6" rx="3" fill="#C0C0C0"/>
<rect x="168" y="58" width="39" height="6" rx="3" fill="#C0C0C0"/>
<rect x="168" y="81" width="71" height="6" rx="3" fill="#C0C0C0"/>
<rect x="168" y="107" width="48" height="6" rx="3" fill="#C0C0C0"/>
<rect x="280" y="34" width="64" height="6" rx="3" fill="#C0C0C0"/>
<rect x="280" y="58" width="78" height="6" rx="3" fill="#C0C0C0"/>
<rect x="280" y="81" width="51" height="6" rx="3" fill="#C0C0C0"/>
<rect x="280" y="107" width="59" height="6" rx="3" fill="#C0C0C0"/>
<rect x="392" y="34" width="58" height="6" rx="3" fill="#C0C0C0"/>
<rect x="392" y="58" width="82" height="6" rx="3" fill="#C0C0C0"/>
<rect x="392" y="81" width="36" height="6" rx="3" fill="#C0C0C0"/>
<rect x="392" y="107" width="72" height="6" rx="3" fill="#C0C0C0"/>
</svg>
