<svg width="520" height="260" viewBox="0 0 520 260" fill="none" xmlns="http://www.w3.org/2000/svg">
<rect width="520" height="260" fill="white"/>
<rect x="25" y="25" width="470" height="210" rx="5" stroke="#C0C0C0" stroke-width="2"/>
<path d="M28 25H492C493.657 25 495 26.3431 495 28V47H25V28C25 26.3431 26.3431 25 28 25Z" fill="white" stroke="#C0C0C0" stroke-width="2"/>
<rect x="26" y="34" width="151" height="14" fill="white"/>
<path d="M35.5938 33.4922C36.235 33.4922 36.7493 33.7266 37.1367 34.1953C37.5273 34.6641 37.7227 35.3607 37.7227 36.2852C37.7227 36.8971 37.6315 37.4131 37.4492 37.833C37.2702 38.2497 37.0179 38.5654 36.6924 38.7803C36.3701 38.9919 35.9941 39.0977 35.5645 39.0977C35.291 39.0977 35.0534 39.0618 34.8516 38.9902C34.6497 38.9186 34.4772 38.8258 34.334 38.7119C34.1908 38.5947 34.0703 38.4678 33.9727 38.3311H33.9043C33.9206 38.4613 33.9352 38.6061 33.9482 38.7656C33.9645 38.9219 33.9727 39.0651 33.9727 39.1953V41.3975H32.8203V33.5947H33.7578L33.9189 34.3418H33.9727C34.0736 34.1888 34.1956 34.0472 34.3389 33.917C34.4854 33.7868 34.6611 33.6842 34.8662 33.6094C35.0745 33.5312 35.3171 33.4922 35.5938 33.4922ZM35.2861 34.4297C34.9704 34.4297 34.7165 34.4932 34.5244 34.6201C34.3356 34.7438 34.1973 34.931 34.1094 35.1816C34.0247 35.4323 33.9792 35.7464 33.9727 36.124V36.2852C33.9727 36.6855 34.0133 37.0257 34.0947 37.3057C34.1794 37.5824 34.3177 37.7939 34.5098 37.9404C34.7051 38.0837 34.9688 38.1553 35.3008 38.1553C35.5807 38.1553 35.8118 38.0788 35.9941 37.9258C36.1797 37.7728 36.318 37.5547 36.4092 37.2715C36.5003 36.9883 36.5459 36.6546 36.5459 36.2705C36.5459 35.6878 36.4417 35.2354 36.2334 34.9131C36.0283 34.5908 35.7126 34.4297 35.2861 34.4297ZM43.8359 36.2852C43.8359 36.7344 43.7773 37.1331 43.6602 37.4814C43.543 37.8298 43.3721 38.1243 43.1475 38.3652C42.9229 38.6029 42.6527 38.7852 42.3369 38.9121C42.0212 39.0358 41.6647 39.0977 41.2676 39.0977C40.8965 39.0977 40.5563 39.0358 40.2471 38.9121C39.9378 38.7852 39.6693 38.6029 39.4414 38.3652C39.2168 38.1243 39.0426 37.8298 38.9189 37.4814C38.7952 37.1331 38.7334 36.7344 38.7334 36.2852C38.7334 35.6895 38.8359 35.1849 39.041 34.7715C39.2493 34.3548 39.5456 34.0374 39.9297 33.8193C40.3138 33.6012 40.7712 33.4922 41.3018 33.4922C41.7998 33.4922 42.2393 33.6012 42.6201 33.8193C43.001 34.0374 43.2988 34.3548 43.5137 34.7715C43.7285 35.1882 43.8359 35.6927 43.8359 36.2852ZM39.915 36.2852C39.915 36.679 39.9622 37.016 40.0566 37.2959C40.1543 37.5758 40.304 37.7907 40.5059 37.9404C40.7077 38.0869 40.9681 38.1602 41.2871 38.1602C41.6061 38.1602 41.8665 38.0869 42.0684 37.9404C42.2702 37.7907 42.4183 37.5758 42.5127 37.2959C42.6071 37.016 42.6543 36.679 42.6543 36.2852C42.6543 35.8913 42.6071 35.5576 42.5127 35.2842C42.4183 35.0075 42.2702 34.7975 42.0684 34.6543C41.8665 34.5078 41.6045 34.4346 41.2822 34.4346C40.807 34.4346 40.4603 34.5941 40.2422 34.9131C40.0241 35.2321 39.915 35.6895 39.915 36.2852ZM46.3018 31.4023V35.0742C46.3018 35.2402 46.2952 35.4225 46.2822 35.6211C46.2692 35.8164 46.2562 36.0003 46.2432 36.1729H46.2676C46.3522 36.0589 46.4531 35.9255 46.5703 35.7725C46.6908 35.6195 46.8047 35.486 46.9121 35.3721L48.5625 33.5947H49.8809L47.7178 35.9189L50.0225 39H48.6748L46.9463 36.627L46.3018 37.1787V39H45.1543V31.4023H46.3018ZM53.04 33.4922C53.5218 33.4922 53.9352 33.5915 54.2803 33.79C54.6253 33.9886 54.8906 34.2702 55.0762 34.6348C55.2617 34.9993 55.3545 35.4355 55.3545 35.9434V36.5586H51.7461C51.7591 37.0827 51.8991 37.4863 52.166 37.7695C52.4362 38.0527 52.8138 38.1943 53.2988 38.1943C53.6439 38.1943 53.9531 38.1618 54.2266 38.0967C54.5033 38.0283 54.7881 37.929 55.0811 37.7988V38.7314C54.8109 38.8584 54.5358 38.9512 54.2559 39.0098C53.9759 39.0684 53.6406 39.0977 53.25 39.0977C52.7194 39.0977 52.2523 38.9951 51.8486 38.79C51.4482 38.5817 51.1341 38.2725 50.9062 37.8623C50.6816 37.4521 50.5693 36.9427 50.5693 36.334C50.5693 35.7285 50.6719 35.2142 50.877 34.791C51.082 34.3678 51.3701 34.0456 51.7412 33.8242C52.1123 33.6029 52.5452 33.4922 53.04 33.4922ZM53.04 34.3564C52.6787 34.3564 52.3857 34.4736 52.1611 34.708C51.9398 34.9424 51.8096 35.2858 51.7705 35.7383H54.2314C54.2282 35.4681 54.1826 35.2288 54.0947 35.0205C54.0101 34.8122 53.8799 34.6494 53.7041 34.5322C53.5316 34.415 53.3102 34.3564 53.04 34.3564ZM62.7568 33.4922C63.3623 33.4922 63.818 33.6484 64.124 33.9609C64.4333 34.2734 64.5879 34.7747 64.5879 35.4648V39H63.4404V35.6699C63.4404 35.2598 63.3607 34.9505 63.2012 34.7422C63.0417 34.5339 62.7992 34.4297 62.4736 34.4297C62.0179 34.4297 61.6891 34.5762 61.4873 34.8691C61.2887 35.1589 61.1895 35.5804 61.1895 36.1338V39H60.042V35.6699C60.042 35.3965 60.0062 35.1686 59.9346 34.9863C59.8662 34.8008 59.7604 34.6624 59.6172 34.5713C59.474 34.4769 59.2933 34.4297 59.0752 34.4297C58.7594 34.4297 58.5072 34.5013 58.3184 34.6445C58.1328 34.7878 57.9993 34.9993 57.918 35.2793C57.8366 35.556 57.7959 35.8962 57.7959 36.2998V39H56.6484V33.5947H57.542L57.7031 34.3223H57.7666C57.8773 34.1335 58.014 33.9788 58.1768 33.8584C58.3428 33.7347 58.5267 33.6436 58.7285 33.585C58.9303 33.5231 59.1403 33.4922 59.3584 33.4922C59.762 33.4922 60.1022 33.5638 60.3789 33.707C60.6556 33.847 60.8623 34.0618 60.999 34.3516H61.0869C61.2562 34.0586 61.4922 33.8421 61.7949 33.7021C62.0977 33.5622 62.4183 33.4922 62.7568 33.4922ZM70.9746 36.2852C70.9746 36.7344 70.916 37.1331 70.7988 37.4814C70.6816 37.8298 70.5107 38.1243 70.2861 38.3652C70.0615 38.6029 69.7913 38.7852 69.4756 38.9121C69.1598 39.0358 68.8034 39.0977 68.4062 39.0977C68.0352 39.0977 67.695 39.0358 67.3857 38.9121C67.0765 38.7852 66.8079 38.6029 66.5801 38.3652C66.3555 38.1243 66.1813 37.8298 66.0576 37.4814C65.9339 37.1331 65.8721 36.7344 65.8721 36.2852C65.8721 35.6895 65.9746 35.1849 66.1797 34.7715C66.388 34.3548 66.6842 34.0374 67.0684 33.8193C67.4525 33.6012 67.9098 33.4922 68.4404 33.4922C68.9385 33.4922 69.3779 33.6012 69.7588 33.8193C70.1396 34.0374 70.4375 34.3548 70.6523 34.7715C70.8672 35.1882 70.9746 35.6927 70.9746 36.2852ZM67.0537 36.2852C67.0537 36.679 67.1009 37.016 67.1953 37.2959C67.293 37.5758 67.4427 37.7907 67.6445 37.9404C67.8464 38.0869 68.1068 38.1602 68.4258 38.1602C68.7448 38.1602 69.0052 38.0869 69.207 37.9404C69.4089 37.7907 69.557 37.5758 69.6514 37.2959C69.7458 37.016 69.793 36.679 69.793 36.2852C69.793 35.8913 69.7458 35.5576 69.6514 35.2842C69.557 35.0075 69.4089 34.7975 69.207 34.6543C69.0052 34.5078 68.7432 34.4346 68.4209 34.4346C67.9456 34.4346 67.599 34.5941 67.3809 34.9131C67.1628 35.2321 67.0537 35.6895 67.0537 36.2852ZM75.1104 33.4922C75.7191 33.4922 76.1927 33.6501 76.5312 33.9658C76.873 34.2783 77.0439 34.7812 77.0439 35.4746V39H75.8965V35.6895C75.8965 35.2695 75.8102 34.9554 75.6377 34.7471C75.4652 34.5355 75.1982 34.4297 74.8369 34.4297C74.3128 34.4297 73.9482 34.5908 73.7432 34.9131C73.5413 35.2354 73.4404 35.7025 73.4404 36.3145V39H72.293V33.5947H73.1865L73.3477 34.3271H73.4111C73.5283 34.1383 73.6732 33.9837 73.8457 33.8633C74.0215 33.7396 74.2168 33.6468 74.4316 33.585C74.6497 33.5231 74.876 33.4922 75.1104 33.4922ZM78.1816 36.8027V35.8311H80.7012V36.8027H78.1816ZM83.9922 33.4922C84.6758 33.4922 85.1917 33.6436 85.54 33.9463C85.8916 34.249 86.0674 34.721 86.0674 35.3623V39H85.252L85.0322 38.2334H84.9932C84.8402 38.4287 84.6823 38.5898 84.5195 38.7168C84.3568 38.8438 84.168 38.9382 83.9531 39C83.7415 39.0651 83.4827 39.0977 83.1768 39.0977C82.8545 39.0977 82.5664 39.0391 82.3125 38.9219C82.0586 38.8014 81.8584 38.6191 81.7119 38.375C81.5654 38.1309 81.4922 37.8216 81.4922 37.4473C81.4922 36.8906 81.6989 36.4723 82.1123 36.1924C82.529 35.9124 83.1572 35.7578 83.9971 35.7285L84.9346 35.6943V35.4111C84.9346 35.0368 84.8467 34.7699 84.6709 34.6104C84.4984 34.4508 84.2542 34.3711 83.9385 34.3711C83.6683 34.3711 83.4062 34.4102 83.1523 34.4883C82.8984 34.5664 82.651 34.6624 82.4102 34.7764L82.0391 33.9658C82.3027 33.8258 82.6022 33.7119 82.9375 33.624C83.276 33.5361 83.6276 33.4922 83.9922 33.4922ZM84.9297 36.417L84.2314 36.4414C83.6585 36.4609 83.2565 36.5586 83.0254 36.7344C82.7943 36.9102 82.6787 37.151 82.6787 37.457C82.6787 37.724 82.7585 37.9193 82.918 38.043C83.0775 38.1634 83.2874 38.2236 83.5479 38.2236C83.945 38.2236 84.2738 38.1113 84.5342 37.8867C84.7979 37.6589 84.9297 37.3252 84.9297 36.8857V36.417ZM90.4912 33.4922C91.0999 33.4922 91.5736 33.6501 91.9121 33.9658C92.2539 34.2783 92.4248 34.7812 92.4248 35.4746V39H91.2773V35.6895C91.2773 35.2695 91.1911 34.9554 91.0186 34.7471C90.846 34.5355 90.5791 34.4297 90.2178 34.4297C89.6937 34.4297 89.3291 34.5908 89.124 34.9131C88.9222 35.2354 88.8213 35.7025 88.8213 36.3145V39H87.6738V33.5947H88.5674L88.7285 34.3271H88.792C88.9092 34.1383 89.054 33.9837 89.2266 33.8633C89.4023 33.7396 89.5977 33.6468 89.8125 33.585C90.0306 33.5231 90.2568 33.4922 90.4912 33.4922ZM96.1504 33.4922C96.834 33.4922 97.3499 33.6436 97.6982 33.9463C98.0498 34.249 98.2256 34.721 98.2256 35.3623V39H97.4102L97.1904 38.2334H97.1514C96.9984 38.4287 96.8405 38.5898 96.6777 38.7168C96.515 38.8438 96.3262 38.9382 96.1113 39C95.8997 39.0651 95.641 39.0977 95.335 39.0977C95.0127 39.0977 94.7246 39.0391 94.4707 38.9219C94.2168 38.8014 94.0166 38.6191 93.8701 38.375C93.7236 38.1309 93.6504 37.8216 93.6504 37.4473C93.6504 36.8906 93.8571 36.4723 94.2705 36.1924C94.6872 35.9124 95.3154 35.7578 96.1553 35.7285L97.0928 35.6943V35.4111C97.0928 35.0368 97.0049 34.7699 96.8291 34.6104C96.6566 34.4508 96.4124 34.3711 96.0967 34.3711C95.8265 34.3711 95.5645 34.4102 95.3105 34.4883C95.0566 34.5664 94.8092 34.6624 94.5684 34.7764L94.1973 33.9658C94.4609 33.8258 94.7604 33.7119 95.0957 33.624C95.4342 33.5361 95.7858 33.4922 96.1504 33.4922ZM97.0879 36.417L96.3896 36.4414C95.8167 36.4609 95.4147 36.5586 95.1836 36.7344C94.9525 36.9102 94.8369 37.151 94.8369 37.457C94.8369 37.724 94.9167 37.9193 95.0762 38.043C95.2357 38.1634 95.4456 38.2236 95.7061 38.2236C96.1032 38.2236 96.432 38.1113 96.6924 37.8867C96.9561 37.6589 97.0879 37.3252 97.0879 36.8857V36.417ZM100.984 39H99.832V31.4023H100.984V39ZM101.81 33.5947H103.06L104.168 36.6807C104.217 36.8206 104.261 36.959 104.3 37.0957C104.342 37.2292 104.378 37.361 104.407 37.4912C104.44 37.6214 104.466 37.7516 104.485 37.8818H104.515C104.547 37.7126 104.593 37.5238 104.651 37.3154C104.713 37.1038 104.782 36.8923 104.856 36.6807L105.921 33.5947H107.156L104.837 39.7422C104.703 40.0938 104.539 40.3932 104.344 40.6406C104.152 40.8913 103.924 41.0801 103.66 41.207C103.396 41.3372 103.095 41.4023 102.757 41.4023C102.594 41.4023 102.452 41.3926 102.332 41.373C102.212 41.3568 102.109 41.3389 102.024 41.3193V40.4014C102.093 40.4176 102.179 40.4323 102.283 40.4453C102.387 40.4583 102.495 40.4648 102.605 40.4648C102.811 40.4648 102.988 40.4242 103.138 40.3428C103.287 40.2614 103.414 40.1458 103.519 39.9961C103.623 39.8496 103.709 39.682 103.777 39.4932L103.968 38.9854L101.81 33.5947ZM111.609 37.457C111.609 37.8118 111.523 38.1113 111.351 38.3555C111.178 38.5996 110.926 38.7852 110.594 38.9121C110.265 39.0358 109.861 39.0977 109.383 39.0977C109.005 39.0977 108.68 39.07 108.406 39.0146C108.136 38.9626 107.881 38.8812 107.64 38.7705V37.7793C107.897 37.8997 108.185 38.0039 108.504 38.0918C108.826 38.1797 109.131 38.2236 109.417 38.2236C109.795 38.2236 110.066 38.165 110.232 38.0479C110.398 37.9274 110.481 37.7679 110.481 37.5693C110.481 37.4521 110.447 37.348 110.379 37.2568C110.314 37.1624 110.19 37.0664 110.008 36.9688C109.829 36.8678 109.565 36.7474 109.217 36.6074C108.875 36.4707 108.587 36.334 108.353 36.1973C108.118 36.0605 107.941 35.8962 107.82 35.7041C107.7 35.5088 107.64 35.2598 107.64 34.957C107.64 34.4785 107.828 34.1156 108.206 33.8682C108.587 33.6175 109.09 33.4922 109.715 33.4922C110.047 33.4922 110.359 33.5264 110.652 33.5947C110.949 33.6598 111.238 33.7559 111.521 33.8828L111.16 34.7471C110.916 34.6396 110.67 34.5518 110.423 34.4834C110.179 34.4118 109.93 34.376 109.676 34.376C109.38 34.376 109.153 34.4215 108.997 34.5127C108.844 34.6038 108.768 34.734 108.768 34.9033C108.768 35.0303 108.805 35.1377 108.88 35.2256C108.955 35.3135 109.083 35.4014 109.266 35.4893C109.451 35.5771 109.708 35.6862 110.037 35.8164C110.359 35.9401 110.638 36.0703 110.872 36.207C111.11 36.3405 111.292 36.5049 111.419 36.7002C111.546 36.8955 111.609 37.1478 111.609 37.457ZM113.997 33.5947V39H112.85V33.5947H113.997ZM113.431 31.5244C113.606 31.5244 113.758 31.5716 113.885 31.666C114.015 31.7604 114.08 31.9232 114.08 32.1543C114.08 32.3822 114.015 32.5449 113.885 32.6426C113.758 32.737 113.606 32.7842 113.431 32.7842C113.248 32.7842 113.094 32.737 112.967 32.6426C112.843 32.5449 112.781 32.3822 112.781 32.1543C112.781 31.9232 112.843 31.7604 112.967 31.666C113.094 31.5716 113.248 31.5244 113.431 31.5244ZM119.275 37.457C119.275 37.8118 119.189 38.1113 119.017 38.3555C118.844 38.5996 118.592 38.7852 118.26 38.9121C117.931 39.0358 117.527 39.0977 117.049 39.0977C116.671 39.0977 116.346 39.07 116.072 39.0146C115.802 38.9626 115.547 38.8812 115.306 38.7705V37.7793C115.563 37.8997 115.851 38.0039 116.17 38.0918C116.492 38.1797 116.797 38.2236 117.083 38.2236C117.461 38.2236 117.732 38.165 117.898 38.0479C118.064 37.9274 118.147 37.7679 118.147 37.5693C118.147 37.4521 118.113 37.348 118.045 37.2568C117.98 37.1624 117.856 37.0664 117.674 36.9688C117.495 36.8678 117.231 36.7474 116.883 36.6074C116.541 36.4707 116.253 36.334 116.019 36.1973C115.784 36.0605 115.607 35.8962 115.486 35.7041C115.366 35.5088 115.306 35.2598 115.306 34.957C115.306 34.4785 115.494 34.1156 115.872 33.8682C116.253 33.6175 116.756 33.4922 117.381 33.4922C117.713 33.4922 118.025 33.5264 118.318 33.5947C118.615 33.6598 118.904 33.7559 119.188 33.8828L118.826 34.7471C118.582 34.6396 118.336 34.5518 118.089 34.4834C117.845 34.4118 117.596 34.376 117.342 34.376C117.046 34.376 116.819 34.4215 116.663 34.5127C116.51 34.6038 116.434 34.734 116.434 34.9033C116.434 35.0303 116.471 35.1377 116.546 35.2256C116.621 35.3135 116.749 35.4014 116.932 35.4893C117.117 35.5771 117.374 35.6862 117.703 35.8164C118.025 35.9401 118.304 36.0703 118.538 36.207C118.776 36.3405 118.958 36.5049 119.085 36.7002C119.212 36.8955 119.275 37.1478 119.275 37.457ZM120.35 38.3945C120.35 38.1276 120.418 37.9404 120.555 37.833C120.695 37.7223 120.864 37.667 121.062 37.667C121.261 37.667 121.43 37.7223 121.57 37.833C121.714 37.9404 121.785 38.1276 121.785 38.3945C121.785 38.6549 121.714 38.8438 121.57 38.9609C121.43 39.0749 121.261 39.1318 121.062 39.1318C120.864 39.1318 120.695 39.0749 120.555 38.9609C120.418 38.8438 120.35 38.6549 120.35 38.3945ZM124.407 33.5947V39H123.26V33.5947H124.407ZM123.841 31.5244C124.017 31.5244 124.168 31.5716 124.295 31.666C124.425 31.7604 124.49 31.9232 124.49 32.1543C124.49 32.3822 124.425 32.5449 124.295 32.6426C124.168 32.737 124.017 32.7842 123.841 32.7842C123.659 32.7842 123.504 32.737 123.377 32.6426C123.253 32.5449 123.191 32.3822 123.191 32.1543C123.191 31.9232 123.253 31.7604 123.377 31.666C123.504 31.5716 123.659 31.5244 123.841 31.5244ZM128.826 33.4922C129.467 33.4922 129.982 33.7266 130.369 34.1953C130.76 34.6641 130.955 35.3607 130.955 36.2852C130.955 36.8971 130.864 37.4131 130.682 37.833C130.503 38.2497 130.25 38.5654 129.925 38.7803C129.603 38.9919 129.227 39.0977 128.797 39.0977C128.523 39.0977 128.286 39.0618 128.084 38.9902C127.882 38.9186 127.71 38.8258 127.566 38.7119C127.423 38.5947 127.303 38.4678 127.205 38.3311H127.137C127.153 38.4613 127.168 38.6061 127.181 38.7656C127.197 38.9219 127.205 39.0651 127.205 39.1953V41.3975H126.053V33.5947H126.99L127.151 34.3418H127.205C127.306 34.1888 127.428 34.0472 127.571 33.917C127.718 33.7868 127.894 33.6842 128.099 33.6094C128.307 33.5312 128.549 33.4922 128.826 33.4922ZM128.519 34.4297C128.203 34.4297 127.949 34.4932 127.757 34.6201C127.568 34.7438 127.43 34.931 127.342 35.1816C127.257 35.4323 127.212 35.7464 127.205 36.124V36.2852C127.205 36.6855 127.246 37.0257 127.327 37.3057C127.412 37.5824 127.55 37.7939 127.742 37.9404C127.938 38.0837 128.201 38.1553 128.533 38.1553C128.813 38.1553 129.044 38.0788 129.227 37.9258C129.412 37.7728 129.55 37.5547 129.642 37.2715C129.733 36.9883 129.778 36.6546 129.778 36.2705C129.778 35.6878 129.674 35.2354 129.466 34.9131C129.261 34.5908 128.945 34.4297 128.519 34.4297ZM131.468 33.5947H132.718L133.826 36.6807C133.875 36.8206 133.919 36.959 133.958 37.0957C134 37.2292 134.036 37.361 134.065 37.4912C134.098 37.6214 134.124 37.7516 134.144 37.8818H134.173C134.205 37.7126 134.251 37.5238 134.31 37.3154C134.371 37.1038 134.44 36.8923 134.515 36.6807L135.579 33.5947H136.814L134.495 39.7422C134.362 40.0938 134.197 40.3932 134.002 40.6406C133.81 40.8913 133.582 41.0801 133.318 41.207C133.055 41.3372 132.754 41.4023 132.415 41.4023C132.252 41.4023 132.111 41.3926 131.99 41.373C131.87 41.3568 131.767 41.3389 131.683 41.3193V40.4014C131.751 40.4176 131.837 40.4323 131.941 40.4453C132.046 40.4583 132.153 40.4648 132.264 40.4648C132.469 40.4648 132.646 40.4242 132.796 40.3428C132.946 40.2614 133.073 40.1458 133.177 39.9961C133.281 39.8496 133.367 39.682 133.436 39.4932L133.626 38.9854L131.468 33.5947ZM140.452 33.4922C141.061 33.4922 141.535 33.6501 141.873 33.9658C142.215 34.2783 142.386 34.7812 142.386 35.4746V39H141.238V35.6895C141.238 35.2695 141.152 34.9554 140.979 34.7471C140.807 34.5355 140.54 34.4297 140.179 34.4297C139.655 34.4297 139.29 34.5908 139.085 34.9131C138.883 35.2354 138.782 35.7025 138.782 36.3145V39H137.635V33.5947H138.528L138.689 34.3271H138.753C138.87 34.1383 139.015 33.9837 139.188 33.8633C139.363 33.7396 139.559 33.6468 139.773 33.585C139.992 33.5231 140.218 33.4922 140.452 33.4922ZM145.14 31.4023V33.2334C145.14 33.445 145.133 33.6533 145.12 33.8584C145.11 34.0602 145.101 34.2181 145.091 34.332H145.14C145.286 34.0977 145.49 33.9007 145.75 33.7412C146.014 33.5785 146.351 33.4971 146.761 33.4971C147.402 33.4971 147.918 33.7331 148.309 34.2051C148.699 34.6738 148.895 35.3688 148.895 36.29C148.895 36.902 148.805 37.4163 148.626 37.833C148.447 38.2497 148.195 38.5654 147.869 38.7803C147.547 38.9919 147.168 39.0977 146.731 39.0977C146.321 39.0977 145.989 39.0228 145.735 38.873C145.485 38.7201 145.288 38.5426 145.145 38.3408H145.062L144.852 39H143.992V31.4023H145.14ZM146.458 34.4297C146.132 34.4297 145.874 34.4948 145.682 34.625C145.493 34.7552 145.356 34.9505 145.271 35.2109C145.187 35.4681 145.143 35.7952 145.14 36.1924V36.2949C145.14 36.8971 145.234 37.3577 145.423 37.6768C145.615 37.9958 145.963 38.1553 146.468 38.1553C146.868 38.1553 147.176 37.9941 147.391 37.6719C147.605 37.3464 147.713 36.8809 147.713 36.2754C147.713 35.6634 147.605 35.2028 147.391 34.8936C147.179 34.5843 146.868 34.4297 146.458 34.4297Z" fill="#3E4246"/>
<path d="M41.2217 143.421C41.2217 143.971 41.1517 144.472 41.0117 144.925C40.8717 145.374 40.6634 145.761 40.3867 146.087C40.1133 146.409 39.7699 146.658 39.3564 146.834C38.9463 147.01 38.4661 147.098 37.916 147.098C37.3561 147.098 36.8678 147.01 36.4512 146.834C36.0378 146.658 35.6943 146.408 35.4209 146.082C35.1475 145.757 34.9424 145.368 34.8057 144.915C34.6722 144.463 34.6055 143.961 34.6055 143.411C34.6055 142.679 34.7259 142.037 34.9668 141.487C35.2077 140.937 35.5739 140.511 36.0654 140.208C36.5602 139.902 37.182 139.749 37.9307 139.749C38.6533 139.749 39.2588 139.9 39.7471 140.203C40.2354 140.506 40.6032 140.932 40.8506 141.482C41.098 142.029 41.2217 142.675 41.2217 143.421ZM35.6553 143.421C35.6553 144 35.735 144.502 35.8945 144.925C36.0573 145.345 36.3047 145.67 36.6367 145.901C36.972 146.129 37.3984 146.243 37.916 146.243C38.4401 146.243 38.8682 146.129 39.2002 145.901C39.5322 145.67 39.7764 145.345 39.9326 144.925C40.0889 144.502 40.167 144 40.167 143.421C40.167 142.542 39.988 141.855 39.6299 141.36C39.2718 140.862 38.7054 140.613 37.9307 140.613C37.4098 140.613 36.9818 140.727 36.6465 140.955C36.3112 141.18 36.0622 141.502 35.8994 141.922C35.7367 142.339 35.6553 142.838 35.6553 143.421ZM48.2822 139.861V144.48C48.2822 144.982 48.1781 145.429 47.9697 145.823C47.7646 146.217 47.4538 146.528 47.0371 146.756C46.6204 146.984 46.0964 147.098 45.4648 147.098C44.5697 147.098 43.8861 146.858 43.4141 146.38C42.9453 145.898 42.7109 145.258 42.7109 144.461V139.861H43.7168V144.422C43.7168 145.024 43.8665 145.478 44.166 145.784C44.4688 146.09 44.918 146.243 45.5137 146.243C45.9238 146.243 46.2591 146.17 46.5195 146.023C46.7799 145.874 46.972 145.664 47.0957 145.394C47.2227 145.12 47.2861 144.796 47.2861 144.422V139.861H48.2822ZM52.4766 147H51.4707V140.726H49.3027V139.861H54.6396V140.726H52.4766V147ZM57.6963 139.861C58.6175 139.861 59.2897 140.045 59.7129 140.413C60.1393 140.781 60.3525 141.303 60.3525 141.98C60.3525 142.286 60.3037 142.578 60.2061 142.854C60.1084 143.128 59.9489 143.37 59.7275 143.582C59.5094 143.79 59.2214 143.956 58.8633 144.08C58.5052 144.201 58.0658 144.261 57.5449 144.261H56.7295V147H55.7285V139.861H57.6963ZM57.6182 140.701H56.7295V143.416H57.4375C57.8509 143.416 58.1976 143.37 58.4775 143.279C58.7575 143.185 58.9691 143.035 59.1123 142.83C59.2555 142.625 59.3271 142.355 59.3271 142.02C59.3271 141.577 59.1888 141.246 58.9121 141.028C58.6354 140.81 58.2041 140.701 57.6182 140.701ZM67.3154 139.861V144.48C67.3154 144.982 67.2113 145.429 67.0029 145.823C66.7979 146.217 66.487 146.528 66.0703 146.756C65.6536 146.984 65.1296 147.098 64.498 147.098C63.6029 147.098 62.9193 146.858 62.4473 146.38C61.9785 145.898 61.7441 145.258 61.7441 144.461V139.861H62.75V144.422C62.75 145.024 62.8997 145.478 63.1992 145.784C63.502 146.09 63.9512 146.243 64.5469 146.243C64.957 146.243 65.2923 146.17 65.5527 146.023C65.8132 145.874 66.0052 145.664 66.1289 145.394C66.2559 145.12 66.3193 144.796 66.3193 144.422V139.861H67.3154ZM71.5098 147H70.5039V140.726H68.3359V139.861H73.6729V140.726H71.5098V147Z" fill="#3E4246"/>
<line x1="178" y1="26" x2="178" y2="48" stroke="#C0C0C0" stroke-width="2"/>
<path fill-rule="evenodd" clip-rule="evenodd" d="M166 36.6186L169.19 39.8097L169.81 39.1911L166.619 36L169.81 32.8097L169.191 32.1902L166 35.3814L162.81 32.1902L162.191 32.8097L165.381 36L162.191 39.1902L162.81 39.8097L166 36.6186Z" fill="#7C7C7C"/>
<line x1="36" y1="223" x2="161" y2="223" stroke="#C0C0C0" stroke-width="2"/>
<line x1="35" y1="224" x2="35" y2="155" stroke="#C0C0C0" stroke-width="2"/>
<rect x="46" y="204" width="8" height="18" fill="#447099"/>
<rect x="127" y="204" width="8" height="18" fill="#447099"/>
<rect x="62" y="160" width="8" height="62" fill="#447099"/>
<rect x="95" y="169" width="8" height="53" fill="#447099"/>
<rect x="79" y="187" width="8" height="35" fill="#447099"/>
<rect x="143" y="187" width="8" height="35" fill="#447099"/>
<rect x="111" y="178" width="8" height="44" fill="#447099"/>
<rect x="34" y="61" width="452" height="66" rx="4" fill="#F4F4F4"/>
<path d="M34 65C34 62.7909 35.7909 61 38 61H482C484.209 61 486 62.7909 486 65V75H34V65Z" fill="#DEDEDE"/>
<rect x="42" y="79" width="94" height="8" fill="#C0C0C0"/>
<rect x="42" y="91" width="192" height="8" fill="#C0C0C0"/>
<rect x="42" y="103" width="122" height="8" fill="#C0C0C0"/>
<rect x="42" y="114" width="70" height="8" fill="#C0C0C0"/>
<rect x="42.5" y="53.5" width="49" height="17" rx="5.5" fill="white" stroke="#C0C0C0"/>
<path d="M49 66V58L55 62L49 66Z" stroke="#7C7C7C" stroke-linejoin="bevel"/>
<path fill-rule="evenodd" clip-rule="evenodd" d="M81.875 59.0625H83.9375V59.75H83.25V65.9375L82.5625 66.625H77.75L77.0625 65.9375V59.75H76.375V59.0625H78.4375V58.375C78.4375 58.1927 78.5099 58.0178 78.6389 57.8889C78.7678 57.7599 78.9427 57.6875 79.125 57.6875H81.1875C81.3698 57.6875 81.5447 57.7599 81.6736 57.8889C81.8026 58.0178 81.875 58.1927 81.875 58.375V59.0625ZM81.1875 58.375H79.125V59.0625H81.1875V58.375ZM77.75 65.9375H82.5625V59.75H77.75V65.9375ZM79.125 60.4375H78.4375V65.25H79.125V60.4375ZM79.8125 60.4375H80.5V65.25H79.8125V60.4375ZM81.1875 60.4375H81.875V65.25H81.1875V60.4375Z" fill="#7C7C7C"/>
<path d="M62.3 62.65C62.7142 62.65 63.05 62.3142 63.05 61.9C63.05 61.4858 62.7142 61.15 62.3 61.15C61.8858 61.15 61.55 61.4858 61.55 61.9C61.55 62.3142 61.8858 62.65 62.3 62.65Z" fill="#7C7C7C"/>
<path d="M65 62.65C65.4142 62.65 65.75 62.3142 65.75 61.9C65.75 61.4858 65.4142 61.15 65 61.15C64.5858 61.15 64.25 61.4858 64.25 61.9C64.25 62.3142 64.5858 62.65 65 62.65Z" fill="#7C7C7C"/>
<path d="M67.7 62.65C68.1142 62.65 68.45 62.3142 68.45 61.9C68.45 61.4858 68.1142 61.15 67.7 61.15C67.2858 61.15 66.95 61.4858 66.95 61.9C66.95 62.3142 67.2858 62.65 67.7 62.65Z" fill="#7C7C7C"/>
</svg>
