<?xml version="1.0"?>
<svg width="344.4" height="344.4" xmlns="http://www.w3.org/2000/svg" xmlns:svg="http://www.w3.org/2000/svg" enable-background="new 0 0 1209.5 344.4" version="1.1" xml:space="preserve">
 <style type="text/css">.st0{fill:#fff100}</style>
 <g class="layer" display="inline">
  <title>Layer 1</title>
  <path d="m172.2,339.4l0,0c-92.5,0 -167.2,-74.7 -167.2,-167.2l0,0c0,-92.5 74.7,-167.2 167.2,-167.2l0,0c92.5,0 167.2,74.7 167.2,167.2l0,0c0,92.5 -74.7,167.2 -167.2,167.2z" id="svg_2"/>
  <path class="st0" d="m261.6,147.4l-32.8,0l0,49.5l32.8,0c13.6,0 24.9,-11.3 24.9,-24.9c0,-13.7 -11.3,-24.6 -24.9,-24.6" id="svg_3"/>
  <path class="st0" d="m68.1,172.2c0,38.2 31.1,69.3 69.3,69.3s69.3,-31.1 69.3,-69.3s-31.1,-69.3 -69.3,-69.3s-69.3,31.1 -69.3,69.3l0,0" id="svg_4"/>
 </g>
</svg>