<svg width="64" height="64" viewBox="0 0 64 64" fill="none" xmlns="http://www.w3.org/2000/svg">
<path d="M61.0632 28.2964L53.7385 32.4395L61.0632 36.5825C62.9255 37.6305 63.5462 39.9458 62.4785 41.7492C61.4109 43.5527 59.052 44.1619 57.1898 43.1384L44.0548 35.7296C43.1858 35.2421 42.5651 34.4623 42.2919 33.5849C42.1678 33.1706 42.0933 32.7563 42.1181 32.3663C42.1181 32.0739 42.1678 31.7814 42.2423 31.4646C42.5154 30.5385 43.1113 29.7099 44.03 29.1981L57.165 21.7893C59.0024 20.7413 61.386 21.375 62.4537 23.1785C63.5214 24.9819 62.9006 27.2972 61.0384 28.3451L61.0632 28.2964ZM54.1109 48.3781L40.976 40.9693C40.2807 40.5794 39.4862 40.4088 38.7413 40.4819C36.7301 40.6281 35.1658 42.261 35.1658 44.2351V59.0527C35.1658 61.1486 36.8791 62.8302 39.0392 62.8302C41.1994 62.8302 42.9127 61.1486 42.9127 59.0527V50.7665L50.2623 54.9096C52.0997 55.9575 54.4834 55.3483 55.551 53.5448C56.6187 51.7413 55.998 49.4261 54.1357 48.3781H54.1109ZM38.9648 33.9017L33.5022 39.239C33.3532 39.3852 33.0553 39.5314 32.807 39.5314H31.193C30.9696 39.5314 30.6716 39.4096 30.4978 39.239L25.0353 33.9017C24.8863 33.7555 24.7621 33.4387 24.7621 33.2437V31.684C24.7621 31.4646 24.8863 31.1722 25.0353 31.0016L30.4978 25.6643C30.6468 25.5181 30.9696 25.3962 31.193 25.3962H32.807C33.0304 25.3962 33.3284 25.5181 33.5022 25.6643L38.9648 31.0016C39.1137 31.1478 39.2379 31.4646 39.2379 31.684V33.2437C39.2379 33.4631 39.1137 33.7555 38.9648 33.9017ZM34.5947 32.4151C34.5947 32.1958 34.4706 31.9033 34.2968 31.7327L32.7076 30.1973C32.5587 30.0511 32.2359 29.9292 32.0124 29.9292H31.9379C31.7145 29.9292 31.4165 30.0511 31.2675 30.1973L29.6784 31.7327C29.5294 31.9033 29.4053 32.1958 29.4053 32.4151V32.4638C29.4053 32.6832 29.5294 32.9756 29.6784 33.1219L31.2675 34.6572C31.4165 34.8035 31.7393 34.9253 31.9379 34.9253H32.0124C32.2359 34.9253 32.5338 34.8035 32.7076 34.6572L34.2968 33.1219C34.4457 32.9756 34.5947 32.6588 34.5947 32.4638V32.4151ZM9.88909 16.4764L23.024 23.8852C23.7193 24.2752 24.5138 24.4458 25.2587 24.3726C27.2699 24.2264 28.8342 22.5936 28.8342 20.5951V5.77751C28.8342 3.70597 27.0961 2 24.9608 2C22.8254 2 21.0873 3.6816 21.0873 5.77751V14.0637L13.7377 9.9206C11.9003 8.87264 9.54147 9.50629 8.44897 11.3097C7.38128 13.1132 8.00203 15.4285 9.86426 16.4764H9.88909ZM38.7413 24.397C39.4862 24.4458 40.2807 24.2995 40.976 23.9096L54.1109 16.5008C55.9731 15.4528 56.5939 13.1376 55.5262 11.3341C54.4585 9.53066 52.0997 8.92138 50.2375 9.94497L42.8879 14.088V5.80189C42.8879 3.73034 41.1498 2.02437 39.0144 2.02437C36.8791 2.02437 35.141 3.70597 35.141 5.80189V20.6195C35.141 22.6179 36.7052 24.2508 38.7165 24.397H38.7413ZM25.2836 40.4819C24.5387 40.4088 23.7441 40.5794 23.0489 40.9693L9.91392 48.3781C8.07652 49.4261 7.43095 51.7413 8.49863 53.5448C9.56631 55.3483 11.9251 55.9575 13.7874 54.9096L21.137 50.7665V59.0527C21.137 61.1486 22.8751 62.8302 25.0104 62.8302C27.1458 62.8302 28.8839 61.1486 28.8839 59.0527V44.2351C28.8839 42.2366 27.2948 40.6038 25.3084 40.4819H25.2836ZM21.7081 33.5605C21.8322 33.1462 21.8819 32.7319 21.8819 32.342C21.8819 32.0495 21.8322 31.7571 21.7329 31.4403C21.4846 30.5141 20.8638 29.6855 19.9451 29.1737L6.8102 21.7649C4.94797 20.717 2.58914 21.3506 1.52146 23.1541C0.453777 24.9575 1.07453 27.2728 2.93676 28.3208L10.2615 32.4638L2.93676 36.6069C1.07453 37.6549 0.453777 39.9701 1.52146 41.7736C2.58914 43.577 4.94797 44.1863 6.8102 43.1627L19.9451 35.7539C20.839 35.2665 21.4349 34.4866 21.7081 33.6093V33.5605Z" fill="#29B5E8"/>
</svg>
