<?xml version="1.0" encoding="UTF-8"?><svg id="Layer_2" xmlns="http://www.w3.org/2000/svg" viewBox="38.5 -2.7 80 80" x="0px" y="0px"><defs><style>.cls-1{fill:#213d4f;}</style></defs><path class="cls-1" d="M77.37,60.07c.66.66,1.73.66,2.39,0l30.06-30.06,5.81,5.81c.66.66.66,1.73,0,2.39l-35.87,35.87c-.66.66-1.73.66-2.39,0l-35.87-35.87c-.66-.66-.66-1.73,0-2.39l5.81-5.81,30.06,30.06Z"/><path class="cls-1" d="M79.71,14.56c-.66-.66-1.73-.66-2.39,0l-16.33,16.33-5.81-5.81c-.66-.66-.66-1.73,0-2.39L77.32.56c.66-.66,1.73-.66,2.39,0l22.22,22.22c.66.66.66,1.73,0,2.39l-5.81,5.81-16.41-16.41Z"/><rect class="cls-1" x="70.86" y="28.95" width="15.4" height="15.4" rx="1.82" ry="1.82" transform="translate(-2.9 66.28) rotate(-45)"/></svg>
