<?xml version="1.0" encoding="UTF-8" standalone="no"?>
<!DOCTYPE svg PUBLIC "-//W3C//DTD SVG 1.1//EN" "http://www.w3.org/Graphics/SVG/1.1/DTD/svg11.dtd">
<svg version="1.1" xmlns="http://www.w3.org/2000/svg" xmlns:xlink="http://www.w3.org/1999/xlink" preserveAspectRatio="xMidYMid meet" viewBox="0 0 16 16" width="16" height="16"><defs><path d="M10.18 7.56L7.35 7.56" id="aF66deqzp"></path><path d="M9.14 4.67L6.28 4.67L6.28 13.06L11.25 13.06L11.25 6.93L11.99 6.93L11.99 14.03L5.54 14.03L5.54 3.7L9.14 3.7L9.14 4.67ZM9.64 6.36L9.64 3.7L11.99 6.36L9.64 6.36Z" id="b2GO1kijJL"></path><path d="M10.18 9.11L7.35 9.11" id="c2crTfzSSx"></path><path d="M10.18 10.85L7.35 10.85" id="g8tf3xbETq"></path><path d="M5.54 11.67L3.04 11.67L3.04 2.38L5.93 2.38" id="e3zDOD27e"></path><path d="M6.6 1.79L9.43 1.79L6.6 1.79L6.6 1.79Z" id="d2A6Y4wUQ"></path><path d="M12.29 1.11L15.12 1.11L12.29 1.11L12.29 1.11Z" id="fQ13ghGMB"></path><path d="M5.54 7.56L4.48 7.56" id="a3L9P7uuuc"></path><path d="M5.54 5.95L4.48 5.95" id="a1IWLF0rEt"></path><path d="M5.54 9.3L4.48 9.3" id="egAXAJqJd"></path></defs><g><g><g><g><use xlink:href="#aF66deqzp" opacity="1" fill-opacity="0" stroke="#C5C5C5" stroke-width="1" stroke-opacity="1"></use></g></g><g><use xlink:href="#b2GO1kijJL" opacity="1" fill="#C5C5C5" fill-opacity="1"></use></g><g><g><use xlink:href="#c2crTfzSSx" opacity="1" fill-opacity="0" stroke="#C5C5C5" stroke-width="1" stroke-opacity="1"></use></g></g><g><g><use xlink:href="#g8tf3xbETq" opacity="1" fill-opacity="0" stroke="#C5C5C5" stroke-width="1" stroke-opacity="1"></use></g></g><g><g><use xlink:href="#e3zDOD27e" opacity="1" fill-opacity="0" stroke="#C5C5C5" stroke-width="1" stroke-opacity="1"></use></g></g><g><use xlink:href="#d2A6Y4wUQ" opacity="1" fill="#c5c5c5" fill-opacity="1"></use></g><g><use xlink:href="#fQ13ghGMB" opacity="1" fill="#c5c5c5" fill-opacity="1"></use></g><g><g><use xlink:href="#a3L9P7uuuc" opacity="1" fill-opacity="0" stroke="#c5c5c5" stroke-width="1" stroke-opacity="1"></use></g></g><g><g><use xlink:href="#a1IWLF0rEt" opacity="1" fill-opacity="0" stroke="#C5C5C5" stroke-width="1" stroke-opacity="1"></use></g></g><g><g><use xlink:href="#egAXAJqJd" opacity="1" fill-opacity="0" stroke="#C5C5C5" stroke-width="1" stroke-opacity="1"></use></g></g></g></g></svg>