<svg xmlns="http://www.w3.org/2000/svg" viewBox="0 0 16 16"><defs><style>.icon-canvas-transparent,.icon-vs-out{fill:#f6f6f6;}.icon-canvas-transparent{opacity:0;}.icon-vs-action-blue{fill:#00539c;}</style></defs><title>Undo_16x</title><g ><path class="icon-canvas-transparent" d="M16,0V16H0V0Z"/></g><g  style="display: none;"><path class="icon-vs-out" d="M14.888,5.972a5.853,5.853,0,0,1-1.728,4.2L7.336,16H7.094L4.387,13.293l5.945-5.945a1.928,1.928,0,0,0,0-2.727A2.036,2.036,0,0,0,9,4.011V8H1V0H5V1.474a5.934,5.934,0,0,1,8.1.262A6.006,6.006,0,0,1,14.888,5.972Z" style="display: none;"/></g><g ><path class="icon-vs-action-blue" d="M12.453,9.469,7.215,14.707,5.8,13.293l5.238-5.238a2.927,2.927,0,0,0,0-4.141,2.949,2.949,0,0,0-4.2-.057L5.7,5H8V7H2V1H4V3.872L5.428,2.443a4.968,4.968,0,0,1,7.025,7.026Z"/></g></svg>